<?xml version="1.0" encoding="UTF-8"?>
<!DOCTYPE svg PUBLIC "-//W3C//DTD SVG 1.1//EN" "http://www.w3.org/Graphics/SVG/1.1/DTD/svg11.dtd">
<!-- Creator: CorelDRAW 2021 (64-Bit) -->
<svg xmlns="http://www.w3.org/2000/svg" xml:space="preserve" width="215.9mm" height="279.4mm" version="1.1" style="shape-rendering:geometricPrecision; text-rendering:geometricPrecision; image-rendering:optimizeQuality; fill-rule:evenodd; clip-rule:evenodd"
viewBox="0 0 21590 27940"
 xmlns:xlink="http://www.w3.org/1999/xlink"
 xmlns:xodm="http://www.corel.com/coreldraw/odm/2003">
 <defs>
  <style type="text/css">
   <![CDATA[
    .str5 {stroke:white;stroke-width:41.46;stroke-linecap:round;stroke-linejoin:round;stroke-miterlimit:22.9256;stroke-opacity:0.549020}
    .str6 {stroke:white;stroke-width:15.69;stroke-miterlimit:22.9256}
    .str0 {stroke:#2A4282;stroke-width:31.43;stroke-miterlimit:22.9256}
    .str7 {stroke:#C7E9FF;stroke-width:29.82;stroke-miterlimit:22.9256}
    .str2 {stroke:white;stroke-width:45.64;stroke-miterlimit:22.9256}
    .str3 {stroke:#BC4ED8;stroke-width:25.37;stroke-miterlimit:22.9256}
    .str1 {stroke:white;stroke-width:22.83;stroke-miterlimit:22.9256}
    .str4 {stroke:#FEFEF4;stroke-width:20.43;stroke-miterlimit:22.9256}
    .str9 {stroke:#BC4ED8;stroke-width:59.64;stroke-linecap:round;stroke-miterlimit:22.9256}
    .str11 {stroke:white;stroke-width:38.52;stroke-linecap:round;stroke-linejoin:round;stroke-miterlimit:22.9256}
    .str15 {stroke:#858585;stroke-width:5.69;stroke-linecap:round;stroke-linejoin:round;stroke-miterlimit:22.9256}
    .str8 {stroke:white;stroke-width:59.64;stroke-linecap:round;stroke-linejoin:round;stroke-miterlimit:22.9256}
    .str12 {stroke:white;stroke-width:13.94;stroke-linecap:round;stroke-linejoin:round;stroke-miterlimit:22.9256}
    .str10 {stroke:white;stroke-width:19.26;stroke-linecap:round;stroke-linejoin:round;stroke-miterlimit:22.9256}
    .str13 {stroke:white;stroke-width:27.86;stroke-linecap:round;stroke-linejoin:round;stroke-miterlimit:22.9256}
    .str14 {stroke:#381C0E;stroke-width:12.73;stroke-linecap:round;stroke-linejoin:round;stroke-miterlimit:22.9256}
    .str16 {stroke:#BD633F;stroke-width:12.73;stroke-linecap:round;stroke-linejoin:round;stroke-miterlimit:22.9256}
    .fil4 {fill:none;fill-rule:nonzero}
    .fil23 {fill:none;fill-rule:nonzero}
    .fil34 {fill:#1B3266;fill-rule:nonzero}
    .fil7 {fill:#263238;fill-rule:nonzero}
    .fil13 {fill:#2A4282;fill-rule:nonzero}
    .fil35 {fill:#381C0E;fill-rule:nonzero}
    .fil15 {fill:#38323F;fill-rule:nonzero}
    .fil14 {fill:#4A4251;fill-rule:nonzero}
    .fil26 {fill:#4F78D3;fill-rule:nonzero}
    .fil16 {fill:#564B5E;fill-rule:nonzero}
    .fil5 {fill:#7F00B2;fill-rule:nonzero}
    .fil1 {fill:#B8DFF2;fill-rule:nonzero}
    .fil2 {fill:#BC4ED8;fill-rule:nonzero}
    .fil12 {fill:#BFBFBF;fill-rule:nonzero}
    .fil33 {fill:#CCCCCC;fill-rule:nonzero}
    .fil17 {fill:#D35974;fill-rule:nonzero}
    .fil25 {fill:#E2E2E2;fill-rule:nonzero}
    .fil20 {fill:#E56E82;fill-rule:nonzero}
    .fil28 {fill:#E89C03;fill-rule:nonzero}
    .fil21 {fill:#E8E8E8;fill-rule:nonzero}
    .fil11 {fill:#F2CFAA;fill-rule:nonzero}
    .fil29 {fill:#F5A905;fill-rule:nonzero}
    .fil18 {fill:#F8798A;fill-rule:nonzero}
    .fil0 {fill:#F988FF;fill-rule:nonzero}
    .fil27 {fill:#FDFDFD;fill-rule:nonzero}
    .fil30 {fill:#FEC00D;fill-rule:nonzero}
    .fil31 {fill:#FECD40;fill-rule:nonzero}
    .fil22 {fill:#FFB53E;fill-rule:nonzero}
    .fil24 {fill:#FFC359;fill-rule:nonzero}
    .fil9 {fill:white;fill-rule:nonzero}
    .fil36 {fill:#D9592A;fill-rule:nonzero;fill-opacity:0.250980}
    .fil8 {fill:black;fill-rule:nonzero;fill-opacity:0.301961}
    .fil6 {fill:#7F00B2;fill-rule:nonzero;fill-opacity:0.301961}
    .fil32 {fill:#EEBE6A;fill-rule:nonzero;fill-opacity:0.301961}
    .fil10 {fill:#BC4ED8;fill-rule:nonzero;fill-opacity:0.439216}
    .fil19 {fill:#89A5AF;fill-rule:nonzero;fill-opacity:0.478431}
    .fil3 {fill:#F0FBFF;fill-rule:nonzero;fill-opacity:0.701961}
   ]]>
  </style>
 </defs>
 <g id="Capa_x0020_1">
  <metadata id="CorelCorpID_0Corel-Layer"/>
  <g>
   <path class="fil0" d="M15378.38 18835.56c1508.47,20.53 3222.15,61.62 3222.15,61.62 0,0 407.22,0 407.22,-228.86 0,-88.66 -32.04,-476.73 -1041.51,-159.6 70.99,-43.66 452.44,-187.64 304.72,-408.33 -93.29,-139.38 -278.39,-22.2 -342.74,30.82 113.06,-153.11 154.07,-810.18 -249.32,-1130.64 -603.25,-479.32 -1184.59,-66.41 -1293.81,159.2 -55.32,-221.4 -309.4,-389.1 -476.73,-430.64 -381.58,-94.75 -630.18,-66.68 -986.45,99.72 -125.99,58.84 -294.77,259.85 -378.54,370.89 -131.26,173.91 -151.69,405.21 -158.94,622.88 -5.42,163.44 -6.15,326.94 -2.18,490.49l996.13 522.45zm0 0l0 0 0 0z"/>
  </g>
  <g>
   <path class="fil1" d="M15156.18 18880.61l3295.31 44.98c36.86,0.48 153.06,-35.45 -47.15,-164.57 -169.57,-109.33 -705.59,-10.95 -705.59,-10.95 0,0 124.75,-50.01 124.2,-114.56 -5.17,-65.86 -47.09,-123.24 -108.25,-148.19 -46.47,-18.12 -95.98,-27.47 -145.88,-27.47 -14.74,0 -29.53,0.83 -44.17,2.45 -131.23,7.61 -260.89,36.59 -382.85,85.67 33.32,-20.09 53.73,-56.2 53.73,-95.17 0,-61.36 -49.76,-111.13 -111.13,-111.13 -26.12,0 -51.43,9.21 -71.43,26 82.34,-111.47 209.6,-605.58 -181.53,-823.33 -490.27,-272.92 -862.54,-48.31 -942.08,115.94 -40.27,-161.24 -225.29,-283.29 -347.13,-313.53 -277.81,-69 -458.89,-48.58 -718.29,72.58 -91.78,42.86 -214.68,189.26 -275.7,270.11 -95.54,126.66 -110.41,295.04 -115.68,453.58 -3.96,119.04 -4.5,238.1 -1.63,357.2l725.25 380.39zm0 0l0 0 0 0z"/>
  </g>
  <g>
   <path class="fil0" d="M11585.63 18835.56c-1508.47,20.53 -3222.15,61.62 -3222.15,61.62 0,0 -407.27,0 -407.27,-228.86 0,-88.66 32.09,-476.73 1041.56,-159.6 -71.04,-43.66 -452.44,-187.64 -304.72,-408.33 93.29,-139.38 278.39,-22.2 342.69,30.82 -113.03,-153.11 -154.07,-810.18 249.34,-1130.64 603.25,-479.32 1184.59,-66.41 1293.81,159.2 55.35,-221.4 309.4,-389.1 476.73,-430.64 381.61,-94.75 630.21,-66.68 986.45,99.72 126.05,58.84 294.83,259.85 378.57,370.89 131.21,173.91 151.69,405.21 158.88,622.88 5.43,163.44 6.15,326.94 2.19,490.49l-996.08 522.45zm0 0l0 0 0 0z"/>
  </g>
  <g>
   <path class="fil2" d="M11807.8 18880.61l-3295.31 44.98c-36.86,0.48 -153.06,-35.45 47.15,-164.57 169.57,-109.33 705.54,-10.95 705.54,-10.95 0,0 -124.75,-50.01 -124.14,-114.56 5.18,-65.86 47.09,-123.22 108.23,-148.18 46.52,-18.11 96,-27.47 145.92,-27.47 14.75,0 29.54,0.83 44.19,2.45 131.22,7.6 260.88,36.58 382.85,85.66 -33.38,-20.06 -53.84,-56.23 -53.84,-95.22 0,-61.36 49.76,-111.13 111.13,-111.13 26.14,0 51.49,9.24 71.5,26.05 -82.29,-111.47 -209.58,-605.58 181.58,-823.33 490.27,-272.92 862.54,-48.31 941.92,115.94 40.3,-161.24 225.35,-283.29 347.13,-313.53 277.81,-69 458.92,-48.58 718.34,72.58 91.78,42.86 214.66,189.26 275.67,270.11 95.59,126.66 110.46,295.04 115.7,453.58 3.97,119.04 4.51,238.1 1.64,357.2l-725.2 380.39zm0 0l0 0 0 0z"/>
  </g>
  <path class="fil0" d="M10614.85 17107.83c-2.78,2.78 30.82,-264.58 -330.89,-565.15 -366.66,-317.5 -1224.86,-365.76 -1304.82,-646.64 -82.81,-300.38 445.98,-179.2 700.03,-368.43 256.65,-193.91 345.25,-286.36 29.9,-383.65 -314.43,-91.78 -505.35,-138.32 -477.28,-404.1 28.2,-268.95 -512.74,-192.59 -757.24,-415.98 -252.7,-224.18 -76.73,-472.73 437.99,-405.55 504.48,78.63 531.47,-3.1 392.96,-96.26 -136.02,-92.18 -566.47,-271.3 -364.3,-389.97 207.41,-119.78 476.89,32.36 344.49,-155.31 -130.41,-188.86 -472.44,-350.36 -280.62,-522.05 191.64,-174.12 635,-111.13 837.25,411.72 196.98,520.7 265.56,667.25 504.61,746.28 232.54,80.54 484.93,-154.57 767.79,-18.31 280.17,139.51 196.32,412.96 3.49,580.65 -197.3,167.64 -532.16,505.99 -368.51,688.98 156.55,183.65 392.4,-40.01 650.88,-58.42 286.89,-20.45 582.77,253.23 278.53,612.3 -313.93,352.53 -768.35,609.34 -866.93,1487.88 -65.22,-33.91 -130.99,-66.58 -197.33,-97.99z"/>
  <path class="fil3" d="M10725.28 17176.67c-0.1,-0.01 -0.22,-0.01 -0.33,-0.01 -7.63,0 -14.08,-5.67 -15.06,-13.24 -375.92,-3113.03 -1466.03,-4350.01 -1476.98,-4362.13 -2.82,-2.84 -4.41,-6.69 -4.41,-10.7 0,-8.39 6.8,-15.19 15.19,-15.19 4.52,0 8.81,2.02 11.69,5.49 11.03,12.22 1107.6,1256.43 1484.68,4378.85 0.06,0.61 0.1,1.23 0.1,1.84 0,7.67 -5.73,14.14 -13.34,15.08 -0.26,0.01 -0.51,0.02 -0.77,0.02 -0.26,0 -0.51,-0.01 -0.77,-0.03l0 0.02z"/>
  <path class="fil3" d="M9858.93 13845.41c-0.16,0 -0.34,0 -0.52,0 -3.37,0 -6.64,-1.15 -9.26,-3.26 -359.83,-287.05 -808.09,-326.44 -812.56,-326.79 -7.89,-0.64 -13.98,-7.24 -13.98,-15.16 0,-0.39 0.02,-0.78 0.04,-1.16 0.42,-7.85 6.91,-14.01 14.77,-14.01 0.54,0 1.08,0.03 1.61,0.09 4.6,0.34 461.7,40.3 829.02,333.38 3.61,2.87 5.71,7.23 5.71,11.85 0,8.24 -6.58,14.97 -14.81,15.16l-0.02 -0.1z"/>
  <path class="fil3" d="M10214.4 14769.84c-0.11,-0.02 -0.24,-0.02 -0.36,-0.02 -3.98,0 -7.8,-1.59 -10.6,-4.42 -2.87,-2.83 -4.48,-6.7 -4.48,-10.73 0,-4.03 1.61,-7.9 4.47,-10.73 275.76,-266.76 577.6,-507.65 899.27,-716.96 2.38,-1.62 5.23,-2.46 8.14,-2.46 8.4,0 15.21,6.81 15.21,15.21 0,5.18 -2.64,10.01 -7,12.8 -319.62,207.83 -620.34,447.98 -894.07,712.95 -2.78,2.65 -6.58,4.28 -10.57,4.34l-0.01 0.02z"/>
  <path class="fil3" d="M10145.92 14565.6c-0.12,0 -0.25,0 -0.38,0 -2.21,0 -4.4,-0.48 -6.41,-1.41 -687.18,-324.01 -1474.15,-383.88 -1481.98,-384.41 -7.95,-0.59 -14.11,-7.22 -14.11,-15.2 0,-0.35 0.01,-0.7 0.04,-1.05 0.19,-7.87 6.63,-14.15 14.5,-14.15 0.57,0 1.14,0.03 1.7,0.1 7.94,0.53 800.5,60.85 1492.75,387.19 5.3,2.51 8.7,7.86 8.7,13.74 0,8.24 -6.57,14.97 -14.8,15.18l-0.01 0.01z"/>
  <path class="fil3" d="M10573.54 16192.55c-0.16,0 -0.34,0 -0.52,0 -2.47,0 -4.9,-0.62 -7.06,-1.81 -468.68,-254.82 -1279.39,-339.12 -1287.52,-339.94 -7.72,-0.79 -13.61,-7.3 -13.61,-15.08 0,-0.5 0.03,-1.01 0.08,-1.51 0.71,-7.72 7.18,-13.63 14.94,-13.63 0.55,0 1.1,0.03 1.65,0.09 8.18,0.79 824.87,85.65 1298.95,343.43 4.86,2.65 7.91,7.77 7.91,13.33 0,2.53 -0.64,5.03 -1.85,7.26 -2.57,4.77 -7.53,7.78 -12.96,7.86l-0.01 0z"/>
  <path class="fil3" d="M10612.99 16409.83c-0.1,-0.02 -0.23,-0.02 -0.35,-0.02 -2.11,0 -4.2,-0.45 -6.12,-1.33 -5.46,-2.42 -8.98,-7.84 -8.98,-13.82 0,-2.13 0.45,-4.23 1.32,-6.17 261.94,-587.93 875.77,-1022.75 881.91,-1027.03 2.53,-1.8 5.59,-2.77 8.72,-2.77 8.39,0 15.19,6.8 15.19,15.19 0,4.94 -2.41,9.58 -6.45,12.42 -6.14,4.29 -613.3,434.42 -871.72,1014.49 -2.36,5.37 -7.63,8.89 -13.5,9.03l-0.02 0.01z"/>
  <path class="fil0" d="M16728.1 14426.54c2.96,2.65 -51.78,-261.36 284.8,-589.73 340.2,-345.65 1191.84,-462.09 1249.18,-748.45 58.66,-306.04 -458.84,-143.14 -727.13,-311.52 -271.17,-172.75 -366.95,-257.94 -60.35,-379.81 306.18,-116.55 492.73,-178.14 443.65,-440.82 -49.53,-265.85 495.75,-232.83 721.7,-474.95 234.08,-243.6 38.84,-477.39 -468.89,-369.38 -496.62,118.53 -530.01,39.21 -399.52,-64.69 128.24,-102.68 543.11,-315.52 332.13,-417.7 -216.32,-102.87 -472.78,70.19 -355.76,-127.42 114.96,-198.68 443.02,-386.87 238.13,-542.77 -204.84,-158.27 -641.75,-60.09 -801.69,477.12 -154.91,534.72 -211.67,686.28 -443.6,784.07 -225.37,98.8 -495.7,-115.44 -766.82,42.92 -268.16,161.4 -162.77,427.28 42.78,579.04 210.03,151.39 570.76,462.02 422.2,657.46 -141.45,195.53 -394.23,-8.65 -653.52,-6.4 -287.58,2.46 -560.78,298.85 -228.92,632.57 341.05,326.39 814.49,546.15 982.69,1414.12 62.32,-39.1 125.3,-76.99 188.94,-113.66z"/>
  <path class="fil3" d="M16623.4 14504.06c7.78,-0.44 13.98,-6.7 14.31,-14.49 127,-3133.09 1115.06,-4452.94 1124.98,-4465.93 2.05,-2.64 3.16,-5.9 3.16,-9.25 0,-8.38 -6.79,-15.17 -15.17,-15.17 -4.7,0 -9.14,2.19 -12.01,5.91 -10.05,13.07 -1004.01,1340.62 -1131.31,4483.15 -0.01,0.23 -0.02,0.47 -0.02,0.7 0,8.14 6.41,14.83 14.54,15.18 0.06,-0.01 0.12,-0.01 0.18,-0.01 0.45,0 0.9,-0.04 1.34,-0.11l0 0.02z"/>
  <path class="fil3" d="M17221.84 11114.51c3.52,-0.21 6.89,-1.65 9.48,-4.06 336.02,-314.85 779.54,-389.73 783.93,-390.45 7.38,-1.16 12.8,-7.52 12.8,-14.98 0,-0.8 -0.06,-1.6 -0.19,-2.39 -0.98,-7.36 -7.27,-12.86 -14.69,-12.86 -0.92,0 -1.84,0.09 -2.75,0.26 -4.5,0.74 -456.99,76.94 -799.84,398.25 -3.05,2.88 -4.79,6.89 -4.79,11.09 0,3.85 1.46,7.55 4.08,10.37 2.9,3.06 6.93,4.79 11.14,4.79 0.27,0 0.55,-0.01 0.81,-0.02l0.02 0z"/>
  <path class="fil3" d="M16940.98 12064.21c8.02,-0.46 14.29,-7.11 14.29,-15.14 0,-4.44 -1.95,-8.66 -5.32,-11.53 -295.8,-243.47 -616.68,-460.08 -953.71,-642.92 -2.02,-1.46 -4.48,-2.08 -6.98,-2.08 -8.39,0 -15.19,6.8 -15.19,15.19 0,5.61 3.09,10.76 8.03,13.4 335.36,181.57 653.72,396.98 947.98,639.4 2.88,2.4 6.37,3.7 9.97,3.7 0.31,0 0.62,-0.01 0.93,-0.03l0 0.01z"/>
  <path class="fil3" d="M16993.1 11855.11c2.34,-0.12 4.63,-0.79 6.67,-1.94 659.18,-377.69 1438.88,-500.06 1446.66,-501.23 7.4,-1.1 12.89,-7.47 12.89,-14.96 0,-0.76 -0.06,-1.53 -0.17,-2.28 -0.75,-7.41 -6.98,-13.04 -14.42,-13.04 -0.95,0 -1.9,0.09 -2.83,0.28 -7.94,1.19 -793.14,124.35 -1457.17,504.85 -4.72,2.7 -7.63,7.73 -7.63,13.17 0,8.39 6.8,15.19 15.19,15.19 0.28,0 0.55,-0.01 0.83,-0.02l-0.02 -0.02z"/>
  <path class="fil3" d="M16696.37 13511.03c2.63,-0.17 5.19,-1.01 7.41,-2.44 446.91,-291.39 1248.3,-439.9 1256.35,-441.4 7.21,-1.31 12.45,-7.6 12.45,-14.93 0,-8.38 -6.79,-15.17 -15.17,-15.17 -0.91,0 -1.82,0.08 -2.71,0.24 -8.07,1.51 -815.47,151.08 -1267.35,445.82 -4.31,2.81 -6.92,7.6 -6.92,12.74 0,8.37 6.79,15.16 15.16,15.16 0.3,0 0.59,-0.01 0.89,-0.03l-0.11 0.01z"/>
  <path class="fil3" d="M16674.28 13730.68c2.24,-0.1 4.43,-0.72 6.4,-1.8 4.86,-2.65 7.89,-7.75 7.89,-13.29 0,-2.53 -0.63,-5.02 -1.84,-7.24 -307.82,-565.2 -954.41,-949.85 -960.89,-953.56 -2.33,-1.38 -5,-2.11 -7.72,-2.11 -8.4,0 -15.21,6.81 -15.21,15.21 0,5.38 2.85,10.37 7.48,13.1 6.46,3.76 645.93,384.23 949.85,941.92 2.68,4.79 7.75,7.78 13.25,7.78 0.26,0 0.53,-0.01 0.79,-0.02l0 0.01z"/>
  <line class="fil4 str0" x1="2582.23" y1="18897.18" x2="19007.77" y2= "18897.18" />
  <g>
   <path class="fil2" d="M3608.55 18727.92c-24.02,-184.04 -123.02,-350.1 -273.27,-458.91 -257.7,-194.39 -477.41,-174.63 -444.92,-399.89 32.49,-225.26 -210.03,-102.08 -282.2,-444.24 -72.17,-342.16 -2.91,-735.04 328.37,-565.89 331.28,169.15 145.97,576.32 368.22,647.75 222.25,71.43 359.2,22.25 361.53,317.5 2.33,295.25 -75.06,389.52 25.96,523.29 101.02,133.77 105.65,422.12 105.65,422.12l-189.34 -41.73zm0 0l0 0 0 0z"/>
  </g>
  <path class="fil4 str1" d="M3168.17 17562.2c-64.14,-162.43 -78.9,-250.53 -41.09,-341.31"/>
  <path class="fil4 str1" d="M3365.76 17898.14c-27.2,-139.25 23.81,-245.82 96.86,-304.54"/>
  <path class="fil4 str1" d="M3487.53 18140.12c-27.2,-139.25 23.81,-245.82 96.81,-304.54"/>
  <path class="fil4 str1" d="M3643.6 18507.34c-5.02,-23.59 -7.57,-47.65 -7.57,-71.76 0,-36.08 5.73,-72.03 16.91,-106.31"/>
  <path class="fil4 str1" d="M3292.85 17748.83c-96.73,-62.52 -345.39,-221.27 -546.34,-127.32"/>
  <path class="fil4 str1" d="M3431.65 18026.09c-40.14,-50.64 -252.44,-125.92 -450.14,-24.77"/>
  <path class="fil4 str1" d="M3569.76 18319.83c-34.61,-54.56 -173.38,-112.92 -236.64,-99.7"/>
  <path class="fil4 str2" d="M3714.78 18716.41c-42.78,-175.1 -410.66,-1133.29 -903.71,-1595.81"/>
  <path class="fil4 str1" d="M3108.56 17452.47c-154.73,-120.09 -258.58,-250.24 -471.67,-241.72"/>
  <g>
   <path class="fil2" d="M3967.96 18749.46c0,0 -153.99,-317.79 -49.9,-470.75 104.09,-152.96 261.01,-188.83 215.98,-395 -45.03,-206.17 -226.83,-386.48 -157.29,-596.4 69.54,-209.92 408.41,-179.41 493.92,-355.71 85.51,-176.3 89.27,-374.02 290.88,-319.33 201.61,54.69 380.39,301.36 165.13,545.76 -215.26,244.4 -200.82,292.13 -188.2,467.62 12.62,175.49 -338.67,275.99 -382.96,416.59 -44.29,140.6 119.46,299.32 14.13,371.69 -105.33,72.37 -250.9,203.17 -243.58,380.26l-158.11 -44.73zm0 0l0 0 0 0z"/>
  </g>
  <path class="fil4 str1" d="M4435.08 17369.31c32.41,-171.61 30.32,-260.91 -23.81,-342.98"/>
  <path class="fil4 str1" d="M4294.82 17723.33c0.48,-141.84 -55.56,-413.09 -138.27,-456.99"/>
  <path class="fil4 str1" d="M4207.43 18003.84c0.45,-141.9 -45.77,-350.04 -128.56,-393.94"/>
  <path class="fil4 str1" d="M4079.37 18461.65c0.06,-2.42 0.1,-5.01 0.1,-7.48 0,-57.93 -14.75,-115.03 -42.76,-165.69"/>
  <path class="fil4 str1" d="M4347.69 17576.09c87.63,-144.54 176.69,-233.76 449.95,-327.79"/>
  <path class="fil4 str1" d="M4240.48 17889.7c29.85,-57.31 206.38,-216.96 395.39,-200.79"/>
  <path class="fil4 str1" d="M4123.06 18290.2c23.81,-60.14 148.96,-143.56 213.6,-142.48"/>
  <path class="fil4 str2" d="M4049.69 18699.69c9.05,-179.92 255.75,-1284.23 652.86,-1831.31"/>
  <path class="fil4 str1" d="M4472.83 17250.3c129.35,-147.13 206.82,-294.51 417.7,-326.26"/>
  <g>
   <path class="fil2" d="M3729.36 18639.16c0,0 94.11,-365.36 27.68,-470.59 -66.43,-105.23 -271.09,-304.38 -304.38,-536.95 -33.29,-232.57 105.2,-426.3 77.52,-614.49 -27.68,-188.19 -442.89,-453.97 -442.89,-680.96 0,-226.99 224.55,-531.47 521.92,-382.01 297.37,149.46 197.78,465.06 336.18,680.96 138.4,215.9 597.96,686.51 348.77,1051.88 -249.19,365.37 -337.69,642.54 -293.42,885.98l-271.38 66.18zm0 0l0 0 0 0z"/>
  </g>
  <path class="fil4 str1" d="M3883.16 17291.61c8.92,-174.44 79.56,-318.06 151.61,-385.02"/>
  <path class="fil4 str1" d="M3921.6 17664.99c32.97,-138.01 101.55,-213.86 192.3,-237.04"/>
  <path class="fil4 str1" d="M3746.45 16737.36c-3.39,-157.08 -10.11,-314.17 32.7,-418.91"/>
  <path class="fil4 str1" d="M3928.14 17935.65c32.94,-138.01 105.57,-213.86 196.32,-237.04"/>
  <path class="fil4 str1" d="M3914.14 18343.32c16.03,-67.02 31.51,-128.22 68.16,-166.98"/>
  <path class="fil4 str1" d="M3911.71 17527.67c-45.96,-118.8 -115.31,-330.73 -337.16,-328.45"/>
  <path class="fil4 str1" d="M3929.2 17786.35c-15.53,-62.73 -158.99,-235.66 -380.81,-225.5"/>
  <path class="fil4 str1" d="M3921.6 18133.3c-8.86,-64 -122.11,-174.63 -185.21,-188.78"/>
  <path class="fil4 str2" d="M3878.21 18554.33c33.6,-177.11 217.88,-1517.04 -427.62,-2373.95"/>
  <path class="fil4 str1" d="M3842.65 17075.76c-91.07,-173.41 -124.2,-257.86 -321.65,-338.4"/>
  <path class="fil4 str1" d="M3647.52 16497.46c-156.82,-117.4 -223.04,-179.39 -435.95,-167.11"/>
  <g>
   <polygon class="fil5" points="4461.75,18696.15 4455.51,18728.24 4328.03,19347.84 3451.68,19347.84 3324.2,18728.24 3317.96,18696.15 "/>
   <polygon class="fil6" points="4461.75,18696.15 4455.51,18728.24 3324.2,18728.24 3317.96,18696.15 "/>
   <path class="fil5" d="M3230.7 18512.05l1318.33 0c17.55,-0.01 31.77,14.21 31.77,31.74l-0.02 120.92c0.02,17.53 -14.2,31.75 -31.73,31.75l-1318.35 0c-17.52,0 -31.74,-14.22 -31.74,-31.75l-0.01 -120.91c0.01,-17.54 14.23,-31.76 31.76,-31.76z"/>
  </g>
  <path class="fil7" d="M15165.97 18999.73l-4020.11 0c-484.19,-2.22 -880.64,-415.08 -878.6,-899.27l42.65 -10092.8c2.04,-482.87 394.13,-873.25 877.01,-873.25 1.28,0 2.78,0 4.07,0l4025.82 18.52c482.6,2.14 872.85,394.32 872.85,876.96 0,1.18 0,2.57 0,3.75l-42.7 10092.88c-1.93,482.76 -394.09,873.21 -876.94,873.21 -1.28,0 -2.78,0 -4.07,0l0.02 0z"/>
  <path class="fil0" d="M15211 7501.31l-780.52 -3.6c-105.69,1.92 -190.36,88.19 -190.36,193.89 0,1.11 0.02,2.27 0.02,3.36l-0.64 141.61c0.02,1.12 0.04,2.28 0.04,3.42 0,105.7 -84.71,191.94 -190.38,193.84l-1521.35 -7.04c-105.03,-2.85 -188.74,-88.88 -188.74,-193.96 0,-1.68 0.05,-3.41 0.07,-5.07l0.61 -141.55c0.01,-1.64 0.06,-3.37 0.06,-5.03 0,-105.1 -83.71,-191.13 -188.76,-194l-274.53 -1.27 -683.15 -3.15c-0.89,0 -1.94,0 -2.84,0 -338.15,0 -612.79,273.45 -614.14,611.6l-41.67 9851.31c0,0.74 0,1.72 0,2.54 0,338.03 273.31,612.7 611.34,614.2l4017.78 18.52c0.9,0.01 1.87,0.01 2.77,0.01 338.18,0 612.78,-273.39 614.2,-611.58l41.62 -9851.36c0,-0.82 0,-1.72 0,-2.54 0,-338.08 -273.37,-612.73 -611.45,-614.15l0.02 0z"/>
  <path class="fil2" d="M11174.86 16976.06l4007.22 0c47.1,-0.01 85.3,38.19 85.3,85.29l0 785.22c0,47.08 -38.2,85.28 -85.3,85.28l-4007.22 0.02c-47.1,-0.02 -85.3,-38.22 -85.3,-85.32l0 -785.18c0,-47.12 38.2,-85.32 85.3,-85.32z"/>
  <path class="fil8" d="M11626.53 17170.16l426.25 0c45.64,-0.02 82.66,37 82.66,82.64l-0.01 426.26c0.01,45.62 -37.01,82.64 -82.65,82.64l-426.25 0.02c-45.64,-0.02 -82.66,-37.04 -82.66,-82.68l0.01 -426.22c-0.01,-45.66 37.01,-82.68 82.65,-82.68z"/>
  <path class="fil9" d="M11839.65 17637.55c-8.36,-0.02 -15.15,-6.81 -15.15,-15.18l0 -312.87c0,-0.21 -0.01,-0.42 -0.01,-0.63 0,-8.37 6.79,-15.16 15.16,-15.16 8.37,0 15.16,6.79 15.16,15.16 0,0.21 -0.01,0.42 -0.01,0.63l0 312.76c0,0.04 0,0.07 0,0.11 0,8.36 -6.77,15.15 -15.13,15.16l-0.02 0.02z"/>
  <path class="fil9" d="M11993.32 17481.1l-307.36 0c-8.11,-0.35 -14.52,-7.03 -14.52,-15.16 0,-8.12 6.41,-14.81 14.53,-15.15l307.35 0.02c0.23,-0.02 0.44,-0.03 0.65,-0.03 8.37,0 15.16,6.79 15.16,15.16 0,8.37 -6.79,15.16 -15.16,15.16 -0.21,0 -0.42,-0.01 -0.63,-0.01l-0.02 0.01z"/>
  <path class="fil9" d="M12654.25 17522.14l-104.37 0 -21.64 49.11 -28.87 -0.01 88.93 -196.43 27.77 0.01 89.24 196.43 -29.44 -0.01 -21.62 -49.1zm-9.81 -22.47l-42.33 -96.26 -42.33 96.26 84.66 0z"/>
  <path class="fil9" d="M12734.66 17374.82l82.82 0c2.51,-0.2 5.06,-0.3 7.57,-0.3 54.39,0 98.5,44.11 98.5,98.5 0,54.39 -44.11,98.5 -98.5,98.5 -2.51,0 -5.06,-0.1 -7.56,-0.29l-82.83 0.01 0 -196.42zm163.94 171.98c2.07,0.15 4.18,0.24 6.26,0.24 40.91,0 74.08,-33.17 74.08,-74.08 0,-40.91 -33.17,-74.08 -74.08,-74.08 -2.08,0 -4.19,0.09 -6.26,0.26l-53.05 0.02 0 147.64 53.05 0z"/>
  <path class="fil9" d="M12966.49 17374.82l82.81 0c2.51,-0.2 5.06,-0.3 7.57,-0.3 54.39,0 98.5,44.11 98.5,98.5 0,54.39 -44.11,98.5 -98.5,98.5 -2.51,0 -5.06,-0.1 -7.56,-0.29l-82.82 0.01 0 -196.42zm163.93 171.98c2.07,0.15 4.18,0.24 6.26,0.24 40.91,0 74.08,-33.17 74.08,-74.08 0,-40.91 -33.17,-74.08 -74.08,-74.08 -2.08,0 -4.19,0.09 -6.26,0.26l-53.04 0.02 0 147.64 53.04 0z"/>
  <polygon class="fil9" points="13313.2,17399.21 13245.84,17399.21 13245.84,17374.82 13408.34,17374.82 13408.34,17399.21 13340.98,17399.21 13340.98,17571.19 13313.2,17571.19 "/>
  <path class="fil9" d="M13420.2 17473c-0.03,-1.31 -0.07,-2.64 -0.07,-3.95 0,-57.69 46.79,-104.48 104.48,-104.48 57.69,0 104.48,46.79 104.48,104.48 0,57.59 -46.61,104.33 -104.2,104.48 -1.6,0.07 -3.23,0.12 -4.84,0.12 -55.14,0 -99.85,-44.71 -99.85,-99.85 0,-0.27 0,-0.54 0,-0.8zm285.43 100.55c0,-0.29 0,-0.57 0,-0.84 0,-42.15 -34.18,-76.33 -76.33,-76.33 -42.15,0 -76.33,34.18 -76.33,76.33 0,42.15 34.18,76.33 76.33,76.33 0.08,0 0.18,0 0.26,0 0.77,0.02 1.57,0.04 2.35,0.04 40.72,0 73.74,-33.02 73.74,-73.74 0,-0.6 -0.01,-1.22 -0.02,-1.81l0 0.02z"/>
  <path class="fil9" d="M13731.69 17473c0,-0.43 -0.01,-0.87 -0.01,-1.29 0,-54.88 44.5,-99.38 99.38,-99.38 1.58,0 3.18,0.04 4.74,0.11 1.26,-0.05 2.55,-0.07 3.82,-0.07 26.83,0 52.51,11.12 70.85,30.69l-18.28 17.67c-13.78,-14.85 -33.14,-23.3 -53.41,-23.3 -0.61,0 -1.26,0.02 -1.87,0.03 -0.46,-0.01 -0.94,-0.02 -1.41,-0.02 -41.7,0 -75.51,33.81 -75.51,75.51 0,41.7 33.81,75.51 75.51,75.51 0.47,0 0.95,-0.01 1.41,-0.01 0.51,0.01 1.03,0.02 1.54,0.02 20.42,0 39.93,-8.56 53.74,-23.59l18.28 17.7c-18.45,19.7 -44.27,30.91 -71.27,30.91 -1.23,0 -2.47,-0.04 -3.68,-0.07 -1.52,0.06 -3.06,0.11 -4.57,0.11 -54.82,0 -99.27,-44.45 -99.27,-99.27 0,-0.41 0.01,-0.87 0.01,-1.27l0 0.01z"/>
  <path class="fil9" d="M14071.15 17522.14l-104.4 0 -21.64 49.11 -28.87 -0.01 88.95 -196.43 27.78 0.01 89.24 196.43 -29.44 -0.01 -21.62 -49.1zm-9.84 -22.47l-42.33 -96.26 -42.33 96.26 84.66 0z"/>
  <path class="fil9" d="M14282.87 17571.24l-42.33 -60.33c-3.89,0.26 -8.12,0.56 -12.33,0.56l-48.63 0 0 59.8 -28.05 0 0 -196.43 76.73 0c51.09,0 82.02,25.82 82.02,68.45 0.05,0.94 0.08,1.93 0.08,2.89 0,27.03 -17.51,50.95 -43.27,59.12l46.57 65.96 -30.79 -0.02zm26.56 -255.93c0,-28.02 -18.81,-44.05 -54.72,-44.05l-47.62 0 0 88.42 47.63 0c35.9,0 54.72,-16.27 54.72,-44.37l-0.01 0z"/>
  <polygon class="fil9" points="14391.93,17399.21 14324.57,17399.21 14324.57,17374.82 14487.05,17374.82 14487.05,17399.21 14419.71,17399.21 14419.71,17571.19 14391.93,17571.19 "/>
  <path class="fil0" d="M9822.87 19764.82c-115.54,912.55 -2808.26,1152.5 -4246.22,613.83 -1734.61,-649.29 -1712.38,-4465.64 -1084.21,-5375.46 438.23,-634.87 1226.37,-845.37 1946.2,-0.53 159.82,191.65 298.64,401.14 412.79,622.75 418.23,790.92 648.73,2092.3 1246.93,2427.76l604.31 206.03c0,0 19.95,9.45 54.95,28.92 238.26,127.82 1166.39,680.8 1065.29,1476.82l-0.04 -0.12z"/>
  <path class="fil10" d="M8702.6 18259.05l-604.31 -206.03c-598.22,-335.49 -828.7,-1636.84 -1246.93,-2427.76 -114.1,-221.48 -252.92,-430.97 -412.65,-622.47 -461.01,25.56 -429.39,-21.72 -429.39,-21.72 0,0 -747.02,142.88 -871.41,758.56 -12.19,40.51 -18.41,82.84 -18.41,125.33 0,1.23 0,2.52 0,3.75 -86.57,-53.55 -334.25,-70.67 -345.02,-57.52 -15.64,19.13 222.25,83.34 344.81,195.58 0,0 -225.64,-30.11 -348.77,15.05 119.24,24.57 237.03,57.33 351.85,97.37 114.82,40.04 -391.58,149.75 -348.32,156.1 64.24,9.23 358.03,-22.38 358.03,-22.38 16.72,228.6 48.95,454.47 84.67,842.83 36.72,400.79 215.4,1152.02 452.78,1513.89 -107.65,75.38 -211.35,158.08 -309.48,245.07 -175.84,157.4 -104.11,204.81 20.88,152.74 124.99,-52.07 522.05,-179.65 522.05,-179.65 0,0 -279.06,230.98 -258.23,255.61 20.83,24.63 279.43,-150.28 407.22,-196.19l0.34 -0.19c193.6,58.55 430.45,70.86 655.48,55.8 41.59,131.68 112.58,313.06 304.67,312.21 156.47,-0.71 171.42,-179.76 326.31,-261.54 420.34,-221.85 1025.05,-517.1 1240.58,-527.66 130.49,-6.09 172.19,-87.74 178.28,-177.69 -35.03,-19.55 -54.98,-29 -54.98,-29l-0.05 -0.09z"/>
  <path class="fil4 str3" d="M6354.42 18487.28c-220.93,148.51 -675.83,273.24 -909.9,399.94 -234.07,126.7 -544.67,542.95 -638.84,791.95"/>
  <path class="fil4 str3" d="M5458.49 15201.79c-207.05,-160.85 -461.94,-248.31 -724.19,-248.31 -54.03,0 -108.07,3.75 -161.53,11.1"/>
  <path class="fil11" d="M7925.14 16094.37c-97.34,-12.73 -638.47,-760.47 -830.02,-988.3 -125.33,-149.04 -319.78,-168.91 -319.78,-168.91 -145.52,124.35 -174.25,381.13 -87.31,546.29 364.15,692.2 941.12,1096.96 1166.36,1194.17 -175.07,-234.45 70.75,-583.25 70.75,-583.25z"/>
  <path class="fil2" d="M7512.82 15622.46c0,80.01 -60.54,245.51 -101.04,333.38 -27.65,61.96 -64.64,119.5 -109.44,170.47 -46.5,52.17 -99.5,98.85 -157.14,138.36 -11.67,8.86 -156.63,-317.74 -182.72,-351.08 -1.67,-1.64 -2.78,-2.65 -3.36,-2.65 -19.96,-6.24 -38.51,-16.47 -54.42,-30.05 -33.87,-24.98 -67.2,-51.65 -100.54,-78.32 -29.54,-21.65 -54.53,-49.08 -73.31,-80.55 -13.52,-33.76 -20.49,-69.83 -20.49,-106.21 0,-13.14 0.94,-26.31 2.72,-39.31l-7.78 -680.96c161.79,2.18 314.67,75.46 417.7,200.22 25.92,32.18 50.56,66.15 72.68,101.05 98.85,148.99 218.25,277.26 317.1,425.56l0.04 0.09z"/>
  <g>
   <path class="fil12" d="M8023.81 14067.08l-37.12 497.55 37.12 -497.55zm0 0l0 0 0 0z"/>
  </g>
  <path class="fil13" d="M7663.76 14201.75l416.72 -46.78c23.29,-2.62 44.28,14.14 46.9,37.41l96.55 860.13c2.63,23.27 -14.12,44.26 -37.4,46.87l-416.73 46.8c-23.26,2.6 -44.25,-14.15 -46.87,-37.42l-96.58 -860.13c-2.6,-23.27 14.15,-44.26 37.43,-46.88z"/>
  <path class="fil11" d="M8249.42 14805.92c5.34,40.56 8.18,81.84 8.18,122.89 0,58.4 -5.67,117.03 -16.56,174.3 -0.61,0.98 -0.45,1.8 -0.79,2.3 -0.16,1.78 -0.5,3.56 -0.93,5.3 -9.7,29.09 -14.76,59.6 -14.79,90.29 13.23,532.69 -14.92,1133.63 -43.84,1292.62 -29.98,164.68 -159.68,274.24 -326.34,184.02 -133.91,-72.52 -172.85,-238.57 -172.85,-238.57 65.06,-361.39 328.08,-1341.07 328.08,-1349.38 -145.52,-187.25 -52.57,-368.25 47.15,-464.48 13.94,-15.05 33.55,-23.6 54.06,-23.6 6.63,0 13.24,0.9 19.63,2.66 6.39,1.76 94.51,54.32 119.01,201.64l-0.01 0.01z"/>
  <path class="fil14" d="M6672.02 17810.45c0,0 2189.72,-708.1 2832.13,-383.88 642.41,324.22 401.66,796.58 -113.77,1001.42 -482.68,191.74 -1628.51,254.29 -1628.51,254.29l-1089.85 -871.83z"/>
  <path class="fil15" d="M8332.1 18012.78c0,0 408.2,-372.35 857.25,-416.37 0,0 -492.84,-22.25 -979.17,351.16 -486.33,373.41 121.92,65.22 121.92,65.22l0 -0.01z"/>
  <path class="fil5" d="M7302.34 16126.22c-46.4,52.16 -99.5,98.83 -157.13,138.34 -11.67,8.86 -156.63,-317.74 -182.72,-351.08 1.11,-243.26 3.89,-474.87 3.89,-474.87 0,0 164.91,398.25 335.99,687.63l-0.03 -0.02z"/>
  <path class="fil2" d="M5737.49 18412.27c211.67,118 195,-405.02 233.49,-398.94 414.15,68.55 1450.68,-224.71 1579.06,-396.05 -90.94,-179.33 -551.42,-2217.98 -584.91,-2271.61 -134.17,-215 -123.06,-381.32 -191.32,-444.82 -197.25,-15.05 -227.54,-25.88 -290.8,-29.58 25.24,105.83 91.2,333.72 -75.54,448.6 -345.6,26.17 -556.52,-327.85 -556.52,-327.85 0,0 -239.55,100.36 -363.35,200.47 -39.69,32.23 -109.7,84.67 -144.2,160.07 -274.29,599.28 49.72,1867.46 236.54,2511.74 49.61,170.58 4.84,433.39 157.56,547.95l-0.01 0.02z"/>
  <path class="fil5" d="M5359.96 15765.86l148.17 843.76c0,0 277.81,-5.82 379.54,-46.28 0,0 612.56,583.83 817.72,555.63 205.16,-28.2 -477.52,-1003.33 -477.52,-1003.33l-867.91 -349.78z"/>
  <path class="fil11" d="M6782.73 16577.55c-68.26,-114.51 -398.44,-434.23 -777.69,-1010.52 -107.05,-162.64 -311.6,-185.76 -311.6,-185.76 -156.47,110.28 -120.36,459 -38.36,626.64 308.95,631.8 896.04,1080.27 981.1,1087.78 -152.43,-249.66 146.55,-518.13 146.55,-518.13l0 -0.01z"/>
  <path class="fil11" d="M7329.38 15560.15c0,0.45 -0.45,0.87 -0.85,1.32 -46.31,49.09 -81.18,107.95 -101.95,172.19 -135.18,474.95 -205.63,1032.19 -267.55,1155.94 0,0 -106.79,446.09 -483.26,94.4 -9.71,-79.38 373.54,-1012.77 490.8,-1299.24 16.7,-43.7 25.28,-90.17 25.28,-136.98 0,-5.86 -0.19,-11.82 -0.42,-17.63 -3.41,-169.33 106.44,-348.83 208.28,-414.66 51.96,-33.58 278.66,216.4 129.67,444.63l0 0.03z"/>
  <path class="fil2" d="M5447.74 15233.78c0,0 -212.62,151.26 -94.3,511.28 35.93,109.41 212.57,763.56 212.57,763.56 0,0 353.59,-5.69 497.73,-106.39 296.07,-206.82 312.21,-368.25 312.21,-368.25 0,0 -128.88,-155.31 -221.8,-287.05 -55.32,-78.45 79.56,-51.22 79.56,-51.22l-212.49 -480.32 -573.48 18.39z"/>
  <path class="fil16" d="M8201.16 18605.1l-978.67 133.54c0,0 -593.62,202.72 -969.91,121.1 -739.35,-160.34 -543.64,-943.72 -434.95,-1084.21 445.51,-575.79 1350.78,-573.3 1350.78,-573.3l1032.75 1402.87z"/>
  <path class="fil17" d="M9230.65 20241.29c0,0 -263.08,-285.12 -133.85,-455.8 129.23,-170.68 285.43,-90.91 401.13,10.9 115.7,101.81 610.98,495.25 290.49,752.77l-557.77 -307.87z"/>
  <g>
   <path class="fil11" d="M8885.98 19403.22c48.74,57.07 103.07,110.46 161.02,158.2 21.17,15.88 145.68,77.47 213.15,124.67 71.83,50.27 88.34,87.31 163.88,145.52 90.73,70.01 166.05,135.76 182.56,172.61 47.15,104.51 -209.5,278.71 -282.34,277.31 -54.16,-1.11 -226.09,-275.48 -264.77,-306.63 -45.3,-36.51 -89.27,-94.11 -153.91,-174.04 -119.83,-148.17 -309.56,-247.81 -309.56,-247.81l289.97 -149.83zm0 0l0 0 0 0z"/>
  </g>
  <path class="fil18" d="M9352.15 20219.91c0,0 213.28,-91.52 200,-281.04 0,0 212.75,180.45 283.1,331.79 70.35,151.34 -19.55,358.14 -256.51,357.77 -202.17,-0.34 -357.48,-397.91 -357.48,-397.91 0,0 46.38,27.6 130.89,-10.61z"/>
  <path class="fil11" d="M8345.59 18574.36l-412.75 -244.13c-74.01,34.35 -151.34,62.39 -230.36,83.3 -37.31,7.94 -93.95,14.39 -153.99,23.81 -33.01,-7.51 -66.84,-11.25 -100.61,-11.25 -35.06,0 -70.11,4.08 -104.22,12.06 -131.92,31.62 -101.76,54.21 -199.76,163.54 -98,109.33 -297.74,92.37 -369.36,186.53 -71.62,94.16 60.3,391.98 222.25,391.98 86.81,0 106.71,-103.66 154.52,-148.88 47.81,-45.22 432.51,-244.71 432.51,-244.71l0 -0.34c42.47,-18.71 90.28,-42.97 149.54,-72.39 185.37,-92 612.25,-139.51 612.25,-139.51l-0.02 -0.01z"/>
  <path class="fil19" d="M6780.79 18075.49c651.99,1194.25 2019.72,1701.27 2019.72,1701.27 0,0 -1265.48,-1464.55 -1806.95,-1880.82 -189.34,-145.57 -302.97,14.42 -212.78,179.55l0.01 0z"/>
  <path class="fil16" d="M8857.54 19839.78c63.5,33.42 289.82,-242.78 307.9,-309.4 0,0 -358.09,-464.45 -472.44,-599.81 -338.32,-400.53 -672.04,-933.26 -978.96,-1357.58 -149.89,-207.35 -367.77,-439.76 -659.58,-351.68 -239.29,72.23 -387.09,343.51 -370.76,561.71 16.33,218.2 152.85,392.01 292.36,549.46 -0.08,0.08 1051.98,1070.5 1881.48,1507.3z"/>
  <path class="fil11" d="M8200.97 14677.36l-86.17 -164.04c0,0 -104.51,-198.76 -141.55,-183.49 -21.91,9 -17.62,29.1 1.46,76.46 0,0 21.67,54.66 40.14,97.58 -39.82,-46.94 -128.64,-146.21 -154.33,-129.22 -19.74,13.07 -11.69,32.04 16.06,74.74 0,0 23.18,36.12 46.36,70.67 -43.37,-47.63 -99.7,-102.29 -119.3,-89.32 -19.6,12.97 -11.69,32.04 16.11,74.74 0,0 67.2,104.72 87.31,128.38 10.75,18.51 18.74,38.64 23.59,59.48 -21.93,-33.87 -47.3,-65.85 -75.24,-94.96 -21.72,-17.65 -48.79,-15.53 -48.74,10.58 0.05,26.11 70.91,113.24 82.52,149.89 11.61,36.65 63.21,229.31 63.21,229.31l10.72 -189.79 42.33 -93.5c6.35,26.33 10.58,46.14 10.58,46.14l35.67 -78.95c1.53,31.75 2.06,56.96 2.06,56.96l147.21 -51.66z"/>
  <path class="fil11" d="M7082.02 15240.26c0,0 105.7,-164.33 140.39,-219.9 34.69,-55.57 114.56,-125.25 135.41,-125.12 20.85,0.13 17.36,44.45 -10.42,85.65 -35.15,64.9 -67.13,132.57 -95.41,200.76l-169.97 58.61z"/>
  <g>
   <path class="fil17" d="M10468.87 19999.25c0,0 -329.04,-103.61 -422.33,-75.09 -65.34,24.19 -108.79,86.58 -108.79,156.3 0,44.4 17.75,87.02 49.25,118.3 98.45,106.23 457.33,174.04 603.7,183.96 229.26,15.53 402.85,-165.66 321.89,-256.41 -80.96,-90.75 -428.15,-124.35 -428.15,-124.35l-15.57 -2.71zm0 0l0 0 0 0z"/>
  </g>
  <path class="fil18" d="M10352.8 19872.7c-58.21,51.3 -99.32,255.4 -75.94,398.04 115.81,35.89 236.68,56.03 357.87,59.47 295.49,-14.45 361.05,-301.63 176.72,-374.52 -113.3,-44.51 -231.29,-77.78 -351.06,-98.63 -119.77,-20.85 -67.26,-19.95 -107.61,15.56l0.02 0.08z"/>
  <path class="fil20" d="M17752.54 13448.27c-0.01,-0.01 -0.01,0.02 -0.01,0.02 0,42.79 -34.71,77.5 -77.5,77.5 -42.79,0 -77.5,-34.71 -77.5,-77.5 0,-42.79 34.69,-77.49 77.47,-77.5 0.01,0.01 0.01,0.01 0.01,0.01 42.79,0 77.49,34.68 77.52,77.46l0.01 0.01z"/>
  <path class="fil20" d="M18053.76 13448.27c0,-0.01 0,0.02 0,0.02 0,42.79 -34.71,77.5 -77.5,77.5 -42.79,0 -77.5,-34.71 -77.5,-77.5 0,-42.79 34.69,-77.49 77.47,-77.5 0,0.01 0,0.01 0,0.01 42.79,0 77.49,34.68 77.52,77.46l0.01 0.01z"/>
  <path class="fil20" d="M18354.99 13448.27c0.01,-0.01 0.01,0.02 0.01,0.02 0,42.79 -34.71,77.5 -77.5,77.5 -42.79,0 -77.5,-34.71 -77.5,-77.5 0,-42.79 34.71,-77.5 77.5,-77.5 0,0 0.03,0 0.03,0 42.77,0.01 77.46,34.7 77.47,77.47l-0.01 0.01z"/>
  <path class="fil5" d="M16767.02 13698.46l1478.44 0c60.5,0 109.56,49.06 109.56,109.56l0 1457.46c0,60.48 -49.06,109.54 -109.56,109.54l-1478.44 0.02c-60.5,-0.02 -109.56,-49.08 -109.56,-109.58l-0.01 -1457.44c0.01,-60.5 49.07,-109.56 109.57,-109.56z"/>
  <path class="fil9" d="M16959.21 14978.72c0,0 -170.82,-19.02 -162.43,-69.48 8.39,-50.46 227.86,-200.69 367.93,-241.8 2.86,70.14 133.3,110.73 219.42,100.38 152.4,-18.23 268.61,-279.45 299.56,-360.26 45.38,-118.32 112.79,-264.58 229.18,-377.88 104.01,-101.15 119.06,-87.02 119.06,-87.02 90.76,66.66 144.42,172.73 144.42,285.38 0,24.52 -2.59,48.99 -7.61,72.95 -18.71,100.54 -70.19,247.07 -137.58,212.83 -22.34,-10.67 -45.55,-20 -69.06,-27.69l-125.15 97.18 -110.91 137.74 -135.94 254 -178.01 55.27 -452.88 -51.6z"/>
  <path class="fil21" d="M16796.78 14909.24c0,0 359.83,91.04 620.95,94.56 116.87,-3.78 147.77,-48.02 196.72,-132.29 38.18,-65.83 120.09,-221.59 207.46,-314.85 87.37,-93.26 266.17,-229.08 347.79,-261.06 0.03,4.15 0.12,8.55 0.12,12.78 0,56.09 -6.6,112.19 -19.55,166.69 -25.45,108.13 -46.59,218.2 -60.95,328.28 -12.86,135.49 -16.03,293.56 -16.03,293.56 0,0 22.12,-1.72 -51.22,-1.72 0,-100.12 -37.04,-520.51 -53.47,-538.67 -16.43,-18.16 -44.56,-35.37 -101.81,16.51 -57.25,51.88 -131.15,122.42 -195.53,295.14 -74.08,198.01 -158.75,234.29 -215.79,237.86 -138.4,8.65 -541.36,-40.35 -647.3,-101.63 -21.4,-69.72 -11.32,-95.3 -11.32,-95.3l-0.07 0.14z"/>
  <path class="fil2" d="M11606.45 10517.24l3653.92 0c134.3,0 243.21,108.91 243.21,243.21l0 3132.19c0,134.28 -108.91,243.19 -243.21,243.19l-3653.92 0.01c-134.3,-0.01 -243.21,-108.92 -243.21,-243.2l0.01 -3132.19c-0.01,-134.3 108.9,-243.21 243.2,-243.21z"/>
  <path class="fil4 str4" d="M11931.17 10858.87c-0.01,48.53 -39.38,87.89 -87.92,87.89 -48.55,0 -87.92,-39.37 -87.92,-87.92 0,-48.54 39.36,-87.91 87.9,-87.92 0,0 0.02,0 0.02,0 48.55,0 87.92,39.37 87.92,87.92 0,0 0,0.02 0,0.02l0 0.01z"/>
  <circle class="fil4 str4" cx="12184.94" cy="10858.87" r="87.92"/>
  <circle class="fil4 str4" cx="12526.59" cy="10858.87" r="87.92"/>
  <line class="fil4 str4" x1="11363.25" y1="11225.53" x2="15501.01" y2= "11225.53" />
  <g>
   <g>
    <polygon class="fil22" points="13958.78,11737.26 13992.78,11806.05 14068.79,11817.08 14013.78,11870.68 14026.74,11946.4 13958.77,11910.65 13890.77,11946.4 13903.76,11870.68 13848.75,11817.08 13924.76,11806.05 "/>
    <polygon class="fil22" points="14269.85,11737.26 14303.85,11806.05 14379.86,11817.08 14324.85,11870.68 14337.84,11946.4 14269.87,11910.65 14201.9,11946.4 14214.86,11870.68 14159.85,11817.08 14235.86,11806.05 "/>
    <polygon class="fil22" points="14580.92,11737.26 14614.92,11806.05 14690.93,11817.08 14635.92,11870.68 14648.91,11946.4 14580.91,11910.65 14512.91,11946.4 14525.9,11870.68 14470.89,11817.08 14546.9,11806.05 "/>
    <polygon class="fil22" points="14891.97,11737.26 14925.97,11806.05 15001.98,11817.08 14946.97,11870.68 14959.96,11946.4 14891.96,11910.65 14823.96,11946.4 14836.95,11870.68 14781.94,11817.08 14857.98,11806.26 "/>
    <polygon class="fil22" points="15203.04,11737.26 15237.04,11806.05 15313.05,11817.08 15258.04,11870.68 15271.03,11946.4 15203.03,11910.65 15135.03,11946.4 15148.02,11870.68 15093.01,11817.08 15169.02,11806.05 "/>
   </g>
   <g>
    <line class="fil23 str5" x1="14254.19" y1="12615.92" x2="13899.44" y2= "12615.92" />
    <line class="fil23 str5" x1="15298.84" y1="12615.92" x2="14407.91" y2= "12615.92" />
    <line class="fil23 str5" x1="15298.87" y1="12407.05" x2="13899.44" y2= "12407.05" />
    <line class="fil23 str5" x1="14493.29" y1="12198.16" x2="13899.44" y2= "12198.16" />
    <line class="fil23 str5" x1="15298.87" y1="12198.16" x2="14641.12" y2= "12198.16" />
    <line class="fil23 str5" x1="15050.48" y1="12824.78" x2="13899.44" y2= "12824.78" />
    <line class="fil23 str5" x1="15050.48" y1="13021.79" x2="13899.44" y2= "13021.79" />
   </g>
  </g>
  <path class="fil9" d="M15065.14 13674.67l-999.18 0c-123.45,0 -223.53,-100.08 -223.53,-223.52 0,0 0,-0.03 0,-0.03 0,-123.44 100.08,-223.55 223.52,-223.55l999.19 0.01c123.43,-0.01 223.51,100.1 223.51,223.54 0,0 0,0.03 0,0.03 0,123.44 -100.08,223.52 -223.52,223.52l0.01 0z"/>
  <path class="fil24" d="M14192.88 13471.59c-11.53,0 -21.93,-2.49 -31.19,-7.47 -9.26,-4.97 -16.51,-11.82 -21.75,-20.55 -5.24,-8.74 -7.86,-18.55 -7.86,-29.45 0,-10.9 2.62,-20.72 7.86,-29.45 5.24,-8.73 12.49,-15.58 21.75,-20.56 9.26,-4.97 19.66,-7.46 31.19,-7.46 11.54,0 21.91,2.49 31.12,7.46 9.21,4.98 16.45,11.83 21.75,20.56 5.29,8.73 7.93,18.55 7.93,29.45 0,10.9 -2.64,20.71 -7.93,29.45 -5.3,8.73 -12.54,15.58 -21.75,20.55 -9.21,4.98 -19.58,7.47 -31.12,7.47zm0 -21.91c6.56,0 12.49,-1.51 17.78,-4.53 5.29,-3.01 9.45,-7.22 12.46,-12.62 3.02,-5.4 4.53,-11.53 4.53,-18.41 0,-6.88 -1.51,-13.02 -4.53,-18.42 -3.01,-5.4 -7.17,-9.6 -12.46,-12.62 -5.29,-3.01 -11.22,-4.52 -17.78,-4.52 -6.56,0 -12.49,1.51 -17.78,4.52 -5.29,3.02 -9.44,7.22 -12.46,12.62 -3.02,5.4 -4.52,11.54 -4.52,18.42 0,6.88 1.5,13.01 4.52,18.41 3.02,5.4 7.17,9.61 12.46,12.62 5.29,3.02 11.22,4.53 17.78,4.53z"/>
  <path id="_1" class="fil24" d="M14359.74 13469.68l-21.43 -30.96 -1.27 0 -22.39 0 0 30.96 -25.71 0 0 -111.13 48.1 0c9.84,0 18.39,1.65 25.64,4.93 7.25,3.28 12.83,7.93 16.74,13.97 3.92,6.03 5.88,13.17 5.88,21.43 0,8.25 -1.99,15.37 -5.96,21.35 -3.96,5.98 -9.6,10.56 -16.9,13.73l24.92 35.72 -27.62 0zm-0.48 -70.8c0,-6.25 -2.01,-11.04 -6.03,-14.37 -4.02,-3.33 -9.9,-5 -17.62,-5l-20.96 0 0 38.73 20.96 0c7.72,0 13.6,-1.69 17.62,-5.08 4.02,-3.38 6.03,-8.14 6.03,-14.28z"/>
  <path id="_2" class="fil24" d="M14421.49 13358.55l50.48 0c12.06,0 22.73,2.31 31.99,6.91 9.26,4.6 16.45,11.09 21.59,19.45 5.13,8.36 7.7,18.09 7.7,29.21 0,11.11 -2.57,20.85 -7.7,29.21 -5.14,8.36 -12.33,14.84 -21.59,19.44 -9.26,4.61 -19.93,6.91 -31.99,6.91l-50.48 0 0 -111.13zm49.21 90.02c11.11,0 19.97,-3.1 26.59,-9.29 6.61,-6.19 9.92,-14.58 9.92,-25.16 0,-10.59 -3.31,-18.97 -9.92,-25.16 -6.62,-6.2 -15.48,-9.29 -26.59,-9.29l-23.5 0 0 68.9 23.5 0z"/>
  <polygon id="_3" class="fil24" points="14654.54,13449.04 14654.54,13469.68 14568.5,13469.68 14568.5,13358.55 14652.48,13358.55 14652.48,13379.19 14594.06,13379.19 14594.06,13403.32 14645.65,13403.32 14645.65,13423.32 14594.06,13423.32 14594.06,13449.04 "/>
  <path id="_4" class="fil24" d="M14761.69 13469.68l-21.43 -30.96 -1.27 0 -22.39 0 0 30.96 -25.71 0 0 -111.13 48.1 0c9.84,0 18.39,1.65 25.64,4.93 7.25,3.28 12.83,7.93 16.74,13.97 3.92,6.03 5.88,13.17 5.88,21.43 0,8.25 -1.99,15.37 -5.96,21.35 -3.96,5.98 -9.6,10.56 -16.9,13.73l24.92 35.72 -27.62 0zm-0.48 -70.8c0,-6.25 -2.01,-11.04 -6.03,-14.37 -4.02,-3.33 -9.9,-5 -17.62,-5l-20.96 0 0 38.73 20.96 0c7.72,0 13.6,-1.69 17.62,-5.08 4.02,-3.38 6.03,-8.14 6.03,-14.28z"/>
  <path class="fil4 str6" d="M11807.75 11737.39l1629.96 0c81.59,0.01 147.75,66.17 147.75,147.75l0 1641c0,81.57 -66.15,147.72 -147.72,147.72l-1630.02 -0.01c-81.57,0.01 -147.72,-66.14 -147.72,-147.71l0 -1641c0.01,-81.58 66.17,-147.74 147.75,-147.74l0 -0.01z"/>
  <path class="fil9" d="M13268.7 12886.56c-14.05,-91.57 -4.95,-570.84 -27.99,-757.45 -165.34,-62.6 -364.94,26.27 -419.89,93.32 -235.88,609.12 -673.23,753.45 -673.23,753.45l3.57 4.15 -2.25 0.26c-0.58,-1.4 -0.71,-3.04 -1.32,-4.42 -212.57,-8.86 -264,67.15 -264,67.15 0,0 68.79,43.92 133.99,79.38l-12.2 26.99 355.44 73.9c0,0 851.96,28.65 899.58,-30.69 47.62,-59.34 22.38,-214.5 8.31,-306.04l-0.01 0z"/>
  <path class="fil21" d="M12935.4 13238.29c-107.71,1.53 -222.67,1.38 -331.21,1.24 -101.28,0 -196.96,-0.32 -278.77,0.87 -162.63,-1.58 -323.83,-35.93 -473.28,-100.11 -149.45,-64.18 -27.2,-49.66 31.35,-97.34 19.69,7.06 253.05,112.1 463.47,109.09 82.92,-1.19 179.12,-1.06 280.96,-0.93 239.77,0.32 621.35,-4.76 656.93,-17.12 5.23,11.98 7.91,24.83 7.91,37.82 0,17.5 -4.89,34.68 -14.07,49.57 -85.49,10.32 -208.76,14.98 -343.3,16.91l0.01 0z"/>
  <path class="fil25" d="M12650.52 12549.45c-6.14,7.94 -12.36,15.66 -18.52,23.36l100.54 128.77c2.76,3.31 6.85,5.23 11.16,5.23 8.02,0 14.53,-6.51 14.53,-14.53 0,-3.06 -0.97,-6.05 -2.77,-8.53l-104.94 -134.3z"/>
  <path class="fil25" d="M12589.11 12623.8c-6.48,7.51 -13.02,14.92 -19.53,22.2l88.69 113.56c2.73,3.8 7.13,6.06 11.81,6.06 8.02,0 14.53,-6.51 14.53,-14.53 0,-3.45 -1.23,-6.8 -3.47,-9.43l-92.03 -117.86z"/>
  <path class="fil25" d="M12524.85 12694.47c-6.85,7.14 -13.6,14.18 -20.4,21.17l79.64 101.97c2.75,3.23 6.8,5.1 11.05,5.1 8.02,0 14.53,-6.51 14.53,-14.53 0,-3.03 -0.95,-6 -2.72,-8.46l-82.1 -105.25z"/>
  <path class="fil25" d="M12457.75 12761.78c-7.12,6.8 -14.18,13.52 -21.17,20.06l73.29 93.72c2.73,3.64 7.04,5.79 11.6,5.79 8.01,0 14.5,-6.49 14.5,-14.5 0,-3.33 -1.15,-6.56 -3.24,-9.14l-74.98 -95.93z"/>
  <path class="fil25" d="M12388.37 12825.68c-7.41,6.54 -14.74,12.94 -21.93,19.13l69.22 88.66c2.74,3.34 6.85,5.28 11.19,5.28 8.02,0 14.53,-6.51 14.53,-14.53 0,-3.12 -1.01,-6.16 -2.87,-8.67l-70.14 -89.87z"/>
  <path class="fil25" d="M12316.43 12886.5c-7.78,6.27 -15.37,12.36 -22.7,18.15l67.73 86.7c2.73,3.81 7.13,6.07 11.81,6.07 8.02,0 14.53,-6.51 14.53,-14.53 0,-3.45 -1.23,-6.8 -3.47,-9.43l-67.9 -86.96z"/>
  <path class="fil4 str7" d="M6105.37 10772.85l1481.85 0c119.75,0.01 216.86,97.12 216.86,216.86l-0.01 1300.72c0.01,119.74 -97.1,216.85 -216.84,216.85l-1481.86 0c-119.73,0 -216.84,-97.11 -216.84,-216.85l-0.02 -1300.72c0.02,-119.74 97.13,-216.85 216.87,-216.85z"/>
  <path class="fil5" d="M6947.64 11754.38l55.75 427.94 127.18 0c6.32,-28.6 84.06,-475.48 94.56,-514.3 10.5,-38.82 -277.5,86.36 -277.5,86.36l0.01 0z"/>
  <path class="fil5" d="M7212.97 11641.27l-257.7 161.05 -249.21 267.89c0,0 -379.76,2.12 -399.28,-8.47 -6.32,-3.44 -9.18,-3.49 -10.16,-1.98 -0.11,1.12 -0.17,2.24 -0.17,3.37 0,8.27 3.08,16.25 8.64,22.37 27.76,26.68 61.97,45.98 99.17,55.95 55.99,18.76 189.71,55.32 316.63,27.94 86.36,-18.52 121.97,-137.82 144.36,-169.57 31.49,-44.71 135.15,-173.38 281.36,-206.38 33.47,-18.96 59.52,-48.88 73.63,-84.68 16.8,-53.02 -7.25,-67.5 -7.25,-67.5l-0.02 0.01z"/>
  <path class="fil2" d="M7228.23 11632.8c-3.18,-38.1 -40.08,-134.75 -67.34,-201.93 -7.01,-17.25 -64.58,-224.53 -48.26,-273.9 -17.65,-2.65 -244.77,-22.57 -351.55,2.86 16.96,48.34 -48.34,548.11 -152.85,687.76 -55.93,72.84 -132.94,126.87 -220.45,154.68 -97.13,25.96 -91.18,57.49 -91.18,57.49 0,0 155.68,112.53 400.13,81.68 96.65,-20.35 104.85,-98.5 148.17,-159.52 67.77,-103.59 169.04,-181.1 286.77,-219.39 61.07,-25.45 101.65,-68.69 96.57,-129.73l-0.01 0z"/>
  <g>
   <path class="fil26" d="M8550.2 13949.2l-209.6 111.79 104.8 -272.52 104.8 160.73zm0 0l0 0 0 0z"/>
  </g>
  <circle class="fil5" transform="matrix(0.237432 -0.971404 0.971404 0.237432 8757.51 13600.9)" r="442.96"/>
  <path class="fil27" d="M8678.31 13813.02c96.55,1.64 194.31,2.96 283.1,-3.18 28.13,-1.93 52.41,-46.62 18.23,-60.7 15.22,-5.31 27.84,-16.26 35.25,-30.57 1.55,-3.69 2.35,-7.65 2.35,-11.65 0,-12.53 -7.73,-23.76 -19.43,-28.23 33.47,8.31 46.67,-44.98 20.58,-61.99 14.41,-11.31 24.4,-27.32 28.21,-45.24 0.53,-2.78 0.8,-5.64 0.8,-8.48 0,-15.56 -7.98,-30.05 -21.14,-38.35 -9.28,-4.09 -19.35,-6.21 -29.5,-6.21 -1.78,0 -3.58,0.07 -5.35,0.2l-120.44 -0.93c10.9,-62.84 14.18,-131.29 -17.78,-186.45 -9.58,-16.64 -35.45,-36.57 -55.93,-23.81 -19.26,12.01 -13.92,41.8 -12.94,60.62 0.06,2.58 0.14,5.22 0.14,7.84 0,77.24 -42.01,148.42 -109.62,185.75 -67.61,37.33 4.52,166.45 3.49,251.38l-0.02 0z"/>
  <polygon class="fil27" points="8497.41,13561.64 8643.33,13561.64 8643.33,13812.78 8497.41,13812.78 "/>
  <path class="fil9" d="M15364.91 15143.43l-3865.56 0c0,-0.01 -0.03,-0.01 -0.03,-0.01 -75.17,0 -136.11,-60.93 -136.13,-136.1 0.02,-75.19 60.97,-136.14 136.15,-136.16l3865.57 0.01c75.17,0.01 136.1,60.95 136.1,136.12 0,0 0,0.03 0,0.03 0,75.14 -60.95,136.09 -136.1,136.09l0 0.02z"/>
  <polyline class="fil4 str8" points="15359.35,15007.33 15020.89,16850.5 11845.9,16850.49 11507.44,15007.32 "/>
  <line class="fil4 str8" x1="13432.16" y1="15007.3" x2="13432.16" y2= "16850.47" />
  <line class="fil4 str8" x1="12966.7" y1="15007.3" x2="13016.44" y2= "16850.47" />
  <line class="fil4 str8" x1="12501.27" y1="15007.3" x2="12600.75" y2= "16850.47" />
  <line class="fil4 str8" x1="12035.84" y1="15007.3" x2="12185.09" y2= "16850.47" />
  <line class="fil4 str8" x1="13911.47" y1="15007.3" x2="13861.73" y2= "16850.47" />
  <line class="fil4 str8" x1="14376.9" y1="15007.3" x2="14277.42" y2= "16850.47" />
  <line class="fil4 str8" x1="14842.36" y1="15007.3" x2="14693.11" y2= "16850.47" />
  <line class="fil4 str8" x1="11613.91" y1="15557.08" x2="15254" y2= "15557.08" />
  <line class="fil4 str8" x1="11685.32" y1="15975.78" x2="15181.53" y2= "15975.78" />
  <line class="fil4 str8" x1="11762.21" y1="16394.48" x2="15104.67" y2= "16394.48" />
  <path class="fil4 str9" d="M11507.47 15007.33l0 492.92c-0.01,186.44 151.21,337.66 337.68,337.66l3176.49 0.02c-0.02,-0.02 0.02,-0.02 0.02,-0.02 186.45,0 337.66,-151.21 337.66,-337.66 0,0 0,-0.04 0,-0.04l0 -492.92"/>
  <path class="fil2" d="M11608.01 15007.33c-0.01,55.5 -45.03,100.52 -100.55,100.52 -55.52,0 -100.54,-45.02 -100.54,-100.54 0,-55.52 45.02,-100.54 100.54,-100.54 55.52,0 100.54,45.02 100.54,100.54l0.01 0.02z"/>
  <path class="fil2" d="M15459.9 15007.33c-0.01,55.5 -45.03,100.52 -100.55,100.52 -55.52,0 -100.54,-45.02 -100.54,-100.54 0,-55.52 45.02,-100.54 100.54,-100.54 55.52,0 100.54,45.02 100.54,100.54l0.01 0.02z"/>
  <polygon class="fil28" points="12206.26,17158.41 14848.52,17158.41 14848.52,19800.62 12206.26,19800.62 "/>
  <polygon class="fil29" points="14825.29,17158.41 15929.11,17158.41 15929.11,19800.62 14825.29,19800.62 "/>
  <polygon class="fil30" points="12429.38,19345.38 12935.93,19345.38 12935.93,19562.47 12429.38,19562.47 "/>
  <polygon class="fil30" points="12986.33,19345.38 13155.67,19345.38 13155.67,19562.47 12986.33,19562.47 "/>
  <polygon class="fil30" points="13392.94,19345.38 13562.28,19345.38 13562.28,19562.47 13392.94,19562.47 "/>
  <polygon class="fil30" points="13226.07,19345.38 13295,19345.38 13295,19562.47 13226.07,19562.47 "/>
  <polygon class="fil30" points="12139.53,17110.52 14825.29,17110.52 14825.29,17558.14 12139.53,17558.15 "/>
  <polygon class="fil31" points="14825.29,17110.52 16013.99,17110.52 16013.99,17558.14 14825.29,17558.15 "/>
  <polygon class="fil2" points="18507.53,19685.71 15635.05,19685.71 15850.21,16674.75 16097.65,16674.11 18309.41,16669.06 18480.28,19268.75 "/>
  <path class="fil5" d="M16978.79 17544.63c9.13,0 18.52,0 27.91,-0.48 179.92,-6.01 317.16,-63.98 407.86,-172.22 150.07,-179.23 116.1,-429.21 114.56,-439.76 -2.24,-15.69 -15.67,-27.34 -31.5,-27.34 -17.57,0 -31.82,14.25 -31.82,31.82 0,1.5 0.11,3.01 0.32,4.5 0.34,2.33 31.3,233.15 -100.54,390.31 -78.53,93.56 -200.05,143.75 -360.92,149.09 -155.81,4.63 -271.91,-35.8 -349.25,-121.84 -140.23,-156.1 -105.83,-412.75 -105.38,-415.4 0.2,-1.48 0.31,-2.99 0.31,-4.49 0,-17.57 -14.25,-31.82 -31.82,-31.82 -15.83,0 -29.26,11.65 -31.5,27.32 -1.64,11.69 -39.21,288.03 120.78,466.57 85.51,95.49 210.24,143.72 370.97,143.72l0.02 0.02z"/>
  <path class="fil6" d="M18507.53 19685.69l-2872.45 0 215.13 -3010.96 247.46 -0.61c15.88,123.4 338.67,2393.39 2382.6,2594.61l27.26 416.96z"/>
  <polygon class="fil24" points="17979.1,20302.62 14860.46,20302.62 15204.1,18063.64 15349.01,18063 17663.29,18057.95 17944.91,20060.24 "/>
  <path class="fil4 str10" d="M15789.59 18333.91c-0.9,4.92 -1.35,9.94 -1.35,14.96 0,46.4 37.63,84.03 84.03,84.03 46.4,0 84.03,-37.63 84.03,-84.03 0,-46.4 -37.63,-84.03 -84.03,-84.03 -0.08,0 -0.18,0 -0.27,0 -2,-0.17 -4.04,-0.25 -6.05,-0.25 -39.49,0 -72.54,30 -76.36,69.29l0 0.03z"/>
  <path class="fil4 str10" d="M16768.76 18331.47c-0.89,4.92 -1.34,9.94 -1.34,14.96 0,46.4 37.63,84.03 84.03,84.03 46.4,0 84.03,-37.63 84.03,-84.03 0,-46.4 -37.63,-84.03 -84.03,-84.03 -0.09,0 -0.21,0 -0.3,0 -1.99,-0.16 -4.02,-0.24 -6.02,-0.24 -39.49,0 -72.54,30 -76.36,69.29l-0.01 0.02z"/>
  <path class="fil4 str11" d="M16851.45 18331.42c0,0 80.27,568.54 -491.99,588.12 -572.26,19.58 -487.18,-585.81 -487.18,-585.81"/>
  <path class="fil32" d="M17979.1 20302.56l-3118.78 0 343.77 -2238.93 144.89 -0.61 0.66 0.61c0,0 -135.44,2196.57 2595.27,1996.63l34.19 242.3z"/>
  <polygon class="fil24" points="5898.2,21163.65 3642.86,21163.65 3891.38,19544.4 3996.18,19543.92 5669.83,19540.27 5873.56,20988.31 "/>
  <path class="fil4 str12" d="M4314.8 19739.95c-0.64,3.59 -0.97,7.26 -0.97,10.92 0,33.6 27.25,60.85 60.85,60.85 33.6,0 60.85,-27.25 60.85,-60.85 0,-33.6 -27.25,-60.85 -60.85,-60.85 -0.08,0 -0.17,0 -0.25,0 -1.43,-0.11 -2.88,-0.17 -4.32,-0.17 -28.56,0 -52.48,21.67 -55.29,50.09l-0.02 0.01z"/>
  <path class="fil4 str12" d="M5022.9 19738.29c-0.64,3.58 -0.97,7.25 -0.97,10.91 0,33.6 27.25,60.85 60.85,60.85 33.6,0 60.85,-27.25 60.85,-60.85 0,-33.6 -27.25,-60.85 -60.85,-60.85 -0.08,0 -0.17,0 -0.25,0 -1.43,-0.11 -2.88,-0.17 -4.32,-0.17 -28.56,0 -52.48,21.67 -55.29,50.09l-0.02 0.02z"/>
  <path class="fil4 str13" d="M5082.59 19738.15c0,0 58.05,411.16 -355.79,425.32 -413.84,14.16 -352.29,-423.65 -352.29,-423.65"/>
  <path class="fil32" d="M5898.2 21163.68l-2255.34 0 248.52 -1619.25 104.8 -0.48 0.45 0.48c0,0 -97.9,1588.51 1876.85,1443.94l24.72 175.31z"/>
  <g>
   <path class="fil0" d="M8086.75 8555.3l2779.71 0c73.83,0.01 133.7,59.88 133.7,133.7l0 697.36c0,73.82 -59.87,133.69 -133.69,133.69l-2779.72 0c-73.81,0 -133.68,-59.87 -133.68,-133.69l-0.01 -697.36c0.01,-73.82 59.88,-133.69 133.7,-133.69z"/>
   <path class="fil0" d="M8259.42 9373.21c0,0 -85.38,609.41 -85.46,572.11 -0.08,-37.3 431.27,-520.65 431.27,-520.65l-345.81 -51.46z"/>
   <g>
    <polygon class="fil22" points="8393.56,8962.1 8556.78,8988.27 8436.71,9102.04 8462.27,9265.37 8317.09,9186.31 8169.66,9261.08 8199.98,9098.57 8083.3,8981.47 8247.34,8960.12 8322.67,8812.96 "/>
    <polygon class="fil22" points="8972.1,8962.1 9135.32,8988.27 9015.25,9102.04 9040.81,9265.37 8895.63,9186.31 8748.2,9261.08 8778.55,9098.57 8661.9,8981.47 8825.94,8960.12 8901.27,8812.96 "/>
    <polygon class="fil22" points="9550.59,8962.1 9713.81,8988.27 9593.74,9102.04 9619.3,9265.37 9474.12,9186.31 9326.69,9261.08 9357.01,9098.57 9240.33,8981.47 9404.37,8960.12 9479.7,8812.96 "/>
   </g>
   <polygon class="fil9" points="10172.09,9101.83 10197.97,9265 10058.19,9189.38 10052.71,9186.39 9905.47,9261 9935.32,9098.33 9818.9,8981.44 9982.57,8960.06 10058.19,8812.82 10129.34,8962.07 10292.51,8988.53 "/>
   <polygon class="fil9" points="10707.61,8962.1 10870.83,8988.27 10750.76,9102.04 10776.32,9265.37 10631.14,9186.31 10483.69,9261.08 10514.04,9098.57 10397.36,8981.47 10561.4,8960.12 10636.73,8812.96 "/>
   <polygon class="fil22" points="10058.19,8812.69 10058.19,9189.27 10052.71,9186.28 9905.47,9260.89 9935.32,9098.22 9818.9,8981.33 9982.57,8959.95 "/>
  </g>
  <g>
   <circle class="fil0" cx="18507.5" cy="13043.06" r="151.05"/>
   <circle class="fil0" cx="18856.67" cy="15914.45" r="151.05"/>
   <path class="fil0" d="M7812.43 10280.33c0.01,50.64 -41.05,91.7 -91.69,91.7 -50.64,0 -91.7,-41.06 -91.7,-91.7 0,-50.64 41.06,-91.7 91.7,-91.7 50.64,0 91.7,41.06 91.7,91.7l-0.01 0z"/>
   <circle class="fil0" cx="4433.76" cy="9162.73" r="91.7"/>
   <path class="fil0" d="M7032.68 7407.06c0.01,50.65 -41.05,91.71 -91.69,91.71 -50.64,0 -91.7,-41.06 -91.7,-91.7 0,-50.64 41.06,-91.7 91.7,-91.7 50.64,0 91.7,41.06 91.7,91.7l-0.01 -0.01z"/>
   <circle class="fil0" cx="10104.76" cy="12688.15" r="137.55"/>
   <circle class="fil0" cx="4225.69" cy="14320.6" r="137.55"/>
   <circle class="fil0" cx="9477.9" cy="10188.6" r="137.55"/>
   <circle class="fil0" cx="18507.53" cy="9485.95" r="137.55"/>
   <path class="fil0" d="M11853.89 6868.03c-0.01,0.01 -0.01,0.03 -0.01,0.03 0,50.65 -41.08,91.73 -91.73,91.73 -50.65,0 -91.73,-41.08 -91.73,-91.73 0,-50.65 41.08,-91.73 91.73,-91.73 0,0 0.02,0 0.02,0 50.65,0.01 91.71,41.07 91.71,91.71l0.01 -0.01z"/>
   <path class="fil0" d="M17254.72 10142.91c0,50.64 -41.08,91.72 -91.73,91.72 -50.65,0 -91.73,-41.08 -91.73,-91.73 0,-50.65 41.08,-91.73 91.73,-91.73 0.01,0 0.03,0 0.03,0 50.64,0 91.7,41.06 91.7,91.7 0,0 0,0.02 0,0.02l0 0.02z"/>
   <path class="fil0" d="M17766.72 7672.1c-0.01,50.64 -41.07,91.7 -91.71,91.7 -50.64,0 -91.7,-41.06 -91.7,-91.7 0,-50.64 41.06,-91.7 91.7,-91.7 50.64,0 91.7,41.06 91.7,91.7l0.01 0z"/>
   <path class="fil0" d="M9047.19 16238.48c0.01,50.63 -41.05,91.69 -91.69,91.69 -50.64,0 -91.7,-41.06 -91.7,-91.7 0,-50.64 41.06,-91.7 91.7,-91.7 50.64,0 91.7,41.06 91.7,91.7l-0.01 0.01z"/>
  </g>
  <path class="fil4 str3" d="M5708.6 14644.03c-78.57,-26.23 -161.2,-39.69 -244.11,-39.69 -214.2,0 -418.89,89.12 -564.66,246.01 -349.75,370.68 -420.69,1870.26 125.07,3860.61 433.68,1581.97 3302,1267.91 3302,1267.91 0,0 995.28,-114.96 1337.84,-575.71"/>
  <g>
   <path class="fil33" d="M6763.91 14571.45l4.23 -127.69 -4.23 127.69zm0 0l0 0 0 0z"/>
  </g>
  <path class="fil34" d="M6601.12 14200.64l-634.02 -791.1c-586.03,-73.24 -686.25,501.57 -662.54,923.95 23.71,422.38 -123.27,520.33 -123.27,520.33 77.87,44.35 161.6,78.96 248.06,102.47 3.97,-4.82 8.12,-9.45 11.88,-14.47 14.66,-20.49 27.56,-42.46 38.34,-65.31 10.83,-23.11 20.06,-47.16 27.4,-71.6 -4.35,25.36 -10.62,50.65 -18.49,75.2 -8.18,24.8 -18.67,48.98 -31.13,71.93 -2.04,3.57 -4.47,6.93 -6.59,10.58 65.42,17.77 132.79,31.97 199.96,41.18 0.98,-3.1 2.25,-6.06 3.18,-9.13 6.69,-24.4 11.25,-49.44 13.48,-74.59 1.26,-14.94 1.91,-30.11 1.91,-45.16 0,-10.47 -0.33,-21.13 -0.92,-31.53 4.57,25.34 7.52,51.18 8.45,76.95 0.16,4.95 0.27,9.96 0.27,14.92 0,21.2 -1.63,42.45 -4.69,63.39 -0.45,2.65 -1.19,5.29 -1.67,7.94 73.13,9.1 147.05,13.84 220.76,13.84 49.57,0 99.14,-2.15 148.49,-6.25 220.29,-14.17 435.6,-75.66 630.28,-179.71 -5.95,-8.84 -11.51,-17.89 -16.59,-27.09 -10.49,-19.86 -19.28,-40.75 -26.03,-62.15 -6.56,-21.15 -11.68,-42.94 -15.15,-64.83 6.1,21.13 13.71,41.95 22.76,61.94 8.97,19.71 19.83,38.69 32.18,56.47 6.43,8.94 13.27,17.5 20.52,25.66 50.37,-27.86 97.89,-61.44 140.93,-99.71 -219.1,-125.02 -227.75,-524.11 -227.75,-524.11l-0.01 -0.01z"/>
  <path class="fil11" d="M6236.41 13528.83c196.16,52.23 308.48,221.99 358.27,525.67 49.79,303.68 58.05,623.91 -157.69,682.18 -215.74,58.27 -475.14,-182.3 -560.55,-377.38 -85.41,-195.08 -87.76,-949.64 359.97,-830.47z"/>
  <path class="fil35" d="M6180.61 14140.71c-11.43,-66.75 2.86,-95.09 31.75,-100.04 28.89,-4.95 61.33,15.45 72.71,82.15 11.38,66.7 -3.44,91.92 -32.28,96.86 -28.84,4.94 -60.8,-12.2 -72.18,-78.98l0 0.01z"/>
  <path class="fil35" d="M6519.31 14064.35c-8.97,-58.21 -0.4,-82.29 18.18,-85.91 18.58,-3.62 40.03,14.84 49,72.97 8.97,58.13 0,79.56 -18.52,83.13 -18.52,3.57 -39.63,-12.04 -48.66,-70.19z"/>
  <g>
   <path class="fil35" d="M6242.95 13912.06c-56.94,-22.17 -97.71,-4.29 -131.13,48.26l-1.77 -0.85c10.24,-63.5 86.89,-77.87 133.24,-48.07l-0.34 0.66zm0 0l0 0 0 0z"/>
   <path id="_1_0" class="fil4 str14" d="M6242.95 13912.06c-56.94,-22.17 -97.71,-4.29 -131.13,48.26l-1.77 -0.85c10.24,-63.5 86.89,-77.87 133.24,-48.07m-0.34 0.66l0 0 0 0z"/>
  </g>
  <g>
   <path class="fil35" d="M6442.42 13856.15c28.39,-35 69.22,-60.85 104.01,-24.98l-1.53 1.67c-36.51,-22.7 -73.47,-3.15 -101.6,23.26l-0.88 0.05zm0 0l0 0 0 0z"/>
   <path id="_1_1" class="fil4 str14" d="M6442.42 13856.15c28.39,-35 69.22,-60.85 104.01,-24.98l-1.53 1.67c-36.51,-22.7 -73.47,-3.15 -101.6,23.26m-0.88 0.05l0 0 0 0z"/>
  </g>
  <path class="fil35" d="M6559.23 14379.95c-13.23,50.46 -21.51,97.6 -91.6,97.47 -46.09,-1.72 -88.79,-33.73 -82.79,-50.64l2.65 -1.59c79.61,38.23 118.32,40.56 166.05,-46.09 0,0 4.95,-9.84 5.82,-8.78 1.14,1.48 -0.13,9.63 -0.13,9.63z"/>
  <line class="fil4 str15" x1="6075.02" y1="14194.68" x2="5843.06" y2= "14213.2" />
  <g>
   <path class="fil11" d="M5851.31 14162.27c0,0 -106.57,-75.67 -140.23,45.56 -33.66,121.23 114.96,265.85 210.77,207.99l-70.54 -253.55zm0 0l0 0 0 0z"/>
  </g>
  <path class="fil34" d="M6009.53 13719.6c0.02,2.13 0.07,4.36 0.07,6.55 0,91.41 -28.73,180.63 -82.08,254.81 -92.6,133.32 -63.5,298.74 -27.81,339.65 0,0 -115.44,-63.18 -132.05,-236.91 0,0 -75.06,-386.66 139.46,-510.96l17.12 -187.85c0,0 63.5,-113.96 294.51,-71.04 231.01,42.92 356.9,346.92 353.11,482.07 0,0 -77.31,-67.07 -224.05,-59.5 -146.74,7.57 -229.66,45.01 -338.27,-16.8l-0.01 -0.02z"/>
  <path class="fil4 str16" d="M6427.84 14031.33c0,0 52.23,173.14 89.59,209.63 37.36,36.49 -42.84,66.68 -42.84,66.68"/>
  <path class="fil4 str15" d="M6363.84 14118.75c0,0 53.34,-91.92 142.35,-45.38"/>
  <path class="fil36" d="M6247.55 14310.84c2.99,27.33 -41.01,54.53 -98.27,60.85 -57.26,6.32 -106.1,-10.85 -109.09,-38.18 -2.99,-27.33 41.06,-54.53 98.32,-60.85 57.26,-6.32 106.07,10.85 109.03,38.18l0.01 0z"/>
  <path class="fil36" d="M6558.49 14223.79c6.78,23.21 28.07,39.19 52.26,39.19 3.09,0 6.19,-0.27 9.23,-0.79 -2.36,-32.48 -5.56,-65.4 -9.6,-98.75 -0.45,0 -0.85,0 -1.24,0.13 -28.8,2.78 -50.79,27.01 -50.79,55.95 0,1.41 0.06,2.85 0.16,4.26l-0.02 0.01z"/>
  <path class="fil4 str15" d="M6072.9 14221.14c-7.94,-73.1 57.89,-140.23 147,-149.97 89.11,-9.74 167.85,41.72 175.79,114.83 7.94,73.11 -57.89,140.23 -147,149.97 -89.11,9.74 -167.85,-41.67 -175.79,-114.83z"/>
  <path class="fil4 str15" d="M6507.72 14119.6c0.73,-46.24 38.43,-83.35 84.67,-83.35 46.75,0 84.67,37.92 84.67,84.67 0,43.23 -32.58,79.52 -75.55,84.17 -1.28,0.06 -2.62,0.09 -3.92,0.09 -47.98,0 -87.53,-37.68 -89.85,-85.6l-0.02 0.02z"/>
  <path class="fil11" d="M5860.1 14335.36c0,0 86.57,401.53 46.75,560.47 -39.82,158.94 -228.68,236.41 -228.68,236.41 0,0 374.46,342.16 710.7,235.88 336.24,-106.28 176.82,-465.38 176.82,-465.38 0,0 -149.28,-32.01 -182.38,-81.07 -33.1,-49.06 -47.63,-253.76 -47.63,-253.76l-475.58 -232.55z"/>
 </g>
</svg>
