<?xml version="1.0" encoding="UTF-8"?>
<!DOCTYPE svg PUBLIC "-//W3C//DTD SVG 1.1//EN" "http://www.w3.org/Graphics/SVG/1.1/DTD/svg11.dtd">
<!-- Creator: CorelDRAW 2021 (64-Bit) -->
<svg xmlns="http://www.w3.org/2000/svg" xml:space="preserve" width="215.9mm" height="200mm" version="1.1" style="shape-rendering:geometricPrecision; text-rendering:geometricPrecision; image-rendering:optimizeQuality; fill-rule:evenodd; clip-rule:evenodd"
viewBox="0 0 21590 20000"
 xmlns:xlink="http://www.w3.org/1999/xlink"
 xmlns:xodm="http://www.corel.com/coreldraw/odm/2003">
 <defs>
  <style type="text/css">
   <![CDATA[
    .fil20 {fill:#00558D;fill-rule:nonzero}
    .fil17 {fill:#0074B0;fill-rule:nonzero}
    .fil21 {fill:#05466B;fill-rule:nonzero}
    .fil22 {fill:#085B7C;fill-rule:nonzero}
    .fil23 {fill:#0A4A5E;fill-rule:nonzero}
    .fil2 {fill:#161414;fill-rule:nonzero}
    .fil19 {fill:#1A1B00;fill-rule:nonzero}
    .fil4 {fill:#272525;fill-rule:nonzero}
    .fil16 {fill:#2B1B00;fill-rule:nonzero}
    .fil15 {fill:#39281C;fill-rule:nonzero}
    .fil3 {fill:#434244;fill-rule:nonzero}
    .fil8 {fill:#59595B;fill-rule:nonzero}
    .fil6 {fill:#6D6E70;fill-rule:nonzero}
    .fil5 {fill:#929496;fill-rule:nonzero}
    .fil1 {fill:#AA36CD;fill-rule:nonzero}
    .fil7 {fill:#BC4ED8;fill-rule:nonzero}
    .fil0 {fill:#C7E9FF;fill-rule:nonzero}
    .fil10 {fill:#D0D1D3;fill-rule:nonzero}
    .fil9 {fill:#E7CF00;fill-rule:nonzero}
    .fil13 {fill:#FF744E;fill-rule:nonzero}
    .fil12 {fill:#FFAE28;fill-rule:nonzero}
    .fil14 {fill:#FFB222;fill-rule:nonzero}
    .fil11 {fill:#FFE664;fill-rule:nonzero}
    .fil18 {fill:#A8FFFD;fill-rule:nonzero;fill-opacity:0.458824}
   ]]>
  </style>
 </defs>
 <g id="Capa_x0020_1">
  <metadata id="CorelCorpID_0Corel-Layer"/>
  <g id="_2868787004144">
   <path class="fil0" d="M5488.94 16699.34c-702.27,-1081.12 -1077.15,-2345.93 -1077.15,-3636 0,-4.07 0,-8.96 0,-13.04 0,-3668.13 2933.44,-6641.76 6552.01,-6641.76 3618.57,0 6552.12,2973.63 6552.12,6641.76 0.01,4.24 0.01,9.13 0.01,13.2 0,1290.07 -374.88,2554.06 -1077.37,3635.51l-10949.62 0.33z"/>
   <path class="fil0" d="M1875.58 16973.11l17838.81 0c198.98,-0.01 360.34,-161.37 360.34,-360.35 0,-0.01 0,-0.05 0,-0.05 0,-198.98 -161.36,-360.34 -360.34,-360.34 0,0 0,0 0,0l-17838.81 0.01c-198.99,-0.01 -360.32,161.36 -360.32,360.35 0,0 0,0.04 0,0.04 0,198.99 161.33,360.32 360.32,360.32l0 0.02z"/>
   <path class="fil0" d="M16767.44 16275.8c0,0 -1261.19,-1989.14 -735.09,-2897.19 529.17,-913.42 2086.42,43.21 1567.5,2897.19l-832.41 0z"/>
   <path class="fil0" d="M17487.56 14476.45c-4.15,-2.82 -9.04,-4.32 -14.05,-4.32 -8.32,0 -16.11,4.13 -20.77,11.02l-332.37 490.86c-110.7,-494.4 -277.55,-1068.04 -525.7,-1599.7 -3.96,-9.2 -13.03,-15.18 -23.05,-15.18 -13.85,0 -25.08,11.23 -25.08,25.08 0,3.91 0.92,7.78 2.68,11.27 139.3,304.12 258.04,619.36 352.87,939.72l-570.73 -258.34c-3.39,-1.48 -7.17,-2.36 -11,-2.36 -13.87,0 -25.11,11.24 -25.11,25.11 0,10.13 6.1,19.28 15.45,23.18l595.92 269.82c3.24,1.46 6.77,2.22 10.34,2.22 0.89,-0.06 1.78,-0.2 2.65,-0.39 64.85,221.62 118.48,437.59 162.64,639.37 -0.32,1.59 -0.48,3.23 -0.48,4.86 0,5.25 1.66,10.38 4.74,14.63 24.24,111.81 45.56,219.08 64.29,320.33l-546.13 -279.21c-3.53,-1.81 -7.46,-2.75 -11.43,-2.75 -13.87,0 -25.11,11.24 -25.11,25.11 0,9.43 5.28,18.07 13.68,22.36l580.18 296.6c86.47,483.76 111.92,816.66 112.45,823.81 0.94,13.11 11.85,23.28 25,23.3l1.82 0.01c13.14,-0.97 23.31,-11.91 23.31,-25.08 0,-0.59 -0.02,-1.18 -0.06,-1.76 -37.56,-407.71 -102.29,-815.21 -189.78,-1214.33l359.04 -530.3c3.23,-4.27 4.74,-9.18 4.74,-14.21 0,-8.3 -4.1,-16.06 -10.95,-20.75l0 0.02z"/>
   <path class="fil0" d="M18433.41 16275.8c0,0 1463.6,-2308.28 853.07,-3362.09 -614.1,-1059.97 -2421.18,50.27 -1819.04,3362.09l965.97 0z"/>
   <path class="fil0" d="M17806.35 14469.38c4.17,-2.82 9.07,-4.33 14.09,-4.33 8.33,0 16.13,4.14 20.8,11.04l332.32 490.86c110.75,-494.43 277.6,-1068.04 525.7,-1599.7 4.1,-8.84 12.98,-14.5 22.73,-14.5 13.85,0 25.08,11.23 25.08,25.08 0,3.65 -0.8,7.27 -2.34,10.58 -139.35,304.25 -258.01,620.09 -352.76,940.2l570.73 -258.34c2.9,-1.54 6.18,-2.2 9.5,-2.2 13.87,0 25.11,11.24 25.11,25.11 0,9.58 -5.45,18.33 -14.06,22.55l-595.92 269.8c-3.25,1.44 -6.79,2.21 -10.35,2.21 -0.88,-0.07 -1.77,-0.2 -2.64,-0.39 -64.85,221.62 -118.48,437.59 -162.64,639.31 0.32,1.63 0.49,3.29 0.49,4.94 0,5.23 -1.65,10.34 -4.7,14.59 -24.24,111.81 -45.56,219.02 -64.29,320.33l546.05 -279.19c3.45,-1.7 7.25,-2.59 11.1,-2.59 13.85,0 25.08,11.23 25.08,25.08 0,9.29 -5.14,17.83 -13.35,22.17l-580.2 296.68c-86.47,483.74 -111.97,816.66 -112.45,823.81 -0.98,13.1 -11.87,23.25 -25.01,23.31 -0.66,0 -1.27,0 -1.85,0 -13.09,-0.95 -23.24,-11.86 -23.24,-25 0,-0.61 0.02,-1.23 0.07,-1.84 37.6,-407.03 102.28,-815.5 189.73,-1214.39l-359.04 -530.3c-3.24,-4.2 -4.74,-9.1 -4.74,-14.12 0,-8.32 4.13,-16.1 11.01,-20.78l-0.01 0.02z"/>
   <path class="fil0" d="M4946.12 16261.32c0,0 1462.75,-2306.9 852.57,-3360.21 -613.83,-1059.37 -2419.8,50.27 -1817.98,3360.21l965.41 0z"/>
   <path class="fil0" d="M4110.96 14174.48c4.8,-3.23 10.45,-4.95 16.22,-4.95 9.69,0 18.75,4.83 24.15,12.87l385.47 569.3c128.43,-573.43 321.95,-1238.7 609.68,-1855.31 4.64,-10.6 15.11,-17.46 26.68,-17.46 16.07,0 29.1,13.03 29.1,29.1 0,4.5 -1.05,8.94 -3.05,12.96 -161.59,352.81 -299.25,718.24 -409.17,1089.61l661.93 -299.61c4.06,-1.73 8.73,-2.89 13.46,-2.89 16.07,0 29.1,13.03 29.1,29.1 0,12.05 -7.44,22.87 -18.69,27.17l-691.09 312.82c-3.76,1.72 -7.85,2.62 -11.98,2.65 -1.06,-0.08 -2.13,-0.23 -3.18,-0.44 -75.19,257.04 -137.42,507.52 -188.62,741.52 0.38,1.89 0.58,3.83 0.58,5.77 0,6.07 -1.92,11.99 -5.48,16.9 -28.1,129.65 -52.92,254 -74.56,371.48l633.28 -323.82c4.09,-2.1 8.63,-3.19 13.23,-3.19 16.07,0 29.11,13.04 29.11,29.11 0,10.94 -6.14,20.96 -15.88,25.93l-672.84 343.96c-100.28,560.92 -129.8,947.21 -130.44,955.44 -1.07,15.22 -13.75,27.03 -29.02,27.03 -0.02,0 -0.05,0 -0.07,0 -0.35,0.03 -0.71,0.04 -1.06,0.04 -0.35,0 -0.71,-0.01 -1.06,-0.03 -15.22,-1.09 -27.03,-13.76 -27.03,-29.03 0,-0.69 0.03,-1.37 0.07,-2.06 43.52,-471.22 118.64,-946.95 220.18,-1408.78l-416.4 -615.08c-3.83,-4.41 -5.58,-10.1 -5.58,-15.91 0,-9.73 4.87,-18.82 12.96,-24.21l0 0.01z"/>
   <path class="fil0" d="M3013.95 16261.32c0,0 -1697.46,-2677.08 -989.36,-3899.24 712.23,-1229.41 2808.05,58.21 2109.68,3899.24l-1120.32 0z"/>
   <path class="fil0" d="M3741.21 14166.3c-4.8,-3.24 -10.46,-4.97 -16.25,-4.97 -9.7,0 -18.77,4.84 -24.17,12.9l-385.42 569.17c-128.43,-573.43 -321.95,-1238.7 -609.73,-1855.31 -4.64,-10.61 -15.11,-17.47 -26.68,-17.47 -16.07,0 -29.1,13.03 -29.1,29.1 0,4.5 1.05,8.94 3.05,12.96 161.72,352.1 299.28,719.27 409.14,1090.4l-661.93 -299.61c-3.2,-1.63 -6.8,-2.31 -10.43,-2.31 -16.07,0 -29.1,13.03 -29.1,29.1 0,10.85 6.04,20.81 15.67,25.81l691.12 312.82c3.75,1.72 7.84,2.63 11.98,2.65 1.04,-0.09 2.09,-0.25 3.12,-0.45 75.25,257.02 137.42,507.5 188.65,741.52 -0.38,1.89 -0.58,3.82 -0.58,5.75 0,6.07 1.92,11.98 5.47,16.89 28.1,129.65 52.92,254 74.56,371.48l-633.28 -323.82c-4.09,-2.09 -8.63,-3.18 -13.23,-3.18 -16.07,0 -29.11,13.04 -29.11,29.11 0,10.94 6.14,20.96 15.88,25.93l672.89 343.96c100.25,560.92 129.8,947.21 130.41,955.46 1.13,15.2 13.79,26.96 29.03,26.96 0.03,0 0.05,0 0.08,0 0.34,0.02 0.7,0.03 1.05,0.03 0.35,0 0.71,-0.01 1.06,-0.03 15.2,-1.12 26.98,-13.79 26.98,-29.03 0,-0.69 -0.03,-1.38 -0.07,-2.06 -43.56,-471.62 -118.55,-946.55 -219.93,-1408.98l416.4 -615.08c3.54,-4.19 5.26,-9.84 5.26,-15.61 0,-9.66 -4.8,-18.69 -12.79,-24.1l0 0.01z"/>
  </g>
  <path class="fil1" d="M6671.18 13923.76c0,0 -592.67,-1705.08 -841.56,-1919.39 -248.89,-214.31 -733.03,-48.55 -1446,436.19 -915.86,622.64 -975.78,1080.45 -814.44,1075.37 161.34,-5.08 1926.38,-383.25 2518.3,466.46 591.92,849.71 948.66,636.67 948.66,636.67l-364.96 -695.3z"/>
  <ellipse class="fil2" transform="matrix(-0.0312363 -0.999512 0.999512 -0.0312363 4963.91 15071.9)" rx="1793.9" ry="1883.59"/>
  <path class="fil3" d="M3732.74 15130.6c19.79,633.76 575.31,1130.67 1240.9,1109.87 665.59,-20.8 1188.83,-551.42 1169.01,-1185.2 -19.82,-633.78 -575.31,-1130.67 -1240.9,-1109.87 -665.59,20.8 -1188.83,551.44 -1169.01,1185.2z"/>
  <path class="fil4" d="M4178.67 15136.85c12.33,394.23 357.88,703.37 771.84,690.56 413.96,-12.81 739.56,-343.03 727.23,-737.26 -12.33,-394.23 -357.9,-703.37 -771.87,-690.56 -413.97,12.81 -739.54,343.03 -727.21,737.26l0.01 0z"/>
  <path class="fil5" d="M5144.98 14459.38l482.76 -1081.25 268.68 119.67 -483.05 1081.91c44.43,35.24 70.34,88.93 70.34,145.65 0,26.05 -5.5,51.86 -16.08,75.64l-205.55 461.51c-29.88,67.15 -96.54,110.42 -170.04,110.42 -26.07,0 -51.91,-5.5 -75.7,-16.09l-186.24 -82.95c-67.17,-29.91 -110.42,-96.55 -110.42,-170.05 0,-26.09 5.5,-51.91 16.09,-75.73l205.55 -461.57c29.91,-67.02 96.49,-110.26 169.9,-110.26 11.31,0 22.66,1.04 33.77,3.09l-0.01 0.01z"/>
  <path class="fil6" d="M4901.38 15004.84c-8.83,19.82 -13.41,41.36 -13.41,63.08 0,85.66 69.47,155.13 155.13,155.13 85.66,0 155.13,-69.47 155.13,-155.13 0,-61.25 -36.06,-116.8 -92.01,-141.7 -19.84,-8.85 -41.39,-13.43 -63.13,-13.43 -61.26,0 -116.79,36.09 -141.69,92.05l-0.02 0z"/>
  <path class="fil2" d="M13485.39 13474.42c0,0 -1165.57,1021.48 -902.07,2036.89l-1794.48 56.17c0,0 -360.57,-413.65 -1441.11,-379.86 -1080.54,33.79 -1286.17,252.68 -1891.56,39.69 -605.39,-212.99 -802.59,-959.93 -802.59,-959.93l6831.81 -792.96z"/>
  <path class="fil7" d="M8063.97 7482.58c0,0 -1061.88,1250 -1560.51,1362.18 -498.63,112.18 -926.04,1265.05 -1055.69,2060.97 -129.65,795.92 743.48,2777.33 1164.35,3266.39 420.87,489.06 2016.84,883.31 3340.07,272.12 0,0 -1712.75,507.44 -2392.31,-842.65 -679.56,-1350.09 -969.62,-1978.34 -771.23,-3046.73 198.39,-1068.39 1649.25,-2852.21 1649.25,-2852.21l-373.93 -220.07z"/>
  <path class="fil4" d="M10488.85 13693.6c0,0 -1840.6,125.15 -2073.35,93.77 -232.75,-31.38 -507.68,-795.31 -417.86,-1010.71 89.82,-215.4 11.48,-251.35 -281.01,-1574.96 -292.49,-1323.61 807.43,-1923.52 796.1,-2748.2 -7.49,-550.33 -124.2,-678.55 -124.2,-678.55 0,0 -1514.26,1193.27 -1724.1,1895.16 -209.84,701.89 41.3,4412.01 628.02,4644.76 586.72,232.75 2659.75,129.3 2659.75,129.3l536.65 -750.57z"/>
  <path class="fil7" d="M7510.94 7401.75c-15.08,295.22 764.65,326.07 1000.13,382.48 285.75,68.34 934.35,-595.89 1046.88,-702.55 64.53,-60.85 31.17,-140.02 -9.23,-196.32l0 -0.37c-18.63,-25.91 -40.04,-49.95 -63.64,-71.42 -23.6,-21.47 -669.69,-230.19 -801.82,-219.42 -587.59,47.31 -781.31,314.11 -1044.07,583.06 -86.52,88.48 -124.75,162.67 -128.24,224.55l-0.01 -0.01z"/>
  <path class="fil2" d="M9270.5 7773.23c0,0 -335.25,-15.29 -393.33,-225.9 -58.08,-210.61 120.2,-480.17 378.86,-443.2 258.66,36.97 383.91,541.66 14.47,669.1z"/>
  <path class="fil1" d="M7510.94 7401.75c-15.08,295.22 764.65,326.07 1000.13,382.48 285.75,68.34 934.35,-595.89 1046.88,-702.55 64.53,-60.85 31.17,-140.02 -9.23,-196.32 -399.26,202.17 -1393.56,659.29 -1989.14,526.1 -17.12,-3.73 -33.05,-7.09 -48.63,-9.71l-0.01 0z"/>
  <path class="fil4" d="M9534.31 7562.2c0,0 211.67,283.1 166.13,371.45 -45.54,88.35 -196.88,192.27 -336.47,49.13 -139.59,-143.14 -196.61,-418.76 -196.61,-418.76 0,0 140.23,-149.25 366.95,-1.83l0 0.01z"/>
  <path class="fil2" d="M16503.7 12395.05c0,0 448.55,333.61 487.18,448.31 38.63,114.7 -181.13,372.61 -181.13,372.61 0,0 538.53,968.19 435.35,1029.41 -103.18,61.22 -886.35,-880.06 -1453.7,-1094.11 -567.35,-214.05 -5839.22,1293.02 -5839.22,1293.02l441.85 -911.94c0,0 4801.47,-941.92 6109.68,-1137.31l-0.01 0.01z"/>
  <path class="fil4" d="M10742.98 11628.79c0,0 19.9,636.72 -167.01,835.71 -186.91,198.99 -1020.84,1325.99 -1067.28,1694.39 -46.44,368.4 373.27,200.79 373.27,200.79 0,0 821.85,-894.82 877.91,-954.48 56.06,-59.66 1254.13,-1893.38 1254.13,-1893.38l-1271.02 116.97z"/>
  <path class="fil7" d="M10475.7 13643.03c29.55,10.5 60.45,16.98 91.74,19.12 333.82,28.18 6249.64,-1334.85 6249.64,-1334.85 48.18,-118.98 83.74,-243.65 105.21,-370.28 5.08,-29.09 7.68,-58.82 7.68,-88.43 0,-28.62 -2.48,-57.23 -7.25,-85.42 -41.04,-191.85 -971.92,-819.41 -971.92,-819.41l-4220.55 653.36c0,0 -671.33,387.93 -1036.61,1036.74 -326.76,580.36 -437.14,906.36 -217.94,989.14l0 0.03z"/>
  <ellipse class="fil2" transform="matrix(-0.031 -1 1 -0.031 15074.7 15132.7)" rx="1675.47" ry="1759.26"/>
  <path class="fil3" d="M14015.43 15224.08c17.59,563.72 511.73,1005.73 1103.68,987.24 591.95,-18.49 1057.49,-490.51 1039.81,-1054.26 -17.68,-563.75 -511.78,-1005.76 -1103.71,-987.24 -591.93,18.52 -1057.41,490.51 -1039.79,1054.26l0.01 0z"/>
  <ellipse class="fil4" transform="matrix(-0.0312189 -0.999513 0.999513 -0.0312189 15078.8 15208.8)" rx="635.29" ry="667.04"/>
  <path class="fil8" d="M16740.98 14266.82c0,0 161.1,557.72 -772.27,958.11 -933.37,400.39 -1793.16,475.11 -2011.47,386.11 -218.31,-89 -405.21,-705.72 -405.21,-705.72 0,0 233.26,-198.86 1610.7,-565.2 1408.99,-374.73 1595.07,-301.31 1595.07,-301.31l-16.82 228.01z"/>
  <path class="fil3" d="M16161.97 14320.82l-2147.12 552.03c0,0 1161.94,107.37 2147.12,-552.03z"/>
  <path class="fil3" d="M16297.57 14639.85l-2146.94 552.03c0,0 1161.86,107.39 2146.94,-552.03z"/>
  <path class="fil4" d="M10574.1 11634.05c7.94,250.85 4376.21,-156.1 5068.17,-448.1 412.35,-173.99 603.75,-643.12 665,-1005.05 41.38,-245.45 22.62,-441.46 -27.49,-463.47 -124.35,-54.08 -890.46,105.07 -890.46,105.07 0,0 -4289.98,674.9 -4495.88,816.5 -151.32,104.01 -257.02,456.88 -298.98,735.97 -13.39,81.39 -20.39,164.67 -20.39,247.39 0,3.87 0,7.74 0,11.61l0.03 0.08z"/>
  <path class="fil2" d="M10574.1 11633.95c7.94,250.85 4376.21,-156.1 5068.17,-448.1 412.35,-173.99 579.83,-520.83 641.11,-882.73 -177.43,154.65 -896.94,340.47 -2114.47,651.8 -2295.02,586.9 -3092.71,157.69 -3574.52,419.97 -13.5,81.49 -20.32,164.22 -20.32,246.94 0,3.87 0,8.29 0,12.16l0.03 -0.04z"/>
  <path class="fil1" d="M10475.7 13643.03c29.55,10.5 60.45,16.98 91.73,19.12 333.82,28.18 6249.64,-1334.85 6249.64,-1334.85 48.19,-118.98 83.75,-243.66 105.21,-370.29 -133.48,1.08 -2482.27,30.85 -4273.02,461.88 -1843.75,443.92 -2154.69,1148.95 -2154.69,1148.95 -7.67,26.88 -13.92,51.78 -18.79,75.14l-0.08 0.05z"/>
  <path class="fil9" d="M6401.49 12382.45c0,0 -59.11,-1479.02 -179.31,-1616.79 -120.2,-137.77 -291.47,150.81 -295.88,833.28 -4.41,682.47 162.8,1089.4 280.19,1137.23 117.39,47.83 227.22,-148.72 195,-353.72z"/>
  <path class="fil1" d="M6686.55 9141.63c0,0 -646.01,754.06 -853.02,1958.08 0,0 -233.94,-1306.06 853.02,-1958.08z"/>
  <path class="fil4" d="M15371.1 13042.09c0,0 672.04,82.02 984.86,613.01 0,0 -1137.21,-131.82 -1999.06,307.15 -861.85,438.97 -1060.05,1101.86 -1060.05,1101.86l-797.53 24.92c0,0 -70.78,-1027.91 445.37,-1404.59 516.15,-376.68 2426.41,-642.36 2426.41,-642.36l0 0.01z"/>
  <path class="fil5" d="M13753.78 15262.23c0,0 -630.71,212.86 -990.68,127.58 -359.97,-85.28 -435.42,-334.09 -841.24,-340.73 -405.82,-6.64 -907.52,9.08 -907.52,9.08l-17.2 -240.9c0,0 945.17,-39.21 1244.26,-48.52 299.09,-9.31 482.12,284.29 636.48,279.45 154.36,-4.84 704.16,-128.22 704.16,-128.22l171.74 342.26z"/>
  <path class="fil8" d="M12435.6 13565.17c0,0 52.18,1050.98 -1027.17,1123.34l-1079.34 72.36c0,0 1775.46,-45.83 2106.51,-1195.71l0 0.01z"/>
  <path class="fil8" d="M12043.65 13693.31l-1286.7 233.34c0,0 989.75,152.59 1286.7,-233.34z"/>
  <path class="fil8" d="M11775.65 14078.3l-1286.77 233.36c0,0 989.81,152.56 1286.77,-233.36z"/>
  <path class="fil1" d="M5595.96 12562.11c0,0 -1398.51,159.6 -2067.4,1004.6 0,0 578.01,-867.83 1328.95,-1148.9 750.94,-281.07 738.45,144.3 738.45,144.3z"/>
  <polygon class="fil5" points="15136.15,10841.49 15648.49,9128.21 15856.8,9184.57 15406.85,10877.9 "/>
  <polygon class="fil5" points="15648.36,9128.21 18519.09,9038.49 18473.4,9300.43 15578.49,9386.26 "/>
  <polygon class="fil5" points="16337.2,11246.94 16839.59,9315.48 17162.57,9305.37 16574.45,11427.09 "/>
  <path class="fil10" d="M16456.24 10350.11c0.31,-3.23 0.47,-6.54 0.47,-9.8 0,-56.35 -45.7,-102.05 -102.05,-102.05 -19.36,0 -38.34,5.52 -54.68,15.88 -177.27,113.77 -572.8,298.48 -1357.71,393.46 -1183.45,143.22 -1393.8,207.75 -1541.97,415.18 -148.17,207.43 -202.88,614.71 -202.88,614.71l356.66 -20.8c0,0 -78.4,-345.2 215.87,-508.9 294.27,-163.7 1778.77,-248.73 2017.92,-323.88 239.15,-75.15 553.53,-210.42 626.8,-338.3 23.1,-41.73 37.28,-87.94 41.56,-135.49l0.01 -0.01z"/>
  <path class="fil9" d="M16515.61 11626.64c0,0 -198.2,-336.55 -380.81,-369.09 -182.61,-32.54 -181.21,183.59 -140.23,271.2 40.98,87.61 515.57,314.11 569.62,313.77 54.05,-0.34 -48.58,-215.87 -48.58,-215.87l0 -0.01z"/>
  <path class="fil7" d="M15030.74 5719c31.25,621.24 98.72,1438.01 186.43,2075.92 25.53,182.25 52.18,349.91 80.3,494.48 59.58,306.92 124.99,508 192.75,519.62 297.47,52.36 3080.76,-20.4 3214.85,-156.26 29.79,-30.19 68.42,-195.42 108.48,-441.85 12.86,-79.14 26.06,-167.16 39.21,-261.3 87.84,-631.38 172.11,-1556.2 178.73,-2214.56 3.18,-318.21 -11.51,-574.73 -52.92,-705.38 -179.65,-566.34 -468.13,-784.15 -894,-821.9 -2121.4,-187.85 -2960.24,347.16 -3053.48,591 -27.07,71.15 -24.63,436.35 -0.34,920.25l-0.01 -0.02z"/>
  <path class="fil1" d="M18764.04 5287.7l-3610.35 -367.96c0,0 2077.98,-446.14 3610.35,367.96z"/>
  <path class="fil1" d="M15297.49 8289.4c59.58,306.92 124.99,508 192.75,519.62 297.47,52.39 3080.76,-20.4 3214.85,-156.26 29.79,-30.19 68.42,-195.42 108.48,-441.85 -141.71,87.71 -419.23,175.9 -961.42,204.18 -1188.59,61.81 -1822.98,174.23 -2296.9,1.85 -90.4,-32.27 -177.22,-75.31 -257.68,-127.58l-0.08 0.04z"/>
  <path class="fil11" d="M15030.74 5719c31.25,621.24 98.72,1438.01 186.43,2075.92l3635.67 154.73c87.84,-631.38 172.11,-1556.2 178.73,-2214.56l-4000.83 -16.09z"/>
  <path class="fil1" d="M16156.12 6626.79l90.41 -591.61c-28.59,-4.06 -57.64,-6.45 -86.45,-6.78 -349.54,-2.3 -634.68,263.74 -636.88,594.2 -2.2,330.46 279.43,600.29 628.94,602.59 349.51,2.3 634.68,-263.68 636.88,-594.2 0.04,-1.29 0.04,-2.68 0.04,-3.93 0,-38.85 -4.03,-77.77 -11.88,-115.79l-621.06 115.52z"/>
  <path class="fil1" d="M16373.37 5995.31l-120.57 505.54 489.77 -102.29c0,0 -26.72,-303.16 -369.2,-403.25z"/>
  <path class="fil11" d="M16076.48 6629.14l-366.21 -304.51c0,0 151.24,-249.32 447.49,-235.85l-81.28 540.36z"/>
  <path class="fil11" d="M15666.38 6436.55l406.82 252.99 -384.33 256.35c0,0 -136.66,-213.78 -22.49,-509.35l0 0.01z"/>
  <path class="fil11" d="M16210.31 6665.84l80.14 469.5c0,0 -277.05,91.02 -493.29,-111.89l413.15 -357.61z"/>
  <path class="fil11" d="M16492.25 7070.18l-230.45 -420 460.67 -34.9c0,0 14.26,253.31 -230.21,454.9l-0.01 0z"/>
  <path class="fil12" d="M16596.39 6758.23c-1.25,35.1 -30.09,62.93 -65.21,62.93 -36.03,0 -65.25,-29.22 -65.25,-65.25 0,-36.03 29.22,-65.25 65.25,-65.25 0.14,0 0.3,0 0.44,0 35.97,0.73 64.78,30.13 64.78,66.13 0,0.48 -0.01,0.98 -0.02,1.45l0.01 -0.01z"/>
  <path class="fil12" d="M16172.97 6851.29c-0.88,25.08 -21.47,44.95 -46.56,44.95 -25.73,0 -46.59,-20.86 -46.59,-46.59 0,-25.73 20.86,-46.59 46.59,-46.59 0.1,0 0.21,0 0.31,0 25.69,0.53 46.26,21.51 46.26,47.22 0,0.33 -0.01,0.69 -0.01,1.01z"/>
  <path class="fil12" d="M16037.67 7009.88c-1.08,30.23 -25.92,54.19 -56.17,54.19 -31.03,0 -56.2,-25.17 -56.2,-56.2 0,-31.03 25.17,-56.2 56.2,-56.2 0.12,0 0.26,0 0.38,0 30.99,0.65 55.79,25.97 55.79,56.96 0,0.42 -0.01,0.85 -0.01,1.26l0.01 -0.01z"/>
  <path class="fil12" d="M16071.59 6212.24c-1.08,30.23 -25.92,54.19 -56.17,54.19 -31.03,0 -56.2,-25.17 -56.2,-56.2 0,-31.03 25.17,-56.2 56.2,-56.2 0.12,0 0.26,0 0.38,0 30.99,0.65 55.79,25.97 55.79,56.96 0,0.42 -0.01,0.85 -0.01,1.26l0.01 -0.01z"/>
  <ellipse class="fil12" transform="matrix(0.00638786 -0.99998 -0.99998 -0.00638786 15972.3 6434.1)" rx="44.39" ry="43.12"/>
  <path class="fil12" d="M15924.69 6689.76c-1.07,30.77 -26.34,55.17 -57.12,55.17 -31.56,0 -57.15,-25.59 -57.15,-57.15 0,-31.56 25.59,-57.15 57.15,-57.15 0.13,0 0.29,0 0.42,0 31.51,0.71 56.71,26.48 56.71,58.01 0,0.37 -0.01,0.76 -0.01,1.13l0 -0.01z"/>
  <path class="fil12" d="M15764.83 6605.3c-0.89,24.2 -20.76,43.35 -44.96,43.35 -24.84,0 -44.98,-20.14 -44.98,-44.98 0,-24.84 20.14,-44.98 44.98,-44.98 0.08,0 0.16,0 0.24,0 24.85,0.53 44.72,20.82 44.72,45.68 0,0.31 -0.01,0.64 -0.01,0.94l0.01 -0.01z"/>
  <path class="fil12" d="M16479.1 6188.06c-0.89,24.19 -20.76,43.34 -44.96,43.34 -24.84,0 -44.98,-20.14 -44.98,-44.98 0,-24.84 20.14,-44.98 44.98,-44.98 0.09,0 0.19,0 0.29,0 24.82,0.53 44.67,20.81 44.67,45.64 0,0.33 -0.01,0.67 -0.01,0.99l0.01 -0.01z"/>
  <path class="fil12" d="M16441.53 6364.27c-0.88,24.19 -20.75,43.34 -44.95,43.34 -24.84,0 -44.98,-20.14 -44.98,-44.98 0,-24.84 20.14,-44.98 44.98,-44.98 0.09,0 0.19,0 0.29,0 24.82,0.52 44.67,20.8 44.67,45.63 0,0.33 -0.01,0.67 -0.01,0.99z"/>
  <path class="fil12" d="M16581.86 6315.35c-0.88,24.19 -20.75,43.34 -44.95,43.34 -24.84,0 -44.98,-20.14 -44.98,-44.98 0,-24.84 20.14,-44.98 44.98,-44.98 0.09,0 0.19,0 0.29,0 24.82,0.52 44.67,20.8 44.67,45.63 0,0.33 -0.01,0.67 -0.01,0.99z"/>
  <path class="fil1" d="M17296.44 6714.5l-62.43 -1.01 68.22 -302.01 123.18 1.92c21.94,0.37 39.21,3.25 51.88,8.56 12.66,5.37 22.62,14.12 29.87,26.17 7.25,11.98 10.75,26.32 10.49,42.83 -0.24,15.31 -3.45,30.11 -9.62,44.52 -6.1,14.36 -13.59,25.81 -22.33,34.35 -8.74,8.55 -18.09,14.97 -28.08,19.28 -10.05,4.37 -23.4,7.53 -40.27,9.67 -9.82,1.2 -28.18,1.56 -55.05,1.17l-39.86 -0.63 -26 115.18zm37.14 -165.28l19.19 0.35c32.95,0.51 54.98,-1.24 66.01,-5.18 11.1,-3.94 19.9,-10.45 26.38,-19.44 6.49,-8.98 9.81,-18.91 10.02,-29.84 0.05,-7.27 -1.45,-13.28 -4.6,-18.03 -3.14,-4.74 -7.63,-8.23 -13.48,-10.46 -5.83,-2.24 -18.88,-3.52 -39.12,-3.81l-44.67 -0.66 -19.73 87.07z"/>
  <polygon id="_1" class="fil1" points="17513.9,6715.45 17582.13,6413.44 17644.35,6414.38 17576.34,6716.46 "/>
  <path id="_2" class="fil1" d="M17627.35 6716.17l10.7 -47.55 177.68 -201.89 -141.18 -2.19 11.37 -50.51 218.42 3.43 -9.78 47.42 -179.59 203.09c18.77,-0.16 29.56,-0.16 32.46,-0.14 13.26,0.24 31.47,0.36 54.75,0.46l71.53 1.14 -11.35 50.44 -235.01 -3.7z"/>
  <path id="_3" class="fil1" d="M17885.93 6717.98l10.71 -47.55 177.67 -201.89 -141.17 -2.19 11.36 -50.51 218.42 3.44 -9.78 47.41 -179.59 203.09c18.77,-0.16 29.56,-0.16 32.46,-0.14 13.26,0.24 31.47,0.36 54.75,0.46l71.54 1.14 -11.36 50.44 -235.01 -3.7z"/>
  <path id="_4" class="fil1" d="M18350.86 6656.05l-120.08 -1.83 -37.44 66.34 -64.06 -1.01 176.1 -300.27 69.21 1.06 44.44 303.78 -59.12 -0.91 -9.05 -67.16zm-6.85 -50.5l-15.65 -122.26 -75.08 120.77 90.73 1.49z"/>
  <path class="fil1" d="M17212.14 7105.79l38.38 -169.87 45.92 0.71c12.77,0.21 20.94,0.55 24.51,0.97 7.02,0.8 13.32,2.35 18.83,4.61 5.49,2.26 10.47,5.4 14.97,9.36 4.45,4 8.31,8.75 11.53,14.33 3.17,5.53 5.63,11.9 7.29,19.1 1.69,7.19 2.43,15.06 2.33,23.59 -0.29,18.37 -4.05,34.62 -11.3,48.74 -7.24,14.12 -16.24,25.25 -26.98,33.46 -8.26,6.37 -18.81,11.03 -31.73,13.91 -7.31,1.62 -18.55,2.29 -33.67,2.03l-60.08 -0.94zm41.23 -26.78l17.78 0.28c12.89,0.22 22.22,-0.43 27.99,-1.94 5.8,-1.51 11.14,-4.41 16.01,-8.66 7.03,-6.18 12.96,-14.44 17.84,-24.84 4.92,-10.37 7.46,-22.65 7.67,-36.86 0.21,-12.1 -1.63,-21.2 -5.43,-27.34 -3.81,-6.15 -8.58,-10.3 -14.29,-12.41 -4,-1.46 -11.17,-2.26 -21.49,-2.41l-20.32 -0.3 -25.76 114.48z"/>
  <polygon id="_1_0" class="fil1" points="17383.5,7106.99 17421.77,6937.12 17548.16,6939.11 17541.78,6967.48 17450.5,6966.05 17441.77,7004.65 17530,7006.02 17523.65,7034.43 17435.38,7033.01 17423.95,7079.13 17523.12,7080.7 17516.65,7109.07 "/>
  <polygon id="_2_1" class="fil1" points="17543.29,7108.11 17581.62,6938.23 17616.63,6938.79 17584.76,7080.3 17671.51,7081.66 17665.12,7110.03 "/>
  <polygon id="_3_2" class="fil1" points="17686.29,7109.11 17724.66,6939.24 17759.66,6939.75 17721.4,7109.68 "/>
  <polygon id="_4_3" class="fil1" points="17839.19,7110.93 17801.73,7110.36 17773.84,6939.42 17808.83,6939.98 17828.45,7069.23 17901.03,6941.42 17935.78,6941.94 "/>
  <polygon id="_5" class="fil1" points="17912.77,7110.7 17951.03,6940.82 18077.43,6942.82 18071.04,6971.18 17979.77,6969.75 17971.04,7008.35 18059.26,7009.72 18052.91,7038.14 17964.65,7036.72 17953.22,7082.84 18052.39,7084.4 18045.92,7112.78 "/>
  <path id="_6" class="fil1" d="M18107.4 7112.38l-35.08 -0.57 38.34 -169.87 75.71 1.2c13.02,0.21 23.13,1.71 30.33,4.5 7.21,2.79 12.97,7.75 17.33,14.96 4.35,7.21 6.43,15.89 6.28,26.05 -0.22,14.48 -4.75,26.35 -13.59,35.66 -8.83,9.26 -22.05,14.89 -39.68,16.87 4.42,4.12 8.58,9.47 12.42,16.11 7.61,13.48 16.05,32.43 25.24,56.94l-37.65 -0.62c-2.87,-9.62 -8.56,-24.74 -17.08,-45.24 -4.64,-11.12 -9.63,-18.57 -15,-22.46 -3.27,-2.32 -9.1,-3.51 -17.39,-3.65l-14.29 -0.22 -15.89 70.34zm21.63 -95.82l18.6 0.29c18.85,0.29 31.37,-0.65 37.58,-2.8 6.16,-2.14 11.06,-5.59 14.63,-10.33 3.56,-4.78 5.39,-9.77 5.46,-15.05 0.09,-6.19 -2.34,-10.89 -7.32,-14.06 -3.09,-1.92 -9.78,-2.96 -20.1,-3.11l-38.57 -0.63 -10.28 45.69z"/>
  <path id="_7" class="fil1" d="M18324.96 7114.33l-35 -0.55 14.9 -66.18 -45.34 -104.78 37.3 0.57 20.42 48.49c4.84,11.62 8.11,20.02 9.71,25.15 2.97,-4.98 6.38,-10.27 10.27,-15.88l16.51 -22.31 24.61 -34.16 40.67 0.65 -79.8 106.08 -14.25 62.92z"/>
  <path class="fil13" d="M11496.65 4670.91c95.01,132.16 119.06,408.7 236.7,584.97 4.06,6.24 8.63,12.15 13.63,17.62 130.12,145.18 476.89,-32.91 572.82,-49.53 99.51,-17.36 206.59,242.01 206.59,242.01l666.75 -397.8c0,0 -372.69,-251.91 -424.68,-550.33 -51.99,-298.42 -76.73,-674.69 -315.6,-778.11 -238.87,-103.42 -531.81,-79.16 -691.57,43.74 0,0 -93.45,89.27 -119.46,316.36 -21.17,183.28 -13.63,319.35 -50.59,380.07 -7.71,13.86 -20.12,24.56 -34.97,30.16 -77.21,28.02 -154.68,28.55 -59.61,160.84l-0.01 0z"/>
  <path class="fil1" d="M12378.21 4374.76c-105.53,75.98 -228.08,125.08 -356.86,142.91l22.49 47.84c0,0 199.15,-16.22 327.55,-120.46 0.54,-23.5 2.94,-47.09 6.84,-70.26l-0.02 -0.03z"/>
  <path class="fil1" d="M12578 4777.8c-46.46,82.22 -124.57,142.01 -216.05,165.32 -47.95,11.55 -97.4,17.49 -146.76,17.49 -52.72,0 -105.28,-6.7 -156.25,-19.88l-2.65 40.14c0,0 120.89,66.94 316.97,8.78 196.08,-58.16 229.9,-164.99 229.9,-164.99l-25.16 -46.86z"/>
  <path class="fil7" d="M11496.65 4670.83c95.01,132.16 119.06,408.7 236.7,584.97 4.03,6.21 8.62,12.15 13.62,17.63 88.74,-6.85 280.25,-38.79 358.67,-183.46 103.98,-191.82 39.98,-592.67 39.98,-592.67 -173.94,39.69 -407.03,-18.28 -554.28,-17.44 -7.71,13.86 -20.12,24.56 -34.97,30.16 -77.23,28.07 -154.75,28.65 -59.72,160.81z"/>
  <path class="fil9" d="M12097.15 7519.65l308.21 1397.37 30.88 140.23 1958.31 -503.79c0,0 -463.26,-990.36 -672.52,-2397.13 -25.66,-170.18 -47.63,-346.79 -64.08,-528.45 -37.99,-419.76 -428.63,-440.77 -428.63,-440.77 0,0 -966.5,-82.95 -1320.91,1230.79 -75.57,278.53 188.73,1101.75 188.73,1101.75l0.01 0z"/>
  <path class="fil14" d="M12423.75 8850.93l-18.52 66.15 30.9 140.23 1958.31 -503.71c0,0 -463.26,-990.36 -672.52,-2397.13l-684.93 -212.78c0,0 651.03,1277.57 721.6,1943.44 70.57,665.87 -1334.85,963.8 -1334.85,963.8l0.01 0z"/>
  <path class="fil1" d="M13299.31 5183.56c0,0 -61.54,-150.63 -152.19,-167.83 -90.65,-17.2 -688.9,226.01 -744.8,283.1 -55.9,57.09 -19.53,236.99 -19.53,236.99l916.52 -352.26z"/>
  <path class="fil15" d="M12018.86 4172.57c-32.65,-45.64 -81.38,-77.38 -136.34,-88.75 -13.74,-3.78 -27.98,-5.7 -42.26,-5.7 -57.62,0 -110.75,31.16 -138.88,81.43 -28.13,50.27 130.97,-53.45 317.47,13.02l0.01 0z"/>
  <path class="fil15" d="M11783.75 4315.02c0.4,53.42 21.17,96.6 46.57,96.44 25.4,-0.16 45.61,-43.66 45.19,-97.08 -0.42,-53.42 -21.17,-96.6 -46.57,-96.39 -25.4,0.21 -45.59,43.66 -45.19,97.02l0 0.01z"/>
  <path class="fil16" d="M13187.94 4778.36c72.89,138.81 204.09,238.07 357.6,270.14 263.26,58.21 460.19,281.57 433.23,432.78 -26.96,151.21 638.92,123.08 629.71,387.14 0,0 -57.97,-44.98 -117.16,-16.62 -59.19,28.36 199.6,62.02 212.01,199.2 0,0 -62.47,-69.53 -112.08,-26.3 -49.61,43.23 30.11,250.03 -195.79,309.91 -225.9,59.88 -329.04,72.84 -474,-37.04 -144.96,-109.88 -176.19,1.98 -176.19,1.98 0,0 -92.26,-40.67 -125.23,-119.46 -32.97,-78.79 -175.13,-61.62 -170.63,-37.04 4.5,24.58 -292.07,-92.87 -429.45,-364.23 -137.38,-271.36 -100.12,-456.7 -260.91,-498.5 -160.79,-41.8 -303.66,-278.98 -286.89,-405.9 16.77,-126.92 715.75,-96.04 715.75,-96.04l0.03 -0.02z"/>
  <path class="fil17" d="M11644.58 3879.72c49.98,45.8 220.82,-52.92 409.95,113.77 101.07,89.3 180.23,335.28 245.06,551.6 56.14,187.35 101.15,352.93 140.02,374.2 83.82,46.38 660.35,-28.73 740.3,-95.09 79.95,-66.36 526.02,-582.85 311.81,-1117.02 -2.96,-7.14 -5.87,-14.31 -9.13,-21.43 -275.83,-657.3 -935.75,-797.82 -1397.32,-531.97 -448.23,257.94 -427.96,630.16 -427.96,630.16 -28.15,5.21 -62.73,49.64 -12.73,95.78z"/>
  <path class="fil18" d="M12229.04 4090.89c0,0 27.25,402.33 -229.55,584.23 -256.8,181.9 -409.55,-302.84 -525.41,-203.25 -115.86,99.59 -75.96,-525.78 74.35,-662.86 150.31,-137.08 658.79,65.83 680.61,281.89l0 -0.01z"/>
  <path class="fil19" d="M12310.93 3999.18c0,0 -39.29,-182.56 -156.79,-239.45 -117.5,-56.89 -411.08,-209.81 -462.17,-189.52 -51.09,20.29 -185.63,225.4 -194.97,280.19 -9.34,54.79 236.75,8.15 514.61,88.85 277.86,80.7 221.46,164.39 299.32,59.93z"/>
  <path class="fil20" d="M12299.58 4545.1c56.14,187.35 101.15,352.93 140.02,374.2 83.82,46.38 660.35,-28.73 740.3,-95.09 79.95,-66.36 526.02,-582.85 311.81,-1117.02 -2.96,-7.14 -5.87,-14.31 -9.13,-21.43 -13.23,170.34 -93.19,437.73 -445.45,560.92 -387.35,135.6 -610.24,189.1 -737.55,298.42z"/>
  <path class="fil21" d="M13154.32 4799.84c0,0 -592.67,148.88 -681.91,54.37 -89.24,-94.51 -238.57,-668.05 -238.57,-668.05 0,0 227.33,579.04 307.18,609.97 79.85,30.93 515.7,16.91 613.3,3.7l0 0.01z"/>
  <path class="fil21" d="M12627.11 4321.68c-0.01,0.57 -0.02,1.16 -0.02,1.72 0,59.16 47.97,107.13 107.13,107.13 59.16,0 107.13,-47.97 107.13,-107.13 0,-58.48 -46.9,-106.16 -105.36,-107.12 -0.57,0 -1.19,-0.01 -1.77,-0.01 -58.49,0 -106.2,46.95 -107.12,105.43l0.01 -0.02z"/>
  <path class="fil7" d="M10157.59 7860.94c0,0 1513.42,195.79 1754.45,189.18 241.03,-6.61 534.11,-98.05 730.25,-415.1 131.79,-213.02 393.46,-895.91 551.02,-1321.36 18.79,-50.45 28.46,-104.06 28.46,-157.95 0,-104.24 -35.98,-205.38 -101.86,-286.12 -30.51,-36.64 -67.31,-67.88 -108.46,-91.92 -215.19,-125.33 -484.9,-20.88 -574.33,222.25 -179.49,489.64 -436.96,1202.27 -431.27,1251.11 8.76,74.72 -1738.5,56.78 -1738.5,56.78l-71.76 362.8 -38 190.33z"/>
  <path class="fil1" d="M10157.59 7860.94c0,0 1513.42,195.79 1754.45,189.18 241.03,-6.61 534.11,-98.05 730.25,-415.1 131.79,-213.02 393.46,-895.91 551.02,-1321.36 18.81,-50.52 28.48,-104.08 28.48,-158.02 0,-104.24 -36.03,-205.38 -101.91,-286.12l-3.76 -1.24c0,0 -410.1,1734.95 -941.68,1921.99 -444.98,156.79 -1611.31,-48.84 -1979.08,-119.78l-37.77 190.45z"/>
  <path class="fil1" d="M12005.92 7327.56l92.34 334.22c0,0 -214.71,-32.86 -92.34,-334.22z"/>
  <path class="fil17" d="M9078.89 7691.68c1.71,64.15 29.6,124.87 77.12,167.99 59.29,53.55 134.54,65.35 156.26,12.86 36.7,-89.8 -79.82,-91.73 -50.11,-185.21 29.71,-93.48 83.9,-157.45 203.25,-130.25 119.35,27.2 116.87,175.15 232.07,238.68 115.2,63.53 316.44,55.69 316.44,55.69l252.33 94.56c0,0 93.4,-109.11 116.58,-339.78 0.74,-8.78 1.46,-17.89 2.2,-26.96 18.2,-248.95 9.13,-339.22 9.13,-339.22 -271.2,-22.65 -423.57,32.68 -423.57,32.68 0,0 -265.64,-145.28 -338.93,-186.16 -73.29,-40.88 -143.51,-56.67 -220.61,-79.67 -77.1,-23 -120.6,30.61 -177.64,73.13 -57.04,42.52 -126.31,181.98 -167.83,351.26 -41.52,169.28 9.18,86.89 13.34,260.4l-0.03 0z"/>
  <path class="fil22" d="M9155.99 7859.72c59.29,53.55 134.54,65.35 156.26,12.86 36.7,-89.8 -79.82,-91.73 -50.11,-185.21 29.71,-93.48 83.93,-157.45 203.25,-130.25 119.32,27.2 116.87,175.15 232.07,238.68 115.2,63.53 316.44,55.69 316.44,55.69l252.33 94.59c0,0 93.4,-109.14 116.58,-339.78 -3.49,-0.16 -7.07,-0.28 -10.6,-0.28 -33.18,0 -65.85,8.43 -94.9,24.41 -107.18,56.96 -118.82,86.1 -162.43,59.82 -43.61,-26.28 -72.65,-258.05 -131.71,-237.01 -59.06,21.04 -15.08,238.44 -113.98,236.83 -98.9,-1.61 -153.04,-281.41 -347.61,-284.61 -194.57,-3.2 -333.59,203.49 -346.02,280.25 -12.43,76.76 67.87,122.34 49.24,147.56 -18.28,24.66 -55.17,-15.85 -68.79,26.46l-0.02 -0.01z"/>
  <path class="fil22" d="M9093.12 7578.1c0,0 113.77,-221.99 184.41,-279.53 70.64,-57.54 -28.58,-48.15 -84.88,27.97 -56.3,76.12 -106.23,207.41 -99.54,251.57l0.01 -0.01z"/>
  <path class="fil22" d="M10135.9 9762.6l121.26 961.05c0,0 135.73,-3.94 357.19,-14.68 887.84,-42.92 3153.12,-193.49 3567.38,-625.24 517.63,-539.56 212.78,-1530.38 212.78,-1530.38 -64.16,-7.49 -209.02,15.03 -391.03,54.03 -564.12,119.59 -1486.96,392.09 -1486.96,392.09l-2380.62 763.13z"/>
  <path class="fil23" d="M10519.2 10551.83l95.25 157.16c887.86,-42.92 3153.12,-193.49 3567.38,-625.24 517.63,-539.56 212.78,-1530.38 212.78,-1530.38 -64.16,-7.49 -209.02,15.03 -391.03,54.03 97.53,244.98 138.67,1074.61 -308.45,1289.16 -621.43,298 -3175.93,655.27 -3175.93,655.27z"/>
  <path class="fil13" d="M10707.79 10691.9c-80.3,394.77 -190.62,784.97 -327.49,1163.93 -225.5,622.56 -493.71,1459.71 -749.7,1851.79l-577.16 -9.47c0,0 504.45,-3299.2 625.71,-3532.06 121.26,-232.86 299.61,-366.9 456.78,-403.46 157.17,-36.56 571.79,929.24 571.79,929.24l0.07 0.03z"/>
  <path class="fil22" d="M9781.91 13436.13c0,0 -629.55,-98.43 -668.81,-89.27 -39.26,9.16 -99.72,409.34 -119.27,409.02 -19.55,-0.32 -359.49,140.84 -501.09,123.85 -141.6,-16.99 -363.59,91.86 -390.05,213.76 -26.46,121.9 408.04,177.96 1000.13,168.14 592.09,-9.82 650.88,-13.78 676.46,-76.94 25.58,-63.16 -71.86,-387.69 -56.89,-407.04 14.97,-19.35 63,-253.42 59.53,-341.52l-0.01 0z"/>
  <path class="fil14" d="M9779.48 14184.69c0,0 45.77,191.58 -3.36,205.45 -49.13,13.87 -519.19,35.48 -704.96,22.62 -185.77,-12.86 -562.82,10.29 -782.06,-47.1 -219.24,-57.39 -262.28,-116.87 -261.7,-151.08 0.58,-34.21 34.4,-160.95 237.09,-284.77 59.63,-34.95 127.67,-53.47 196.81,-53.47 23.65,0 47.39,2.18 70.61,6.46 -74.99,80.97 -116.77,187.43 -116.77,297.84 0,10.97 0.43,21.99 1.23,32.9 0.8,10.91 177.88,42.07 669.85,28.18 491.97,-13.89 693.26,-57.04 693.26,-57.04l0 0.01z"/>
  <path class="fil14" d="M9041.53 13531.59c0,0 154.28,-9.68 167.96,51.67 13.68,61.35 -82.02,74.51 -155.26,68.39 -73.24,-6.12 -12.7,-120.07 -12.7,-120.07l0 0.01z"/>
  <path class="fil14" d="M8992.55 13684.89c0,0 154.28,-9.68 167.96,51.67 13.68,61.35 -82.02,74.51 -155.2,68.39 -73.18,-6.12 -12.75,-120.07 -12.75,-120.07l-0.01 0.01z"/>
  <path class="fil4" d="M18660.19 8629.87l-3172.7 156.92c-97.34,4.81 -173.83,85.19 -173.83,182.67 0,10.61 0.94,21.23 2.77,31.66 15.26,87.47 91.27,151.33 180.08,151.33 2.25,0 4.55,-0.07 6.79,-0.13l3162.41 -116.71c81.02,-2.98 150.41,-59.01 170.4,-137.58l10.29 -40.24c3.78,-14.76 5.7,-30.01 5.7,-45.26 0,-100.98 -81.9,-182.88 -182.88,-182.88 -2.99,0 -6.05,0.09 -9.02,0.22l-0.01 0z"/>
 </g>
</svg>
