<?xml version="1.0" encoding="utf-8"?>
<!-- Generator: Adobe Illustrator 24.1.1, SVG Export Plug-In . SVG Version: 6.00 Build 0)  -->
<svg version="1.1" id="Cliengo-Chatbot" xmlns="http://www.w3.org/2000/svg" xmlns:xlink="http://www.w3.org/1999/xlink" x="0px"
	 y="0px" viewBox="0 0 1003 768" style="enable-background:new 0 0 1003 768;" xml:space="preserve">
<style type="text/css">
	.st0{fill:#EFEFEF;stroke:#E8505B;stroke-width:2;stroke-miterlimit:10;}
	.st1{fill:#FFFFFF;}
	.st2{clip-path:url(#SVGID_2_);}
	.st3{fill:#E8505B;}
	.st4{enable-background:new    ;}
	.st5{fill:#76C0B4;}
	.st6{fill:none;}
	.st7{fill:#66D0C2;}
	.st8{fill:#C9C9C9;}
	.st9{fill:#E6E6E6;}
	.st10{fill:#220C3E;}
	.st11{fill:#FDC5C4;}
	.st12{opacity:5.000000e-02;enable-background:new    ;}
	.st13{fill:#8189A6;}
	.st14{fill:#46466D;}
	.st15{opacity:0.1;enable-background:new    ;}
	.st16{opacity:9.000000e-02;enable-background:new    ;}
	.st17{fill:#3F3D56;}
	.st18{fill:#CDD0DB;}
	.st19{fill:#9DA7C0;}
	.st20{fill:#F2B3B3;}
	.st21{opacity:0.3;fill:#FFFFFF;enable-background:new    ;}
	.st22{fill:none;stroke:#FDFDFF;stroke-miterlimit:10;}
	.st23{fill:#513166;}
	.st24{fill:#FFFFFF;stroke:#515151;stroke-width:2;stroke-linecap:round;stroke-linejoin:round;}
	.st25{fill:none;stroke:#515151;stroke-width:2;stroke-linecap:round;stroke-linejoin:round;}
	.st26{fill:#A8EDDE;}
</style>
<symbol  id="Nuevo_símbolo_1">
</symbol>
<path id="ada06b65-82c5-4992-a085-c73fb2937f2d" class="st0" d="M378.2,16.6c-15.9,0-28.7,12.9-28.7,28.7v609
	c0,15.8,12.9,28.7,28.7,28.7h266.6c15.9,0,28.7-12.9,28.7-28.7v-609c0-15.9-12.9-28.7-28.7-28.7L378.2,16.6L378.2,16.6z"/>
<path class="st1" d="M629.6,32.7h-35.3v4.5c0,11.9-9.6,21.5-21.5,21.5l0,0H450.3c-11.9,0-21.5-9.6-21.5-21.5l0,0v-4.5h-35.4
	c-14.4,0-26.1,11.7-26.1,26.1l0,0v581.9l0,0c0,13.2,9.8,24.3,22.9,25.9h0.1c0.4,0.1,0.9,0.1,1.4,0.1h0.3c0.5,0,1,0,1.5,0h236.4
	c0.5,0,1,0,1.5,0h0.3c0.5,0,0.9,0,1.4-0.1h0.1c13.1-1.6,22.9-12.7,22.9-25.9l0,0V58.9C655.8,44.4,644.1,32.7,629.6,32.7L629.6,32.7z
	"/>
<g>
	<g>
		<g>
			<defs>
				<path id="SVGID_1_" d="M629.8,30h-35.4v4.5c0,11.9-9.6,21.5-21.5,21.6H450.5c-11.9,0-21.5-9.7-21.5-21.6l0,0V30h-35.4
					c-14.5,0-26.2,11.7-26.2,26.2l0,0V639l0,0c0,13.2,9.8,24.4,22.9,26h0.1c0.5,0,0.9,0.1,1.4,0.1h0.3c0.5,0,1,0,1.5,0H630
					c0.5,0,1,0,1.5,0h0.2c0.5,0,0.9-0.1,1.4-0.1h0.1c13.1-1.6,22.9-12.8,22.9-26l0,0V56.2C656,41.7,644.3,30,629.8,30L629.8,30z"/>
			</defs>
			<clipPath id="SVGID_2_">
				<use xlink:href="#SVGID_1_"  style="overflow:visible;"/>
			</clipPath>
			<g class="st2">
				<rect x="366.5" y="29.9" class="st3" width="289.4" height="64.8"/>
			</g>
		</g>
	</g>
</g>
<g class="st4">
	<path class="st1" d="M398.7,76.9c0-1,0.1-1.9,0.4-2.7c0.3-0.8,0.7-1.5,1.2-2.1s1.1-1,1.8-1.3c0.7-0.3,1.5-0.5,2.3-0.5
		c0.5,0,1.1,0.1,1.6,0.2s1.1,0.3,1.7,0.6c0.2,0.1,0.3,0.2,0.4,0.3s0.1,0.3,0.1,0.5c0,0.1,0,0.2-0.1,0.3c0,0.1-0.1,0.2-0.2,0.3
		c-0.1,0.1-0.2,0.1-0.3,0.2s-0.2,0.1-0.3,0.1c-0.1,0-0.2,0-0.3-0.1c-0.9-0.3-1.7-0.5-2.5-0.5c-0.6,0-1.1,0.1-1.6,0.3
		c-0.5,0.2-0.8,0.5-1.2,0.9c-0.3,0.4-0.5,0.9-0.7,1.4c-0.2,0.6-0.2,1.2-0.2,2c0,0.7,0.1,1.3,0.2,1.8c0.1,0.6,0.4,1,0.6,1.4
		c0.3,0.4,0.6,0.7,1.1,0.9c0.4,0.2,0.9,0.3,1.5,0.3c0.4,0,0.8-0.1,1.3-0.2s1-0.3,1.5-0.5c0.1,0,0.1-0.1,0.2-0.1s0.1,0,0.2,0
		s0.2,0,0.3,0.1c0.1,0,0.2,0.1,0.2,0.2c0.1,0.1,0.1,0.2,0.2,0.3c0,0.1,0.1,0.2,0.1,0.3c0,0.2-0.1,0.4-0.2,0.5s-0.3,0.3-0.5,0.4
		c-1.3,0.6-2.4,0.9-3.5,0.9c-0.8,0-1.6-0.2-2.3-0.5c-0.7-0.3-1.3-0.7-1.8-1.3s-0.9-1.2-1.2-2C398.9,78.7,398.7,77.8,398.7,76.9z"/>
	<path class="st1" d="M411.2,71.7c0-0.2,0-0.3,0.1-0.4s0.1-0.2,0.2-0.3c0.1-0.1,0.2-0.1,0.3-0.2s0.2-0.1,0.4-0.1
		c0.1,0,0.2,0,0.4,0.1c0.1,0,0.2,0.1,0.3,0.2c0.1,0.1,0.2,0.2,0.2,0.3c0.1,0.1,0.1,0.3,0.1,0.4V82c0,0.2,0,0.3-0.1,0.4
		s-0.1,0.2-0.2,0.3s-0.2,0.1-0.3,0.2s-0.2,0.1-0.4,0.1s-0.2,0-0.4-0.1c-0.1,0-0.2-0.1-0.3-0.2c-0.1-0.1-0.2-0.2-0.2-0.3
		s-0.1-0.3-0.1-0.4V71.7z"/>
	<path class="st1" d="M417.8,71.6c0,0.3-0.1,0.5-0.3,0.7c-0.2,0.2-0.5,0.3-0.9,0.3c-0.2,0-0.3,0-0.5-0.1s-0.3-0.1-0.4-0.2
		s-0.2-0.2-0.2-0.3s-0.1-0.2-0.1-0.4s0-0.3,0.1-0.4s0.1-0.2,0.2-0.3c0.1-0.1,0.2-0.2,0.4-0.2s0.3-0.1,0.5-0.1s0.3,0,0.5,0.1
		s0.3,0.1,0.4,0.2s0.2,0.2,0.2,0.3S417.8,71.4,417.8,71.6z M415.6,75.4c0-0.2,0-0.3,0.1-0.4s0.1-0.2,0.2-0.3
		c0.1-0.1,0.2-0.1,0.3-0.2s0.2-0.1,0.4-0.1c0.1,0,0.2,0,0.4,0.1c0.1,0,0.2,0.1,0.3,0.2c0.1,0.1,0.2,0.2,0.2,0.3
		c0.1,0.1,0.1,0.3,0.1,0.4V82c0,0.2,0,0.3-0.1,0.4s-0.1,0.2-0.2,0.3s-0.2,0.1-0.3,0.2s-0.2,0.1-0.4,0.1s-0.2,0-0.4-0.1
		c-0.1,0-0.2-0.1-0.3-0.2c-0.1-0.1-0.2-0.2-0.2-0.3s-0.1-0.3-0.1-0.4V75.4z"/>
	<path class="st1" d="M428,78.4c0,0.2,0,0.3-0.1,0.4s-0.3,0.2-0.5,0.2h-5.8c0.1,0.8,0.3,1.5,0.8,1.9c0.5,0.5,1.1,0.7,1.8,0.7
		c0.5,0,0.9-0.1,1.3-0.2s0.8-0.3,1.3-0.5c0.1-0.1,0.2-0.1,0.3-0.1c0.2,0,0.3,0.1,0.4,0.2s0.1,0.2,0.1,0.4c0,0.1,0,0.1,0,0.2
		s-0.1,0.1-0.1,0.2c-0.2,0.2-0.4,0.4-0.7,0.6s-0.6,0.3-0.9,0.4s-0.6,0.2-1,0.2c-0.3,0-0.6,0.1-1,0.1c-0.6,0-1.2-0.1-1.7-0.3
		s-1-0.5-1.4-0.9s-0.7-0.9-0.9-1.5s-0.3-1.2-0.3-1.8c0-0.5,0.1-1,0.3-1.6c0.2-0.5,0.5-1,0.9-1.4s0.8-0.7,1.3-1s1.1-0.4,1.8-0.4
		c0.7,0,1.3,0.1,1.8,0.3c0.5,0.2,0.9,0.5,1.3,0.9c0.3,0.4,0.6,0.8,0.8,1.3C427.9,77.4,428,77.9,428,78.4z M426.2,78
		c0-0.3-0.1-0.6-0.2-0.9s-0.3-0.6-0.5-0.8c-0.2-0.2-0.4-0.4-0.7-0.5c-0.3-0.1-0.6-0.2-1-0.2c-0.3,0-0.6,0.1-0.9,0.2
		s-0.5,0.3-0.7,0.5s-0.4,0.5-0.5,0.8s-0.2,0.6-0.2,0.8L426.2,78L426.2,78z"/>
	<path class="st1" d="M429.9,75.4c0-0.2,0-0.3,0.1-0.4s0.1-0.2,0.2-0.3c0.1-0.1,0.2-0.1,0.3-0.2s0.2-0.1,0.4-0.1s0.2,0,0.4,0.1
		c0.1,0,0.2,0.1,0.3,0.2c0.1,0.1,0.2,0.2,0.2,0.3s0.1,0.2,0.1,0.4V76c0.1-0.2,0.3-0.4,0.5-0.7c0.2-0.2,0.4-0.4,0.7-0.6
		c0.3-0.2,0.5-0.3,0.8-0.3c0.3-0.1,0.6-0.1,0.9-0.1c0.4,0,0.8,0.1,1.1,0.2s0.7,0.3,1,0.6c0.3,0.3,0.5,0.6,0.7,1s0.2,0.9,0.2,1.5V82
		c0,0.2,0,0.3-0.1,0.4s-0.1,0.2-0.2,0.3c-0.1,0.1-0.2,0.1-0.3,0.2c-0.1,0-0.2,0.1-0.4,0.1s-0.2,0-0.4-0.1c-0.1,0-0.2-0.1-0.3-0.2
		c-0.1-0.1-0.2-0.2-0.2-0.3c-0.1-0.1-0.1-0.3-0.1-0.4v-4.5c0-0.3,0-0.6-0.1-0.8c-0.1-0.2-0.2-0.4-0.4-0.6c-0.2-0.2-0.3-0.3-0.5-0.4
		s-0.4-0.1-0.7-0.1c-0.3,0-0.6,0-0.8,0.1c-0.3,0.1-0.5,0.2-0.7,0.4c-0.2,0.2-0.4,0.4-0.5,0.7c-0.1,0.3-0.2,0.6-0.2,1V82
		c0,0.2,0,0.3-0.1,0.4s-0.1,0.2-0.2,0.3c-0.1,0.1-0.2,0.1-0.3,0.2c-0.1,0-0.2,0.1-0.4,0.1s-0.2,0-0.4-0.1c-0.1,0-0.2-0.1-0.3-0.2
		c-0.1-0.1-0.2-0.2-0.2-0.3s-0.1-0.3-0.1-0.4V75.4z"/>
	<path class="st1" d="M446.4,81.4c-0.2,0.3-0.3,0.5-0.6,0.7c-0.2,0.2-0.5,0.4-0.7,0.5c-0.3,0.1-0.5,0.2-0.8,0.3s-0.6,0.1-0.9,0.1
		c-0.6,0-1.2-0.1-1.6-0.3s-0.9-0.5-1.2-0.9s-0.5-0.8-0.7-1.3s-0.2-1.1-0.2-1.7s0.1-1.1,0.2-1.7c0.2-0.6,0.4-1,0.7-1.4s0.7-0.7,1.1-1
		s1-0.4,1.6-0.4c0.3,0,0.6,0,0.9,0.1s0.6,0.2,0.8,0.3c0.3,0.1,0.5,0.3,0.7,0.5s0.4,0.5,0.6,0.7v-0.7c0-0.1,0.1-0.2,0.1-0.3
		s0.1-0.2,0.2-0.2c0.1-0.1,0.2-0.1,0.3-0.1c0.1,0,0.2,0,0.3,0c0.1,0,0.2,0,0.3,0.1s0.2,0.1,0.3,0.2c0.1,0.1,0.2,0.2,0.2,0.3
		c0.1,0.1,0.1,0.3,0.1,0.4V83c0,0.7-0.1,1.3-0.3,1.8c-0.2,0.5-0.5,0.9-0.9,1.2c-0.4,0.3-0.8,0.5-1.4,0.7c-0.5,0.1-1.1,0.2-1.7,0.2
		c-0.9,0-1.6-0.1-2.1-0.3c-0.5-0.2-0.9-0.5-1.1-0.9c-0.1-0.1-0.1-0.3-0.1-0.4c0-0.2,0.1-0.3,0.2-0.5s0.3-0.2,0.4-0.2s0.2,0,0.2,0.1
		c0.2,0.1,0.3,0.1,0.5,0.2s0.3,0.1,0.5,0.2s0.4,0.1,0.6,0.1s0.5,0.1,0.7,0.1c0.4,0,0.7,0,1-0.1s0.6-0.2,0.8-0.3s0.4-0.4,0.5-0.6
		c0.1-0.3,0.2-0.6,0.2-1v-1.9H446.4z M446.3,78.7c0-0.4,0-0.8-0.1-1.2c-0.1-0.3-0.2-0.7-0.4-1c-0.2-0.3-0.4-0.5-0.7-0.7
		c-0.3-0.2-0.7-0.3-1.1-0.3s-0.8,0.1-1.1,0.2c-0.3,0.2-0.5,0.4-0.7,0.7c-0.2,0.3-0.3,0.6-0.4,1s-0.1,0.8-0.1,1.2
		c0,0.5,0.1,1,0.2,1.4s0.3,0.7,0.5,0.9s0.4,0.4,0.7,0.5c0.3,0.1,0.6,0.2,0.9,0.2s0.6-0.1,0.9-0.2s0.5-0.3,0.7-0.5s0.4-0.5,0.5-0.9
		S446.3,79.2,446.3,78.7z"/>
	<path class="st1" d="M450,78.7c0-0.5,0.1-1.1,0.3-1.6c0.2-0.5,0.5-1,0.8-1.4c0.4-0.4,0.8-0.7,1.4-1c0.6-0.2,1.2-0.4,2-0.4
		s1.4,0.1,2,0.4c0.6,0.2,1,0.6,1.4,1s0.7,0.9,0.8,1.4c0.2,0.5,0.3,1.1,0.3,1.6s-0.1,1.1-0.3,1.6c-0.2,0.5-0.5,1-0.8,1.4
		c-0.4,0.4-0.8,0.7-1.4,1c-0.6,0.2-1.2,0.4-2,0.4s-1.4-0.1-2-0.4c-0.6-0.2-1-0.6-1.4-1s-0.6-0.9-0.8-1.4
		C450.1,79.8,450,79.2,450,78.7z M452.2,78.7c0,0.3,0,0.7,0.1,1.1s0.2,0.7,0.4,1s0.4,0.5,0.7,0.7c0.3,0.2,0.7,0.3,1.1,0.3
		s0.8-0.1,1.1-0.3c0.3-0.2,0.5-0.4,0.7-0.7c0.2-0.3,0.3-0.6,0.4-1s0.1-0.7,0.1-1.1s0-0.7-0.1-1.1s-0.2-0.7-0.4-1
		c-0.2-0.3-0.4-0.5-0.7-0.7c-0.3-0.2-0.7-0.3-1.1-0.3s-0.8,0.1-1.1,0.3c-0.3,0.2-0.5,0.4-0.7,0.7s-0.3,0.6-0.4,1
		S452.2,78.4,452.2,78.7z"/>
</g>
<circle class="st5" cx="388.9" cy="76.9" r="5.3"/>
<rect x="365.1" y="60.4" class="st6" width="109.9" height="33.5"/>
<g id="Group_4086">
	<path id="Path_11440" class="st1" d="M407.8,122.1c-13.8-0.2-25.2,10.9-25.4,24.8c-0.2,13.8,10.9,25.2,24.8,25.4
		c13.8,0.2,25.1-10.8,25.4-24.6C432.7,133.7,421.7,122.3,407.8,122.1L407.8,122.1z"/>
</g>
<g id="Group_4086-2">
	<path id="Path_11440-2" class="st3" d="M407.8,119.3c-15.4-0.2-28,12.1-28.2,27.5s12.1,28,27.5,28.2c15.3,0.2,27.9-12.1,28.2-27.4
		C435.5,132.2,423.2,119.5,407.8,119.3L407.8,119.3z M427.5,144.5c-0.8,1.1-1.6,2.2-2.4,3.3c-1.4,2.1-2.2,4.6-2.1,7.1
		c0.1,7.1-4.9,13.2-11.8,14.5c-4.5,1.2-9.2-1.1-11.1-5.4c-0.1-0.2-0.2-0.5-0.4-0.7c-4.4-5.8-8.4-11.8-12.1-18
		c-0.6-0.8-0.9-1.9-0.7-2.9c0.4-1.8,2.2-2.9,4-2.5c0.6,0.1,1.1,0.4,1.5,0.8c0.4,0.3,0.8,0.7,1.1,1l0.1-0.1c-0.8-1.8-1.5-3.5-2.2-5.3
		c-0.7-1.6,0-3.5,1.6-4.2c0.5-0.2,1-0.3,1.5-0.3c1.2,0.1,2.2,0.8,2.8,1.9c1,1.4,2,2.9,3,4.3c-0.7-2.8-1.4-5.7-2.1-8.5
		c-0.2-1-0.1-2,0.4-2.9c0.5-1,1.5-1.7,2.6-1.7c1.3,0,2.5,0.8,3.1,2c0.5,1.2,1,2.4,1.4,3.6c0.4,1.1,0.8,2.2,1.3,3.3
		c0.1-1.3,0.1-2.6,0.2-4c0.1-1.8,1.4-3.2,3.1-3.5c1.8-0.3,3.4,0.9,3.8,2.7c0.1,0.7,0.2,1.3,0.2,2c0,5.1,0.1,10.2,0.1,15.4
		c-0.1,0.5,0.3,1,0.8,1.1c0.8,0.3,1.6,0.7,2.3,1.2c1.5,1.1,2,3,1.3,4.7c-0.6,1.5-2.1,2.4-3.7,2.3c-1.8-0.3-3.1-1.7-3.3-3.4
		c-0.1-0.7-0.2-1.4-0.3-2.1c-0.1,0-0.3,0-0.4,0c-4.4,1-7.7,3.7-8.8,8.1c-0.9,3.6,1.2,7.3,4.9,8.3h0.1c2.1,0.4,4.3,0,6.1-1
		c3.3-1.7,5.7-4.1,6.4-7.8c0.3-1.1,0.4-2.3,0.4-3.4c-0.1-3.9,1.5-7,3.8-9.9c0.4-0.5,0.8-0.9,1.1-1.4s0.3-1-0.5-1.2
		c-1-0.2-2-0.1-2.8,0.5c-1.2,0.7-2.1,1.7-2.6,2.9c-0.2,0.7-1,1.1-1.7,1c-0.8-0.1-1.3-0.9-1.1-1.7c0-0.1,0-0.2,0.1-0.2
		c1.4-3.5,5-6.3,8.9-5.3C427.4,139.5,429.3,142,427.5,144.5L427.5,144.5z"/>
	<path id="Path_11441" class="st3" d="M411.4,147.1c0-2.2,0-4.3,0-6.4c0-3.4,0-6.8-0.1-10.1c0-0.3,0-0.5-0.1-0.8
		c-0.1-0.2-0.4-0.6-0.5-0.5c-0.3,0.1-0.5,0.3-0.6,0.5c-0.1,0.4-0.2,0.8-0.2,1.2c-0.1,2.7-0.3,5.4-0.4,8.1c0,0.8-0.1,1.6-0.1,2.4
		c0,0.7-0.6,1.3-1.3,1.4c-0.7,0.1-1.4-0.3-1.5-1c-0.1-0.2-0.2-0.5-0.3-0.7c-1.5-4.1-2.9-8.1-4.4-12.1c-0.2-0.4-0.4-0.8-0.7-1.2
		L401,128c0,0.5,0,1.1,0.1,1.6c1.3,5,2.5,9.9,3.8,14.8c0.1,0.4,0.3,0.9,0.2,1.1c-0.2,0.5-0.5,0.9-1,1.2c-0.7,0.3-1.3-0.1-1.7-0.7
		l-7.4-10.5c-0.2-0.3-0.5-0.6-0.8-0.9l-0.3,0.2c0.1,0.3,0.1,0.6,0.2,0.9c1.9,4.1,3.7,8.2,5.6,12.4c0.4,1,0.4,1.7-0.3,2.1
		s-1.4,0.4-2.1-0.4c-2.1-2.2-4.3-4.3-6.4-6.5c-0.2-0.2-0.4-0.4-0.7-0.6c-0.1-0.1-0.4-0.1-0.5,0c-0.1,0.2-0.1,0.4-0.1,0.6
		c0.1,0.2,0.2,0.4,0.3,0.6c1.7,2.8,3.5,5.6,5.2,8.3c1.3,1.9,2.6,3.8,4,5.9C401,151.6,405.3,148.2,411.4,147.1z"/>
	<path id="Path_11442" class="st3" d="M415.6,152.6c0.4-0.2,0.6-0.6,0.5-1c0-0.1-0.1-0.1-0.1-0.2c-0.4-0.4-0.8-0.8-1.3-1.2l-0.3,0.2
		c0.1,0.5,0.2,1.1,0.3,1.6C414.8,152.5,415,152.9,415.6,152.6z"/>
</g>
<path class="st7" d="M462.5,286h67c1.9,0,3.5,1.6,3.5,3.5l0,0c0,1.9-1.6,3.5-3.5,3.5h-67c-1.9,0-3.5-1.6-3.5-3.5l0,0
	C459,287.6,460.6,286,462.5,286z"/>
<path class="st8" d="M577,273.9H402.9c-10.5,0-20.9,0-20.9,14.1v60.4c0,14.1,11.5,18.3,22.1,18.3h131.3c10.5,0,22.1-2.4,22.1-16.5
	v-64.7L577,273.9z"/>
<path class="st9" d="M577.4,271.6H402.9c-10.6,0-20.9-0.1-20.9,13.9v59.7c0,14,11.6,18.1,22.1,18.1h131.7c10.6,0,22.1-2.4,22.1-16.4
	V283L577.4,271.6z"/>
<circle class="st7" cx="610.6" cy="279.3" r="27.7"/>
<g class="st4">
	<path class="st1" d="M599.1,279.4c0-2.1,0.3-4,0.9-5.7c0.6-1.7,1.5-3.1,2.5-4.3c1.1-1.2,2.4-2.1,3.9-2.7s3.1-0.9,4.9-0.9
		c1.1,0,2.2,0.1,3.4,0.4s2.4,0.7,3.6,1.2c0.4,0.2,0.7,0.4,0.9,0.7c0.2,0.3,0.3,0.6,0.3,1c0,0.2,0,0.5-0.1,0.7s-0.2,0.4-0.3,0.6
		c-0.2,0.2-0.3,0.3-0.5,0.4s-0.4,0.2-0.7,0.2c-0.2,0-0.5,0-0.7-0.1c-1.9-0.7-3.7-1-5.2-1c-1.3,0-2.4,0.2-3.3,0.6s-1.8,1.1-2.4,1.9
		c-0.7,0.8-1.1,1.8-1.5,3c-0.3,1.2-0.5,2.6-0.5,4.1c0,1.4,0.1,2.7,0.4,3.9c0.3,1.2,0.7,2.2,1.4,3c0.6,0.8,1.4,1.5,2.3,2
		c0.9,0.5,2,0.7,3.2,0.7c0.9,0,1.8-0.1,2.8-0.4s2.1-0.6,3.2-1.1c0.2-0.1,0.3-0.1,0.5-0.2c0.1,0,0.3,0,0.4,0c0.3,0,0.5,0,0.7,0.1
		s0.4,0.2,0.5,0.4c0.1,0.2,0.3,0.4,0.3,0.6c0.1,0.2,0.1,0.4,0.1,0.7c0,0.4-0.1,0.7-0.3,1.1s-0.6,0.7-1.1,0.9
		c-2.7,1.3-5.1,1.9-7.4,1.9c-1.8,0-3.4-0.3-4.9-1c-1.5-0.6-2.7-1.6-3.8-2.8c-1-1.2-1.9-2.6-2.4-4.2
		C599.4,283.2,599.1,281.4,599.1,279.4z"/>
</g>
<path class="st1" d="M415.5,310h114c1.9,0,3.5,1.6,3.5,3.5l0,0c0,1.9-1.6,3.5-3.5,3.5h-114c-1.9,0-3.5-1.6-3.5-3.5l0,0
	C412,311.6,413.6,310,415.5,310z"/>
<path class="st1" d="M405.5,334h125c1.9,0,3.5,1.6,3.5,3.5l0,0c0,1.9-1.6,3.5-3.5,3.5h-125c-1.9,0-3.5-1.6-3.5-3.5l0,0
	C402,335.6,403.6,334,405.5,334z"/>
<g id="Group_4086-3">
	<path id="Path_11440-3" class="st1" d="M409.6,386.7c-13.8-0.2-25.2,10.9-25.4,24.8c-0.2,13.8,10.9,25.2,24.8,25.4
		c13.8,0.2,25.1-10.8,25.4-24.6C434.6,398.5,423.6,387,409.6,386.7L409.6,386.7z"/>
</g>
<g id="Group_4086-4">
	<path id="Path_11440-4" class="st3" d="M409.6,383.9c-15.4-0.2-28,12.1-28.2,27.5s12.1,28,27.5,28.2c15.3,0.2,27.9-12.1,28.2-27.4
		C437.3,396.8,425.1,384.2,409.6,383.9L409.6,383.9z M429.3,409.2c-0.8,1.1-1.6,2.2-2.4,3.3c-1.4,2.1-2.2,4.5-2.1,7.1
		c0.1,7.1-4.9,13.2-11.8,14.5c-4.6,1.2-9.3-1.1-11.2-5.4c-0.1-0.2-0.2-0.5-0.4-0.7c-4.4-5.8-8.4-11.8-12.1-18
		c-0.6-0.8-0.9-1.9-0.7-2.9c0.4-1.8,2.2-2.9,4-2.5c0.6,0.1,1.1,0.4,1.5,0.8c0.4,0.3,0.7,0.7,1.1,1l0.1-0.1c-0.7-1.8-1.5-3.5-2.2-5.3
		c-0.7-1.6,0-3.5,1.6-4.2c0.5-0.2,1-0.3,1.5-0.3c1.2,0.1,2.2,0.8,2.8,1.9c1,1.5,2,2.9,3,4.3c-0.7-2.8-1.4-5.7-2.1-8.5
		c-0.2-1-0.1-2,0.4-2.9c0.5-1,1.5-1.7,2.6-1.7c1.3,0,2.5,0.7,3.1,1.9c0.6,1.2,1,2.4,1.4,3.6s0.8,2.2,1.3,3.3c0.1-1.3,0.1-2.6,0.2-4
		c0.1-1.8,1.4-3.2,3.1-3.5c1.8-0.3,3.4,0.9,3.8,2.7c0.1,0.7,0.2,1.3,0.2,2c0,5.1,0.1,10.2,0,15.4c-0.1,0.5,0.3,1,0.8,1.1
		c0.8,0.3,1.6,0.7,2.3,1.2c1.5,1.1,2,3,1.3,4.7c-0.6,1.5-2.1,2.4-3.7,2.3c-1.7-0.3-3.1-1.6-3.3-3.4c-0.1-0.7-0.2-1.4-0.3-2.1
		c-0.1,0-0.3,0-0.4,0c-4.4,1-7.7,3.7-8.8,8.1c-0.9,3.7,1.3,7.4,4.9,8.3h0.1c2.1,0.4,4.3,0,6.1-1c3.3-1.7,5.7-4.1,6.4-7.8
		c0.3-1.1,0.4-2.3,0.4-3.4c-0.1-3.8,1.5-7,3.8-9.9c0.4-0.5,0.8-1,1.1-1.5s0.3-1-0.5-1.2c-1-0.2-2-0.1-2.8,0.5
		c-1.2,0.7-2.1,1.7-2.6,2.9c-0.2,0.7-1,1.1-1.7,1c-0.8-0.1-1.3-0.9-1.1-1.6c0-0.1,0-0.2,0.1-0.3c1.3-3.5,5-6.3,8.9-5.3
		C429.2,404.1,431.1,406.6,429.3,409.2L429.3,409.2z"/>
	<path id="Path_11441-2" class="st3" d="M413.2,411.7c0-2.2,0-4.3,0-6.4l-0.1-10.1c0-0.3,0-0.5-0.1-0.8c-0.1-0.2-0.4-0.6-0.5-0.5
		c-0.3,0.1-0.5,0.3-0.6,0.5c-0.1,0.4-0.2,0.8-0.2,1.2c-0.1,2.7-0.3,5.4-0.4,8.1c0,0.8-0.1,1.6-0.1,2.4c0,0.7-0.6,1.3-1.3,1.4
		c-0.7,0.1-1.4-0.3-1.5-1c-0.1-0.2-0.2-0.5-0.3-0.7c-1.4-4.1-2.9-8.1-4.3-12.2c-0.2-0.4-0.4-0.8-0.7-1.1l-0.4,0.1
		c0,0.5,0,1.1,0.1,1.6c1.2,4.9,2.5,9.9,3.8,14.8c0.1,0.4,0.3,0.9,0.2,1.1c-0.2,0.5-0.5,0.9-1,1.2c-0.7,0.2-1.4,0-1.7-0.7
		c-2.5-3.5-4.9-7-7.4-10.4c-0.2-0.3-0.5-0.6-0.8-0.9l-0.3,0.1c0,0.3,0.1,0.6,0.2,0.9c1.9,4.1,3.7,8.2,5.6,12.4
		c0.4,1,0.4,1.7-0.3,2.1s-1.3,0.4-2.1-0.4l-6.4-6.5c-0.2-0.2-0.4-0.4-0.7-0.6c-0.1-0.1-0.4-0.1-0.5,0c-0.1,0.2-0.1,0.4-0.1,0.6
		c0.1,0.2,0.2,0.4,0.3,0.6c1.8,2.8,3.5,5.6,5.2,8.3c1.3,1.9,2.6,3.8,4,5.8C402.8,416.2,407.1,412.9,413.2,411.7z"/>
	<path id="Path_11442-2" class="st3" d="M417.4,417.2c0.4-0.2,0.6-0.6,0.5-1c0-0.1-0.1-0.1-0.1-0.2c-0.4-0.4-0.8-0.8-1.3-1.2
		l-0.3,0.2c0.1,0.5,0.2,1.1,0.3,1.6C416.6,417.1,416.9,417.5,417.4,417.2z"/>
</g>
<path class="st8" d="M443,407.7h174.1c10.5,0,20.9-0.1,20.9,13.9v59.7c0,14-11.5,18.1-22.1,18.1H484.6c-10.5,0-22.1-2.4-22.1-16.4
	v-63.9L443,407.7z"/>
<path class="st9" d="M442.4,404H617c10.6,0,21,0,21,13.9v59.7c0,14-11.6,18.1-22.1,18.1H484.1c-10.6,0-22.1-2.4-22.1-16.4v-64
	L442.4,404z"/>
<path class="st3" d="M490.5,419h68c1.9,0,3.5,1.6,3.5,3.5l0,0c0,1.9-1.6,3.5-3.5,3.5h-68c-1.9,0-3.5-1.6-3.5-3.5l0,0
	C487,420.6,488.6,419,490.5,419z"/>
<path class="st1" d="M490.5,443h109c1.9,0,3.5,1.6,3.5,3.5l0,0c0,1.9-1.6,3.5-3.5,3.5h-109c-1.9,0-3.5-1.6-3.5-3.5l0,0
	C487,444.6,488.6,443,490.5,443z"/>
<path class="st1" d="M490.5,463.7h97.9c1.9,0,3.5,1.6,3.5,3.5l0,0c0,1.9-1.6,3.5-3.5,3.5h-97.9c-1.9,0-3.5-1.6-3.5-3.5l0,0
	C487,465.2,488.6,463.7,490.5,463.7z"/>
<circle class="st7" cx="611.3" cy="541.1" r="27.7"/>
<g class="st4">
	<path class="st1" d="M598.8,542.2c0-2.1,0.3-4,0.9-5.7c0.6-1.7,1.5-3.1,2.5-4.3c1.1-1.2,2.4-2.1,3.9-2.7s3.1-0.9,4.9-0.9
		c1.1,0,2.2,0.1,3.4,0.4c1.2,0.3,2.4,0.7,3.6,1.2c0.4,0.2,0.7,0.4,0.9,0.7s0.3,0.6,0.3,1c0,0.2,0,0.5-0.1,0.7s-0.2,0.4-0.3,0.6
		s-0.3,0.3-0.5,0.4c-0.2,0.1-0.4,0.2-0.7,0.2c-0.2,0-0.5,0-0.7-0.1c-1.9-0.7-3.7-1-5.2-1c-1.3,0-2.4,0.2-3.3,0.6
		c-1,0.4-1.8,1.1-2.4,1.9c-0.7,0.8-1.1,1.8-1.5,3c-0.3,1.2-0.5,2.6-0.5,4.1c0,1.4,0.1,2.7,0.4,3.9s0.7,2.2,1.4,3
		c0.6,0.8,1.4,1.5,2.3,2s2,0.7,3.2,0.7c0.9,0,1.8-0.1,2.8-0.4s2.1-0.6,3.2-1.1c0.2-0.1,0.3-0.1,0.5-0.2c0.2,0,0.3,0,0.4,0
		c0.3,0,0.5,0,0.7,0.1s0.4,0.2,0.5,0.4s0.3,0.4,0.3,0.6s0.1,0.4,0.1,0.7c0,0.4-0.1,0.7-0.3,1.1s-0.6,0.7-1.1,0.9
		c-2.7,1.3-5.1,1.9-7.4,1.9c-1.8,0-3.4-0.3-4.9-1c-1.5-0.6-2.7-1.6-3.8-2.8c-1-1.2-1.9-2.6-2.4-4.3
		C599.1,546,598.8,544.2,598.8,542.2z"/>
</g>
<path class="st8" d="M579,534.9H404.5c-10.6,0-21-0.1-21,15.3V616c0,15.4,11.6,20,22.1,20h131.6c10.6,0,22.1-2.6,22.1-18v-70.5
	L579,534.9z"/>
<path class="st9" d="M579.2,532.3H404.6c-10.6,0-20.9-0.1-20.9,15.3v65.5c0,15.3,11.6,19.9,22.1,19.9h131.7c10.6,0,22.1-2.6,22.1-18
	v-70.2L579.2,532.3z"/>
<path class="st7" d="M463.5,547h68c1.9,0,3.5,1.6,3.5,3.5l0,0c0,1.9-1.6,3.5-3.5,3.5h-68c-1.9,0-3.5-1.6-3.5-3.5l0,0
	C460,548.6,461.6,547,463.5,547z"/>
<path class="st1" d="M413,569h119c1.7,0,3,1.3,3,3l0,0c0,1.7-1.3,3-3,3H413c-1.7,0-3-1.3-3-3l0,0C410,570.3,411.3,569,413,569z"/>
<path class="st1" d="M419.5,589h111c1.9,0,3.5,1.6,3.5,3.5l0,0c0,1.9-1.6,3.5-3.5,3.5h-111c-1.9,0-3.5-1.6-3.5-3.5l0,0
	C416,590.6,417.6,589,419.5,589z"/>
<path class="st1" d="M425.5,609h105c1.9,0,3.5,1.6,3.5,3.5l0,0c0,1.9-1.6,3.5-3.5,3.5h-105c-1.9,0-3.5-1.6-3.5-3.5l0,0
	C422,610.6,423.6,609,425.5,609z"/>
<path class="st7" d="M431.5,290h98c1.9,0,3.5,1.6,3.5,3.5l0,0c0,1.9-1.6,3.5-3.5,3.5h-98c-1.9,0-3.5-1.6-3.5-3.5l0,0
	C428,291.6,429.6,290,431.5,290z"/>
<path class="st8" d="M443.5,142H618c10.6,0,21-0.1,21,16.8v62.6c0,16.9-11.6,21.9-22.2,21.9H485.1c-10.6,0-22.1-2.9-22.1-19.8v-67.8
	L443.5,142z"/>
<path class="st9" d="M443.4,139.2H618c10.6,0,21-0.1,21,16.8v62.6c0,16.9-11.6,21.9-22.1,21.9H485.1c-10.6,0-22.1-2.9-22.1-19.8V153
	L443.4,139.2z"/>
<path class="st1" d="M490.5,178h123c1.9,0,3.5,1.6,3.5,3.5l0,0c0,1.9-1.6,3.5-3.5,3.5h-123c-1.9,0-3.5-1.6-3.5-3.5l0,0
	C487,179.6,488.6,178,490.5,178z"/>
<path class="st1" d="M490.5,197h97c1.9,0,3.5,1.6,3.5,3.5l0,0c0,1.9-1.6,3.5-3.5,3.5h-97c-1.9,0-3.5-1.6-3.5-3.5l0,0
	C487,198.6,488.6,197,490.5,197z"/>
<path class="st1" d="M490,216h113c1.7,0,3,1.3,3,3v1c0,1.7-1.3,3-3,3H490c-1.7,0-3-1.3-3-3v-1C487,217.3,488.3,216,490,216z"/>
<path class="st3" d="M490.5,154h68c1.9,0,3.5,1.6,3.5,3.5l0,0c0,1.9-1.6,3.5-3.5,3.5h-68c-1.9,0-3.5-1.6-3.5-3.5l0,0
	C487,155.6,488.6,154,490.5,154z"/>
<polygon class="st10" points="327,348.2 297.2,353.5 287.3,303.7 311.3,293.2 "/>
<ellipse class="st3" cx="304.8" cy="732.3" rx="164.2" ry="31.7"/>
<path class="st11" d="M311.5,709.3l5.8,5.8c0,0,20.7,11,18.1-3.9c-0.7-4.4-0.8-8.9-0.4-13.4c0.5-6.2,1.8-12.4,3.7-18.3l-19.4-3.9
	c3.2,10.1-2.1,22.9-5.4,29.4C312.5,707.7,311.5,709.3,311.5,709.3z"/>
<path class="st11" d="M267.5,697.5c0.1,2,0.4,4,0.7,5.9c0,0,16.2,11,17.5-1.3c0.8-8-1.1-11.6-2.5-13.2l0,0c-0.9-0.9-1.3-2.1-1.4-3.4
	V671l-14.2,4.5l0.6,12.3C267.2,690.5,267.2,694.3,267.5,697.5z"/>
<path class="st12" d="M311.5,709.3l5.8,5.8c0,0,20.7,11,18.1-3.9c-0.7-4.4-0.8-8.9-0.4-13.4c-4.5-0.7-9.9,4.3-9.9,4.3
	c-7.6,10.7-9.6,6.6-11.2,2.9C312.5,707.7,311.5,709.3,311.5,709.3z"/>
<path class="st13" d="M325.1,703.5c0,0,9-8.4,13.6-1.9s-0.6,11.6,16.8,24.6s0,21.3-11.6,16.2s-35.6-18.8-35.6-18.8s0-21.3,3.2-20.7
	S314.1,719,325.1,703.5z"/>
<path class="st12" d="M267.5,697.5c0.1,2,0.4,4,0.7,5.9c0,0,16.2,11,17.5-1.3c0.8-8-1.1-11.6-2.5-13.2c-1.2-0.9-2.7-1-4-0.4
	c-2.6-1.2-5.4,0.8-7.8,3.2C269.8,693.5,268.5,695.5,267.5,697.5z"/>
<path class="st13" d="M279.2,689.9c0,0,7.1-3.9,8.4,13.6s1.9,15.5,1.9,15.5s6.5,15.5-7.1,13.6s-20-3.2-19.4-11
	c0.4-4.7,1.5-11.5,2.3-16.1s2.9-8.9,6.1-12.3C273.8,690.7,276.6,688.8,279.2,689.9z"/>
<path class="st14" d="M255.9,607.2c0,0-2.6,27.2,0,34.9c1.6,4.7,2.4,16.6,2.9,25.2c0.3,5.6,0.4,9.8,0.4,9.8c12.3,12.9,26.5,0,26.5,0
	s0-4.5-0.1-11.2c-0.1-8.8-0.5-21.4-1.2-32.1c-0.7-8-0.1-16,1.6-23.8c1.2-4.9,2-9.9,2.5-14.9l1.7-18.2c5.8-40.7,12.9-42,12.9-42
	c0.2,0.2,0.5,0.4,0.7,0.6c9.9,9,16.6,41.1,20,61.9c1.7,10.7,2.6,18.4,2.6,18.4s-8.4,34.9-7.8,39.4c0.3,2.1-0.5,7.4-1.5,12.5
	c-1.1,5.9-2.4,11.4-2.4,11.4c16.2,17.5,27.2,3.9,27.2,3.9l2.2-10.4l12.7-60.7c0,0,5.8-38.2,0-67.9c-1.9-9.3-3.2-18.8-3.9-28.3
	c-0.7-10.7-2.5-21.3-5.2-31.8c-0.8-3.1-1.7-6.1-2.6-9.2c-1.4-4.5-24.3-4.2-47.1-4.2c-17.1,0-33.5,2.4-38.2,10.7
	c-1.1,1.9-2.1,3.8-3,5.8c-8.2,17.6-8.4,35.7-0.3,53.7C265.6,560.6,255.9,607.2,255.9,607.2z"/>
<path class="st11" d="M310.2,372.5c0,0,34.3-34.9,8.4-32.3c-5.9,0.6-9.8-0.5-12.5-2.4c-3-2.2-4.3-5.7-4.6-9.2
	c-0.7-7.1,2.2-14.9,2.2-14.9s-34.9-27.8-27.8,7.1c0.8,3.6,1.2,7.2,1.4,10.8c0.1,7.4-2.3,10.2-5.7,11.4c-5.8,2-14.3-0.8-18.3,5.6
	C246.2,360.2,310.2,372.5,310.2,372.5z"/>
<path class="st12" d="M276,320.7c0.8,3.5,1.2,7.2,1.4,10.8c8.1,2.8,17.1,1.7,24.2-3.1c-0.7-7.1,2.2-14.9,2.2-14.9
	S268.8,285.8,276,320.7z"/>
<path class="st11" d="M258.5,303.9c0,15.4,12.4,27.8,27.8,27.8s27.8-12.4,27.8-27.8c0-0.5,0-1,0-1.5c-0.9-15.3-14.1-27-29.4-26.1
	C270,277.2,258.6,289.3,258.5,303.9L258.5,303.9z"/>
<path class="st12" d="M310.2,372.5c0,0,34.3-34.9,8.4-32.3c-5.9,0.6-9.8-0.5-12.5-2.4c5,8.3,10.6,23.2-14.7,21.8
	c-23.2-1.3-22.8-10.5-19.9-16.6c-5.8,2-14.3-0.8-18.3,5.6C246.2,360.2,310.2,372.5,310.2,372.5z"/>
<path class="st15" d="M255.9,489.5c5.9,7.6,80.9-2.4,91.9-5.7c-0.8-3.1-1.7-6.1-2.6-9.2c-1.4-4.5-24.3-4.2-47.1-4.2
	c-17.1,0-33.5,2.4-38.2,10.7c-1.1,1.9-2.1,3.8-3,5.8C256.4,489.1,255.9,489.5,255.9,489.5z"/>
<path class="st1" d="M303.1,334.3c0,0,28.4-0.3,37.6,19.4c5.2,17.5,15.4,61.5,15.4,61.5s6.5,35.6-18.1,18.8l0.3,1
	c4.4,13.6,7.4,27.7,9,41.9c0.3,2.1,0.8,3.8,1.7,4.3c3.2,1.9-86.6,14.9-93.1,6.5c0,0,1.9-1.3,1.3-16.2s5.2-30.4,5.2-30.4
	s5.2-15.5-1.9-30.4s-4.5-19.4-4.5-19.4l-24.6-18.8c0,0,0.7-9.1,10.4-20.3c5.9-6.7,8.2-10.8,17.1-11.4l16.9-1.2
	c0,0-18.6,20,16.3,21.9S303.1,334.3,303.1,334.3z"/>
<path class="st16" d="M332.2,369.9c0,0-1.3,10.3,1.3,13.6s3.2,18.1,0,27.2"/>
<path class="st17" d="M303.8,535.3c9.9,9,16.6,41.1,20,61.9c4.7-28.9-14.9-76.7-14.9-76.7L303.8,535.3z"/>
<path class="st17" d="M314.7,678.9c16.2,17.5,27.2,3.9,27.2,3.9l2.2-10.4c-6.1,3.2-16.4,5.6-26.9-4.9
	C316,673.4,314.7,678.9,314.7,678.9z"/>
<path class="st17" d="M258.8,667.2c0.3,5.6,0.4,9.8,0.4,9.8c12.3,12.9,26.5,0,26.5,0s0-4.5-0.1-11.2
	C280.2,669.2,270.6,672.9,258.8,667.2z"/>
<path class="st18" d="M287.4,391.9h39.1c1.3,0,2.4,1.1,2.4,2.4v13.3c0,1.3-1.1,2.4-2.4,2.4h-39.1c-1.3,0-2.4-1.1-2.4-2.4v-13.3
	C285,392.9,286.1,391.9,287.4,391.9z"/>
<path class="st12" d="M287.4,391.9h39.1c1.3,0,2.4,1.1,2.4,2.4v13.3c0,1.3-1.1,2.4-2.4,2.4h-39.1c-1.3,0-2.4-1.1-2.4-2.4v-13.3
	C285,392.9,286.1,391.9,287.4,391.9z"/>
<path class="st18" d="M287.4,392.5h39.1c1.3,0,2.4,1.1,2.4,2.4v13.3c0,1.3-1.1,2.4-2.4,2.4h-39.1c-1.3,0-2.4-1.1-2.4-2.4v-13.3
	C285,393.6,286.1,392.5,287.4,392.5z"/>
<circle class="st19" cx="294.4" cy="401.2" r="1.9"/>
<path class="st16" d="M347.7,420.5c-1.2-3.5-3.9-6.3-7.3-7.7c-2.7-1-5-3-6.3-5.6c-2.5-5.6-7.1-11.5-18.7-7.6s3.2,6.5,3.2,6.5
	s-26.5-3.9-16.2,3.9s23.3,12.3,23.3,12.3l6.4,6.8c3.6,3.9,9.6,4.1,13.5,0.5c0.3-0.2,0.5-0.5,0.8-0.8
	C348.2,426.4,348.7,423.3,347.7,420.5z"/>
<path class="st11" d="M348.3,419.2c-1.2-3.5-3.9-6.3-7.3-7.7c-2.7-1-5-3-6.3-5.6c-2.5-5.6-7.1-11.5-18.7-7.6s3.2,6.5,3.2,6.5
	s-26.5-3.9-16.2,3.9s23.3,12.3,23.3,12.3l6.4,6.8c3.6,3.9,9.6,4.1,13.5,0.5c0.3-0.3,0.5-0.5,0.8-0.8
	C348.9,425.2,349.4,422,348.3,419.2z"/>
<path class="st16" d="M257.2,432.6l4.5,11l5.8-4.3l16.2-11.9l11-7.1c15.5-11.6,0-13.6,0-13.6c5.8-2.6,0-5.2,0-5.2
	c-20.7-4.6-16.8,12.3-16.8,12.3l-13.1,6.8l-4.4,2.3L257.2,432.6z"/>
<path class="st11" d="M255.9,431.3l4.5,11l5.8-4.3l16.2-11.9l11-7.1c15.5-11.6,0-13.6,0-13.6c5.8-2.6,0-5.2,0-5.2
	c-20.7-4.5-16.8,12.3-16.8,12.3l-13.1,6.8l-4.4,2.3L255.9,431.3z"/>
<path class="st12" d="M255.9,431.3l4.5,11l5.8-4.3c-5.2,0.2-11.4-2.4-2.7-18.7l-4.4,2.3L255.9,431.3z"/>
<path class="st1" d="M232,366l-1.3,5.1l3.8,37.6l3.2,25.2c0,0,1.3,16.8,16.2,12.3s16.2-9,16.2-9s-21.3,7.1-7.8-18.1
	c0,0-7.8,3.9-6.5-6.5c1.3-10.4,0-28.5,0-28.5L232,366z"/>
<path class="st20" d="M258.5,303.9c0,13,9,24.3,21.6,27.1c0.9-2.7,1.6-5.4,0.9-8.1c-1.3-5.3-7.4-9.1-6.7-14.5
	c0.1-0.6,0.3-1.2,0.6-1.7c1.4-1.8,4.1-0.9,6.4-0.5c6,1,11.7-2.6,13.5-8.3c5.1,5,12.5,6.7,19.2,4.5c-0.9-15.3-14.1-27-29.4-26.1
	C270,277.2,258.6,289.3,258.5,303.9L258.5,303.9z"/>
<path class="st21" d="M343.8,739.7c7.6,3.4,17.6,1,18.9-4.6c1.6,7.4-10.2,11-18.9,7.2c-11.6-5.2-35.6-18.8-35.6-18.8s0-1,0-2.6
	C309,721.4,332.4,734.6,343.8,739.7z"/>
<path class="st21" d="M263,721.2c0.8,5.8,7.2,7,19.4,8.8c6.2,0.9,8.2-1.9,8.6-5.1c0.4,4.2-0.8,8.8-8.6,7.7c-13.6-1.9-20-3.2-19.4-11
	C263,721.5,263,721.3,263,721.2z"/>
<path class="st22" d="M183.1,732.9c0,0,9.4-47.5-9.9-79.9c-8.2-13.6-11.7-29.5-10.1-45.2c0.8-7.5,2.3-14.9,4.5-22.1"/>
<path class="st1" d="M155.5,565.1c0.5,5.7,12.3,21.1,12.3,21.1s8.7-17.3,8.2-23c-0.4-5.7-5.3-9.9-11-9.5s-9.9,5.3-9.5,11l0,0V565.1
	L155.5,565.1z"/>
<path class="st1" d="M141.5,598c3.5,4.5,21.8,11.1,21.8,11.1s-2.1-19.3-5.6-23.8c-3.4-4.5-9.9-5.4-14.4-2c-4.4,3.3-5.4,9.4-2.3,14
	C141.1,597.5,141.3,597.8,141.5,598L141.5,598z"/>
<path class="st1" d="M147.1,651.5c5.3,2.1,24.4-1.5,24.4-1.5s-11.6-15.6-16.9-17.7c-5.4-1.9-11.2,0.9-13.1,6.3
	c-1.8,5,0.5,10.5,5.3,12.7L147.1,651.5z"/>
<path class="st1" d="M160.5,691c4.9,3,24.3,2.7,24.3,2.7s-8.8-17.3-13.6-20.3s-11.2-1.6-14.2,3.2s-1.6,11.2,3.2,14.2l0,0L160.5,691
	L160.5,691z"/>
<path class="st1" d="M184.9,608.2c-3.7,4.3-22.2,10.1-22.2,10.1s2.9-19.2,6.6-23.5c3.7-4.3,10.2-4.8,14.5-1.1
	S188.6,603.9,184.9,608.2L184.9,608.2L184.9,608.2z"/>
<path class="st1" d="M200,654.6c-4.8,3-24.3,3-24.3,3s8.5-17.5,13.3-20.5c4.9-2.9,11.2-1.4,14.1,3.5c2.8,4.7,1.5,10.7-3,13.8
	L200,654.6L200,654.6z"/>
<path class="st1" d="M208.4,701.7c-4.2,3.8-23.4,7.1-23.4,7.1s5.4-18.7,9.7-22.4c4.1-3.9,10.6-3.8,14.6,0.3s3.8,10.6-0.3,14.6
	L208.4,701.7z"/>
<path class="st16" d="M255.8,372.2c0,0-1.3,10.4,1.3,13.6s3.2,18.1,0,27.2"/>
<path class="st23" d="M333.4,339.8c-0.3-0.6-0.8-1-1.3-1.4c-0.8-0.7-1.5-1.4-2.2-2.3l-0.1-0.1c-2.1-4.4-4.4-8.7-6.8-13
	c-5.1-8.8-4.6-15.6-4-18.7c0.6-2.7,0.9-5.5,0.8-8.2c-0.6-17.3-12.1-21.7-12.1-21.7c-40.5-21.4-50.9,12.2-53.6,29.1
	c-0.6,4.1-0.3,8.2,0.9,12.1c1.3,4.8-1.4,10.4-1.7,11l-0.1,0.1c-1.8,2.4-3.2,4.4-4.3,6.1l-0.2,0.3c-0.5,0.7-3.1,5.1-4,6.9
	c-0.8,1.7-1.6,3.8-0.5,5.3c1.1,1.2,2.8,1.4,4.2,0.7c1.2-0.6,2.2-1.5,3-2.5l0.5,0.1c0.8,3.3,2.7,6.3,5.3,8.5c1.1,1.1,2.5,1.8,4,2
	c0.1,0,0.1,0,0.2,0c1.1-0.1,2.2-0.8,2.6-1.7c0.2-0.5,0.8-0.7,1.3-0.4c1.9,1.2,4,2.2,6.3,2.8c2.7,0.8,5.6,0.3,7.8-1.3
	c0,0,0.1,0,0.1-0.1c0.7-0.6,1.4-1.4,2.1-1.9c0.5-0.3,0.5-1,0-1.4c-0.9-0.6-1.7-1.2-2.7-1.8c-0.2-0.1-0.3-0.3-0.3-0.5
	c-0.6-1.9-0.4-5.1,2.4-10.2c5.5-10-3.9-22.6-8.7-28c-4.1-4.6-1.2-7.9-0.3-8.8c0.2-0.1,0.3-0.2,0.5-0.2c4.7-0.2,14.5-4.2,19.8-6.5
	c0.8-0.4,1.6,0.7,1,1.3l0,0c-0.5,0.6,0,1.5,0.8,1.4c9.6-1.4,14.4-11.7,14.4-11.7l0.1,0.2c4.2,10.8,7,22.1,8.3,33.6l1,16.5
	c0.1,1.5,0.6,2.9,1.6,4.1c0.9,1.1,1.8,2.2,2.4,2.7s1.2,0.8,1.8,1.2v-0.1c2.6,1.1,5.6,0.9,8.1-0.5
	C332.8,342.2,333.9,340.9,333.4,339.8z"/>
<path class="st10" d="M299.5,332.4"/>
<use xlink:href="#Nuevo_símbolo_1"  width="-32766" height="-32766" id="XMLID_1_" x="16383" y="16383" transform="matrix(2.27 0 0 2.27 677.6832 659.2971)" style="overflow:visible;"/>
<g>
	<path class="st3" d="M654.2,720.6L654.2,720.6c-8.5,0-15.4,7-15.4,15.4v5.5c0,8.5,7,15.4,15.4,15.4l0,0c8.5,0,15.4-7,15.4-15.4V736
		C669.6,727.6,662.7,720.6,654.2,720.6z"/>
	<path class="st24" d="M655.1,678.8h-2.1c-14.1,0-25.6,11.5-25.6,25.6v11.5c0,14.1,11.5,25.6,25.6,25.6h2.1
		c14.1,0,25.6-11.5,25.6-25.6v-11.5C681,690.3,669.5,678.8,655.1,678.8z"/>
	<path class="st24" d="M619.2,700.3h63.1l22.6,14.7c1.3,0.8,3,0.6,3.8-0.8c0.4-0.4,0.4-0.9,0.4-1.5l0.2-18.5l0.9-0.6
		c10.9-7.2,17.3-19.2,17.3-32l0,0c0-21.3-17.3-38.6-38.6-38.8h-69.7c-21.3,0-38.6,17.3-38.6,38.8l0,0
		C580.5,682.9,597.9,700.3,619.2,700.3z"/>
	<line class="st25" x1="630.3" y1="605.1" x2="630.3" y2="622.8"/>
	<line class="st25" x1="677.7" y1="605.1" x2="677.7" y2="622.8"/>
	<circle class="st24" cx="677.9" cy="605.1" r="7.7"/>
	<circle class="st24" cx="630.3" cy="605.1" r="7.7"/>
	<path class="st3" d="M684,631.7h-59.7c-16.2,0-29.4,13.2-29.4,29.4l0,0c0,16.2,13.2,29.4,29.4,29.4H684c16.2,0,29.4-13.2,29.4-29.4
		l0,0C713.4,644.9,700.2,631.7,684,631.7z"/>
	<circle class="st1" cx="681.9" cy="658.6" r="8.9"/>
	<circle class="st1" cx="626.3" cy="658.6" r="8.9"/>
	<path class="st1" d="M645.5,672.2c0,0,0,0.6,0,0.9c0,4.7,3.8,8.5,8.5,8.5c4.7,0,8.5-3.8,8.5-8.5c0-0.4,0-0.9,0-0.9H645.5z"/>
	<circle class="st26" cx="650.2" cy="708" r="2.1"/>
	<circle class="st26" cx="643.3" cy="708" r="2.1"/>
	<circle class="st26" cx="636.5" cy="708" r="2.1"/>
</g>
</svg>
