<?xml version="1.0" encoding="UTF-8"?>
<!DOCTYPE svg PUBLIC "-//W3C//DTD SVG 1.1//EN" "http://www.w3.org/Graphics/SVG/1.1/DTD/svg11.dtd">
<!-- Creator: CorelDRAW 2021 (64-Bit) -->
<svg xmlns="http://www.w3.org/2000/svg" xml:space="preserve" width="24mm" height="24mm" version="1.1" style="shape-rendering:geometricPrecision; text-rendering:geometricPrecision; image-rendering:optimizeQuality; fill-rule:evenodd; clip-rule:evenodd"
viewBox="0 0 2400 2400"
 xmlns:xlink="http://www.w3.org/1999/xlink"
 xmlns:xodm="http://www.corel.com/coreldraw/odm/2003">
 <defs>
  <style type="text/css">
   <![CDATA[
    .fil0 {fill:#263238}
   ]]>
  </style>
 </defs>
 <g id="Capa_x0020_1">
  <metadata id="CorelCorpID_0Corel-Layer"/>
  <g id="_2276470115504">
   <path class="fil0" d="M2012.54 2303.74c-51.69,30.69 -390.62,11.37 -482.53,11.37l-1.03 -75.22 492.8 0.27c2.19,28.42 -7.91,50.58 -9.24,63.58zm-492.09 -882.54l1.59 -86.86 49.28 -5.92c36.78,-9.41 35.6,-10.09 28,-53.11 -21.41,-10.15 -49.9,-11.35 -81.33,-11.36l0.14 -163.68c150.77,-75.98 86.39,-113.31 84.62,-195.74l227.81 -0.81c1.62,136.78 -72.05,70.72 70.75,188.5 26.55,21.91 55.76,43.69 80.13,65.09 32.35,28.42 43.5,46.14 41.05,103.42 -83.37,13.34 -261.65,-13.29 -320.46,14.58l-2.4 44.2c61.12,27.95 239.45,1.52 322.79,14.64l1.04 834.97 -498.07 3.91c-20.76,-55.49 -26.72,-20.03 -23.75,-108.33 1.46,-43.58 4.72,-90.28 -0.51,-132.92 -3.92,-49.26 -5.27,-212.48 10.81,-246.26l-2.08 -111.93c75.45,28.79 107.97,-20.93 199.65,-23.02 76.41,-1.75 157.23,47.3 200.87,26.38 26.76,-13.09 171.22,-168.77 -154.91,-195.69 -85.6,-7.07 -165.77,10.53 -235.02,39.94zm-896.24 -448.51l-3.77 -133.09 147.69 -0.38 -2.7 136.78 -141.22 -3.31zm-141.33 230.32l385.39 0.43 -2.65 96.43c-526.86,35.12 -440.86,-181.48 -441.22,655.66 -0.03,65.15 -14.09,149.57 40.1,173.65 50.74,22.54 338.88,-6.01 424.07,11.05 -34.59,28.23 -24.55,112.86 -19.14,171.28l-470.93 2.13c-11.38,-101.01 -7.12,-574.43 -6.2,-738.11 0.3,-57.35 -52.06,-63.24 -58.71,-5.73 -12.34,106.59 -3.23,401.31 -3.23,485.58 0,306.86 -34.39,326.96 199.24,326.76l1307.16 -0.01c302.38,0.01 253.7,25.84 253.7,-535.53 0,-175.5 -0.27,-351.01 0.02,-526.5 0.17,-103.83 7.59,-150.91 -56.62,-206.3 -28.94,-24.97 -116.02,-97.95 -144.23,-110.74 5.95,-128.99 17.42,-155.29 -11.97,-287.7 -13.09,-58.96 22.12,-213.34 -0.38,-296.21 -27.06,-59.34 -287.03,-30.13 -314.55,-18.41 -15.67,45.4 -17.71,181.71 -9.08,238.18 16.35,107.08 -10.36,66.63 -17.67,200.12 -0.69,37.54 -1.76,71.09 3.07,108.63 6.59,51.33 21.7,42.88 -20.06,67.02l1.07 -184.73c-20.28,-50.48 -36.41,-53.62 -68.13,-87.21 -95.36,-101.01 -123.65,-103.97 -103.56,-209.16 11.1,-58.1 14.74,-425.34 -5.47,-453.6 -27.08,-37.88 -259.09,-23.99 -278.36,-12.75 -42.45,24.75 -28.35,414.2 -22.22,450.8 7.82,46.59 23.04,89.09 -11.79,132.11 -26.49,32.72 -138.15,133.82 -150.86,166.54 -18.83,48.46 -1.35,233.78 -5.58,302.02 -28.07,-10.6 -38.91,-19.83 -50.39,-48.73 -18.98,-47.76 25.02,-33.11 14.06,-231.67 -3.95,-71.49 -39.91,-70.04 -108.13,-69.56 -65.48,0.47 -114.31,-5.05 -167.07,12.16 -12.47,41.29 -20.03,187.74 -4.09,229.76 9.78,25.78 22.94,17.14 8.77,55.67 -30.97,84.26 -139.26,47.04 -202.43,134.53 -45.56,63.1 -59.43,305.17 20.24,230.57 35.65,-33.38 -32.21,-212.53 97.83,-228.43zm8.23 706.12l383.44 0 9.39 0.03 10.33 131.77 -7.68 28.94 -389.75 -0.82 -5.73 -159.92zm1128.27 -1449.41l193.54 0 0 48.05 -194.84 -2.05 1.3 -46zm-344.18 107.05c-21.73,164.2 181.07,180.85 180.25,326.14l-15.54 871.99c-1.65,95.46 -31.7,363.71 17.39,422.75 11.05,23.47 12.22,70.05 2.01,109.42l-4.64 12.4c-0.44,1.22 -1.88,3.69 -2.74,5.58l-518.76 -25.16c-1.97,-10.64 -2.23,-23.44 -2.84,-34.43 -2.02,-36.86 -5.01,-43.18 7.07,-66.44 40.55,-56.62 18.15,-347.05 16.67,-433.29 -1.88,-110.66 -22.36,-864.2 -12.93,-905.17 22.05,-95.83 183.55,-116.86 175.75,-285.15l158.31 1.36zm-164.39 -71.29l-2.44 -248.73 175.18 1.98 0 247.16 -172.74 -0.41zm0 -318.42l-0.25 -48.08 172.99 0 0 48.49 -172.74 -0.41zm-619.79 1606.54l396.22 -0.01 -3.62 53.24 -391.81 0 -0.79 -53.23zm4.15 -67.19c-8.43,-49.44 -10.08,-304.1 2.47,-348.43l382.71 2.31 -1.26 346.12 -383.92 0zm1043.72 -222.07c33.44,-38.4 120.67,-47.61 179.88,-47.38 38.79,0.15 67.09,4.49 104.4,13.77 95.25,23.72 63.28,20.59 68.17,44.07 -24.11,14.73 1.77,12.99 -40.95,3.21 -8.48,-1.95 -30.93,-10.68 -43.23,-13.79 -96.73,-24.49 -164.17,-3.54 -250.24,22.12l-18.03 -22zm-927.1 -366.09c6.69,-17.01 12.96,-28.97 20.79,-50.14 14.36,-38.84 -4.56,-24.46 24.11,-37.03l86.57 0.74 33.38 87.01 -164.85 -0.58zm992.83 -293.13c0.28,-28.74 4.23,-52.97 10.06,-82 16.4,-81.63 2.31,-62.96 189.58,-62.96 9.37,46.77 25.92,93.98 23.79,146.75l-223.43 -1.79zm15.04 -267.45l195.63 2.65 0.51 52.04 -197.82 0.8 1.68 -55.49z"/>
   <path class="fil0" d="M1078.52 1306.8l237.75 -0.39 -5.4 177.93 -227.34 -0.5 -5.01 -177.04zm-27.6 -60.69c-56.99,24.36 -42.58,69.54 -41.01,137.52 0.99,43.06 -8.99,124.27 19.31,153.85 25.67,26.82 280.13,29.82 319.81,11.54 53.11,-24.45 45.56,-266.28 15.53,-292.65 -26.09,-22.91 -278.55,-25.26 -313.64,-10.26z"/>
   <path class="fil0" d="M1051.4 1045.61c0.15,-46.02 4.73,-46.44 52.41,-59.11 63.96,-16.99 129.41,-16.97 193.27,1.8 42.97,12.62 45.34,13.64 45.55,57.91 -47.28,-2.76 -79.3,-30.94 -150.47,-29.79 -62.13,1.01 -101.35,28.37 -140.76,29.19zm59.48 -128.16c-52.33,12.16 -98.54,23.56 -116.21,59.62 -14.81,30.21 -19.52,119.44 8.22,142.89 51.44,43.45 135.73,-77.24 274.95,-21.83 37.53,14.94 91.2,60.3 121.75,12.24 20.26,-31.88 12.42,-119.06 -7,-145.02 -40.14,-53.66 -198.59,-67.24 -281.71,-47.9z"/>
   <path class="fil0" d="M1683.94 1698.43c161.84,-31.3 240.37,122.07 78.66,156.24 -172.9,36.53 -262.34,-120.72 -78.66,-156.24zm-161.61 53.94l-1.83 46.97c20.07,169.25 391.12,171.61 398.18,-16.55 7.23,-192.69 -376.83,-205.45 -396.35,-30.42z"/>
   <path class="fil0" d="M657.15 1472.57c112,-52.27 157.96,108.02 75.24,141.36 -54.17,21.83 -98.25,-5.03 -112,-40.18 -19.94,-51.01 2.76,-85.32 36.76,-101.18zm7.4 -75.08c-191.74,40.77 -129.03,323.98 59.1,288.31 187.8,-35.6 134.69,-329.52 -59.1,-288.31z"/>
   <path class="fil0" d="M1512.1 2062.15c45.63,26.95 335.95,16.15 409.32,7.87l0.38 -52.45c-114.1,-19.64 -232.19,-8.48 -347.72,-8.12 -54.05,0 -71.16,-3.99 -61.98,52.7z"/>
   <path class="fil0" d="M1040.23 2090.7c42.49,26.48 270.32,26.23 313.57,0.68 6.59,-76.62 -57.81,-52.27 -252.32,-52.27 -49.81,0 -65.96,-1.02 -61.25,51.59z"/>
   <path class="fil0" d="M1043.64 1994.77c98.26,12.11 207.97,9.6 306.86,1.44 22.08,-87.1 -65.32,-62.21 -249.02,-62.21 -55.27,0 -70.82,10.78 -57.84,60.77z"/>
   <path class="fil0" d="M629.45 2031.11c58.84,0 150.79,8.33 188.32,-13.44l0.88 -40.34c-44.41,-21.66 -125.23,-13.27 -189.2,-13.27 -95.24,0 -81.14,67.05 0,67.05z"/>
   <path class="fil0" d="M1457.3 2187.65l-7.72 116.15c-42.16,10.44 -467.38,-2.27 -505.8,-13.4l-6.38 -101.38c-12.08,23.26 -32.2,25.89 -30.17,62.74 0.6,10.99 21.66,48.29 23.63,58.92l537.57 26.98c3.77,-8.23 4.96,-35.47 12.88,-39.98 10.21,-39.37 -12.96,-86.56 -24.01,-110.03z"/>
  </g>
 </g>
</svg>
