<?xml version="1.0" encoding="UTF-8"?>
<!DOCTYPE svg PUBLIC "-//W3C//DTD SVG 1.1//EN" "http://www.w3.org/Graphics/SVG/1.1/DTD/svg11.dtd">
<!-- Creator: CorelDRAW 2021 (64-Bit) -->
<svg xmlns="http://www.w3.org/2000/svg" xml:space="preserve" width="24mm" height="24mm" version="1.1" style="shape-rendering:geometricPrecision; text-rendering:geometricPrecision; image-rendering:optimizeQuality; fill-rule:evenodd; clip-rule:evenodd"
viewBox="0 0 2400 2400"
 xmlns:xlink="http://www.w3.org/1999/xlink"
 xmlns:xodm="http://www.corel.com/coreldraw/odm/2003">
 <defs>
  <style type="text/css">
   <![CDATA[
    .fil0 {fill:#263238}
   ]]>
  </style>
 </defs>
 <g id="Capa_x0020_1">
  <metadata id="CorelCorpID_0Corel-Layer"/>
  <path class="fil0" d="M1574.88 1596.64l35.13 -1.06 294.6 0.18 36.26 0.69 -0.01 702.44 -365.57 0.94 -0.41 -703.19zm-280.34 -1105.78c68.92,-49.65 154.57,8.33 76.4,92.85 -75.9,6.29 -91.29,-26.18 -76.4,-92.85zm13.76 -77.68c-164.98,60.74 -79.98,284.27 82.5,230.65 144.86,-47.8 72.18,-287.6 -82.5,-230.65zm-423.58 -225.5c-258.27,77.55 24.21,714.69 444.93,644.49 352.3,-58.78 306.21,-455.03 216.02,-463.82 -112.49,-10.96 109.96,166.73 -86.69,334.39 -195.63,166.79 -485.02,14.4 -581.76,-245.5 -27.81,-74.74 -63.94,-214.29 56.93,-199.2 106.56,13.3 131.48,60.67 272.62,51.58 58.21,-3.74 99.12,-10.23 157.65,2.47 42.13,9.14 107.3,1.89 63.33,-45.78 -43.37,-47.02 -217.31,-18.65 -283.94,-22.81 -96.13,-5.99 -169.07,-82.85 -259.09,-55.82zm-429.96 1408.13l886.62 -0.05 -0.19 452.65 -851.3 0.19 -35.13 -1.19 0 -451.6zm-67.11 -7.45l0 465.97c0,58.06 0.63,61.16 57.45,61.16l900.57 0c58.79,0 62.79,-7.85 62.79,-61.16 0,-134.76 8.53,-402.36 -7.52,-521.99 -145.41,-12.83 -763.83,-3.75 -955.84,-3.67 -53.58,0 -57.45,3.89 -57.45,59.69zm1125.19 -34.28c-15.1,23.92 -8.62,43.63 -8.48,88.04l-1.88 652.81 -869.21 0c-40.78,0 -27.13,8.08 -31.45,14.4 -93.27,67.86 107.07,57.66 138.98,57.65 279.13,-0.06 1521.28,13.52 1596.12,-6.69 22.15,-89.82 -77.48,-56.3 -155.81,-61.61l-3.56 -940.36c87.1,-27.47 152.93,-79.12 164.89,-175.41 6.81,-54.8 -21.51,-79.3 -46.58,-119.09l-198.26 -321.47c-97.02,-153.99 -17.19,-175.22 -55.93,-293.08 -59.97,-14.49 -237.96,-6.34 -315.17,-6.34 -24.7,-7.03 -22.37,-65.7 -80.53,-144.86 -158.48,-215.74 -349.88,-154.78 -501.49,-170.8 -121.38,-12.82 -228.91,-104.07 -358.12,-16.61 -102.21,69.17 -120.78,180.22 -100.31,331.23l-333.61 2.29c-14.62,47.89 -8.06,114.82 -7.87,167.91 0.23,67.62 -13.77,78.71 -43.07,124.77l-198.26 321.49c-23.78,37.88 -54.39,68.48 -51.01,116.55 7.13,101.31 77.78,155.89 165.72,183.42l-0.16 940.36c-81.57,5.31 -181.43,-28.21 -159.13,61.61 45.36,12.22 348.52,11.61 398.55,1.49 22.9,-90.56 -46.16,-53.84 -172.11,-63.74l0 -944.6c68.83,-25.33 67.53,-35.03 115.19,-78.76l28.03 25.8c117.24,112.44 213.94,43.07 289.57,-21.75 0.98,-0.84 3.2,-2.81 4.99,-3.94 123.74,115.04 190.6,114.07 313.63,-0.04 25.21,16.13 141.09,170.56 303.38,16.59l19.22 -16.55c123.74,115.04 190.6,114.07 313.63,-0.04l62.79 53.71c88.63,56.49 172.43,27.71 240.59,-37.13 1.32,-1.26 3.27,-3.22 4.56,-4.4l14.65 -12.23c47.23,43.48 46.9,53.72 115.19,78.74l-0.25 945.94 -99.18 0.06c-24.79,-141.85 25.17,-683.68 -12.78,-758.64 -24.16,-27.47 -296.27,-11.7 -379.43,-12.18 -106.09,-0.6 -93.8,-7.35 -106.04,25.46zm-743.78 -917.36l-355.84 2.76 0 -123.94 291.34 -0.18 64.5 121.36zm945.65 549.25l238.65 0c-27.89,143.76 -216.92,132.49 -238.65,0zm-636.23 0l238.66 0c-27.9,143.76 -216.93,132.49 -238.66,0zm-636.22 0l238.06 0c-27.31,143.76 -216.33,132.49 -238.06,0zm1590.11 0.45l238.51 -0.4c-25.36,130.65 -198.39,146.4 -238.51,0.4zm-636.22 0l239.63 -0.4c-26.49,130.65 -199.52,146.4 -239.63,0.4zm-636.23 0l239.63 -0.4c-26.48,130.65 -199.51,146.4 -239.63,0.4zm-636.22 0l240.75 -0.4c-27.6,130.65 -200.64,146.4 -240.75,0.4zm969.29 -266.31c79.44,13.24 114.46,29.33 208.99,26.47l17.75 170.09 -241.87 1.98 15.13 -198.54zm278.91 23.16c9.75,-5.86 2.62,-2.83 20.77,-10.65 10.43,-4.51 15.22,-5.72 27.26,-9.65 20.87,-6.8 29.46,-9.03 51.43,-19.73 33.5,-16.32 58.04,-34.29 84.89,-47.95 16.9,23.71 70.66,226.34 69.81,263.56l-235.68 -0.16 -18.48 -175.42zm-364.32 174.95l-238.01 0.71c-1.28,-54.12 71.1,-283.13 87.68,-355.8 46.82,26.84 72.21,81.22 170.6,123.26l-20.27 231.83zm666.1 -406.76l89.64 -1.18 177.01 406.6 -236.89 1.97c-24.93,-68.48 -38.9,-140.84 -58.33,-210.74 -43.42,-156.23 -29.05,-82.96 28.57,-196.65zm-979.25 407.68l-236.17 -0.39 175.15 -407.76 167.95 -0.05 -106.93 408.2zm1142.04 -405.47c186.49,-16.8 164.08,-2.89 218.99,88.9 35.92,60.04 183.05,284.13 189.14,316.28l-227.49 -0.07 -180.64 -405.11zm-1456.14 405.6l-229.3 -0.38c2.79,-14.48 229.53,-402.99 258.22,-408.46l149.2 0.84 -178.12 408zm1329.91 -486.72l6.99 -72.93 8.58 -44.09 253.81 0 0 123.95c-56,0 -233.83,11.98 -269.38,-6.93zm-965.57 -244.95c-18.61,-131.08 41.84,-245.66 166.27,-245.95 123.64,-0.29 94.77,61.22 358.56,52.26 236.63,-8.03 446.58,178.72 370.1,429.32 -58,190.04 -286.82,319.61 -536.06,226.18 -164.37,-61.62 -328.5,-248 -358.87,-461.81z"/>
 </g>
</svg>
