<?xml version="1.0" encoding="UTF-8"?>
<!DOCTYPE svg PUBLIC "-//W3C//DTD SVG 1.1//EN" "http://www.w3.org/Graphics/SVG/1.1/DTD/svg11.dtd">
<!-- Creator: CorelDRAW 2021 (64-Bit) -->
<svg xmlns="http://www.w3.org/2000/svg" xml:space="preserve" width="24mm" height="24mm" version="1.1" style="shape-rendering:geometricPrecision; text-rendering:geometricPrecision; image-rendering:optimizeQuality; fill-rule:evenodd; clip-rule:evenodd"
viewBox="0 0 2400 2400"
 xmlns:xlink="http://www.w3.org/1999/xlink"
 xmlns:xodm="http://www.corel.com/coreldraw/odm/2003">
 <defs>
  <style type="text/css">
   <![CDATA[
    .fil0 {fill:#263238}
   ]]>
  </style>
 </defs>
 <g id="Capa_x0020_1">
  <metadata id="CorelCorpID_0Corel-Layer"/>
  <g id="_2276444535504">
   <path class="fil0" d="M775.06 2219.65c-35.5,24.46 -81.53,73.61 -138.29,38.18 -59.06,-36.86 -32.07,-102.4 15.46,-132.25l367.09 -235.79c38.32,16.08 81.13,50.35 109.23,75.07l-353.49 254.79zm-484.02 -1160.09c108.78,-24.82 220.1,29.84 271.98,82.79 105.15,107.32 54.52,243.98 85.54,278.72l448.46 289.71c150.85,95.16 303.25,188.31 450.36,288l222.08 142.4c38.44,35.1 29.65,99.49 -12.85,120.88 -54.09,27.22 -91.21,-13.14 -127.36,-38.31l-863.71 -612.8c-93.35,-67.74 -158.94,-138.95 -225.69,-106.59 -96.66,46.85 -193.4,42.47 -277.5,-13.23 -200.06,-132.47 -174.93,-385.11 28.69,-431.57zm1473.62 351.77c1.43,-125.15 -2.57,-186.37 66.51,-264.1 40.22,-45.25 137.35,-97.92 231.1,-94.44 208.85,7.76 266.07,226.81 145.86,375.41 -87.71,108.42 -213.71,139.7 -355.58,72.76 -49.02,-23.13 -65.73,1.15 -101.3,26.48l-286.87 202.37c-31.8,21.75 -57.79,46.86 -92.82,63.36l-96.53 -57.2 61.35 -48.01c24.34,-16.27 41.56,-26.81 64.48,-41.01l363.8 -235.62zm-1049.43 -37.67c-4.05,-127.52 -17.79,-196.72 -92.19,-272.2 -267.62,-271.53 -651.64,-61.64 -562.05,245.46 46.2,158.39 235.48,321.75 449.56,253.54 81.23,-25.87 64.34,-32.73 127.69,13.22 64.89,47.08 281.64,192.94 311.39,224.98l-14.47 14c-1.4,1.2 -3.65,3.13 -5.14,4.35 -4.67,3.81 -11.58,8.73 -16.44,12.08l-257.98 164.08c-45.52,30.81 -103.8,60.3 -120.75,118.58 -38.22,131.4 98.02,261.81 244.4,158.43l420.17 -294.48 425.46 298.75c142.62,100.06 287.46,-37.22 237.16,-170.16 -26.65,-70.47 -202.29,-164.58 -270.24,-208.85 -42.18,-27.48 -110.82,-62.78 -142.58,-96.78l363.81 -261.48c94.62,11.37 120.16,59.69 254.99,27.6 240.39,-57.2 352.49,-342.83 229.08,-508.9 -159.19,-214.21 -599.81,-152.74 -613.57,277.7 -54.16,36.15 -466.07,305.58 -484.01,305.49 -17.38,-0.07 -431.49,-269.21 -484.29,-305.41z"/>
   <path class="fil0" d="M1457.17 302.76c75.48,-0.3 103.14,-103.03 259.71,-92.99 199.17,12.76 322.08,242.21 200.95,419.91 -25.25,37.04 -52.83,62.15 -97.37,85.33 -135.43,70.46 -140.97,-35.82 -174.47,132.48l-62.82 319.93 -147.17 0.17 30.29 -224.62 -76.09 -10.89 -31.6 231.68 -120.87 4.39 -0.01 -422.44 -76.5 0 -0.11 421.86 -120.97 -1.34 -32.62 -233.27 -71.43 9.39 26.94 225.19 -147.36 -0.02c-15.72,-96.04 -38.32,-194.17 -57.09,-288.65 -43.21,-217.52 -32.53,-82.92 -186.36,-167.26 -301.81,-165.49 -63.27,-619.14 238.3,-478.54 37.71,17.59 88.35,64.86 105.27,68.42 42.72,8.98 58.91,-52.93 89.38,-85.57 89.49,-95.86 256.92,-118.53 373.85,-14.32 34.52,30.77 53.21,77.41 78.15,101.16zm-545.38 -101.03c-104.13,-53.44 -173.02,-98.09 -318.51,-52.7 -301.91,94.2 -359.07,583.92 77.16,673.66l108.08 543.59 73.64 -15.38 -20.02 -106.59 731.61 -0.14 -17.42 105.8 72.02 16.48 110.82 -543.5c434.28,-88.44 380.26,-567.69 84.08,-672.05 -146.44,-51.59 -232.3,3.32 -326.2,50.86 -35.33,-27.26 -101.64,-146.04 -287.63,-146.04 -98.88,0 -198.91,44.88 -258.42,114.83l-29.21 31.18z"/>
   <path class="fil0" d="M1679.67 1855.75c45.45,-18.55 88.74,-67.5 134.75,-93.12 76.05,-42.35 269.1,92.34 517.69,-134.9l-50.83 -55.21c-64.69,68.77 -200.11,127.78 -334.43,116.61 -105.99,-8.81 -94.27,-49.26 -175.75,11.64 -36.99,27.65 -93.06,69.6 -131.02,89.32 12.49,30.24 22.73,41.27 39.59,65.66z"/>
   <path class="fil0" d="M228.2 641.59l72.28 -21.31c-36.82,-230.37 -24.18,-323.66 147.51,-482.53 10.96,-10.13 8.01,-5.82 15.54,-15.29 -12.58,-26.29 -18.11,-39.25 -40.72,-56.01 -66.72,33.63 -149.68,135.35 -184.72,226.04 -53.1,137.46 -38.5,213.69 -9.89,349.1z"/>
   <path class="fil0" d="M271.67 725.41c15.07,37.23 29.3,49.89 55.27,76.14 23.07,-11.9 35.64,-18.79 52.83,-46.3 -14.25,-19.92 -26.28,-41.04 -43.53,-64.72l-64.57 34.88z"/>
  </g>
 </g>
</svg>
