<?xml version="1.0" encoding="UTF-8"?>
<!DOCTYPE svg PUBLIC "-//W3C//DTD SVG 1.1//EN" "http://www.w3.org/Graphics/SVG/1.1/DTD/svg11.dtd">
<!-- Creator: CorelDRAW 2021 (64-Bit) -->
<svg xmlns="http://www.w3.org/2000/svg" xml:space="preserve" width="16.9418mm" height="21.9323mm" version="1.1" style="shape-rendering:geometricPrecision; text-rendering:geometricPrecision; image-rendering:optimizeQuality; fill-rule:evenodd; clip-rule:evenodd"
viewBox="0 0 1788.74 2315.64"
 xmlns:xlink="http://www.w3.org/1999/xlink"
 xmlns:xodm="http://www.corel.com/coreldraw/odm/2003">
 <defs>
  <style type="text/css">
   <![CDATA[
    .fil0 {fill:#BC4ED8;fill-rule:nonzero}
   ]]>
  </style>
 </defs>
 <g id="Capa_x0020_1">
  <metadata id="CorelCorpID_0Corel-Layer"/>
  <path class="fil0" d="M1571.73 1871.99c-17.55,0 -34.47,2.2 -50.8,6.29l-36.01 -74.58 169.3 33.04c2.15,0.62 4.61,0.62 6.77,0.62 12.93,0 24.94,-7.23 31.09,-19.19 7.38,-13.84 4.92,-31.16 -6.16,-42.49l-165.92 -168.97c-0.61,-0.62 -1.22,-1.26 -1.84,-1.57 21.23,-46.26 14.46,-99.12 -18.78,-140.02l-168.99 -207.37c16.92,-6.6 31.08,-19.19 38.47,-35.55 9.85,-20.77 7.7,-45 -5.85,-63.88l-34.17 -49.1c-12.62,-17.94 -34.17,-29.57 -57.87,-30.84l-102.2 -4.72c-21.54,-0.94 -42.48,6.61 -57.25,21.08 -12.93,12.59 -20.02,29.27 -20.02,46.89l0 62.62c0,5.34 0.61,11.01 2.15,16.04l-115.41 0.02c-19.54,-0.02 -35.39,16.19 -35.39,36.16 0,19.99 15.85,36.19 35.4,36.19l148.98 0.02c-3.08,45.3 28.01,95.34 58.18,143.49 10.16,16.05 19.7,31.16 26.16,43.73 52.63,101.33 -8.62,195.1 -62.8,277.54 -14.46,22.02 -28.01,42.79 -38.17,61.99 -14.16,27.07 -44.32,54.44 -85.88,49.4l-295.51 -37.76c-17.85,-2.21 -33.55,-10.39 -42.17,-22.35 -4.92,-7.23 -6.78,-14.79 -5.24,-22.34l17.24 -83.07c12.62,-61.05 -6.46,-131.22 -51.1,-187.54 -48.95,-61.99 -119.74,-97.55 -193.93,-97.55l-268.73 0.95c-35.1,0.32 -66.18,20.45 -80.64,53.17 -14.77,32.41 -9.85,69.55 12.62,96.92 43.4,52.54 86.19,103.21 127.44,150.41 145.6,167.4 243.18,262.74 309.05,316.86l-123.12 0.02c-1.22,0 -2.46,0 -3.7,0.32 -24.01,-95.66 -109.28,-166.46 -209.93,-166.46 -119.74,0 -217.01,99.44 -217.01,221.84 0,122.09 97.27,221.84 217.01,221.84 113.89,0 208.09,-90.94 216.08,-205.16l708.92 -0.01c68.94,0 131.74,-34.93 159.76,-89.05l108.35 -207.68 45.56 94.4c-62.76,40.53 -100.93,111.25 -100.95,187.21 0,122.41 97.27,221.84 217.01,221.84 119.73,0 217,-99.43 217,-221.84 0,-122.09 -97.27,-221.84 -217,-221.84l-0.01 0.02zm-1354.71 369.72c-80.64,0 -146.22,-67.02 -146.22,-149.47 0,-82.44 65.57,-149.46 146.22,-149.46 80.65,0 146.21,67.02 146.21,149.46 0,82.45 -65.56,149.47 -146.21,149.47zm1337.17 -498.11l-98.19 -19.19 27.69 -52.86 70.5 72.06zm-388.47 -543.44c-1.54,0 -2.47,-0.32 -3.39,-0.32l0 -53.8c0.92,0 2.15,-0.32 3.39,-0.32l101.89 5.04c2.15,0 3.39,0.62 4,0.94l27.4 39.65 -133.29 8.81 0 0.01zm73.57 785.73c-15.7,30.22 -54.8,50.67 -97.27,50.67l-442.34 0c-3.07,-0.95 -6.14,-1.27 -9.23,-1.27 -11.7,0 -76.96,-14.16 -310.28,-270.61l167.45 0c19.4,0 35.4,-16.05 35.4,-36.19 0,-19.82 -16.01,-36.18 -35.4,-36.18l-219.78 0c-3.7,0 -7.39,0.62 -10.46,1.88 -6.46,-7.23 -12.93,-14.79 -19.7,-22.66 -9.85,-11.33 -19.7,-22.66 -29.55,-34.62l96.97 0.01c19.7,0 35.39,-16.04 35.39,-36.18 0,-20.14 -15.69,-36.18 -35.39,-36.18l-158.53 0c-11.7,-13.84 -23.4,-28.01 -35.1,-42.17 -2.78,-3.26 -4.33,-7.45 -4.33,-11.78 0,-2.8 0.64,-5.56 1.88,-8.06 1.54,-3.46 6.16,-11.01 16.63,-11.01l268.42 -0.94c52.63,0 103.43,25.8 139.14,70.79 31.08,39.66 44.94,86.85 36.63,126.81l-17.24 83.07c-5.54,27.69 0.32,56.01 17.24,79.93 20.01,28.32 53.56,47.21 91.12,51.61l295.19 38.07c64.65,7.56 124.67,-25.8 156.99,-87.16 8.62,-16.37 21.24,-35.56 34.47,-56.01 55.41,-84.33 139.14,-212.08 66.5,-351.8 -8,-15.41 -18.16,-31.47 -28.93,-48.78 -18.48,-29.27 -52.63,-84.01 -47.1,-101.95 0.61,-1.89 4.62,-4.09 6.78,-5.04 0.61,-0.32 1.24,-0.32 1.85,-0.62l15.08 -6.61c16.32,-6.93 35.4,-1.88 43.1,7.55l180.08 220.9c16.31,19.83 19.08,43.74 8,65.45l-213.63 409.08 -0.02 0zm-735.38 -206.11c-80.64,0 -146.21,-67.02 -146.21,-149.47 0,-82.13 65.56,-149.46 146.21,-149.46 80.65,0 146.22,67.33 146.22,149.46 0,82.44 -65.57,149.47 -146.22,149.47z"/>
  <path class="fil0" d="M1627.44 2093.83c0,31.46 -24.93,57.27 -55.7,57.27 -30.79,0 -55.72,-25.8 -55.72,-57.27 0,-31.16 24.93,-56.95 55.72,-56.95 30.78,0 55.7,25.8 55.7,56.95z"/>
  <ellipse class="fil0" cx="216.95" cy="2092.25" rx="55.86" ry="56.96"/>
  <path class="fil0" d="M971.17 406.26l-31.4 -115.79c-4.31,-15.74 -18.16,-26.44 -34.17,-26.44l-390.62 0c-15.7,0 -29.55,10.7 -33.86,26.12l-32.01 115.79c-0.93,3.46 -1.54,6.61 -1.54,10.07l0 391.44c0,20.14 16.01,36.19 35.39,36.19l454.04 0c19.7,0 35.4,-16.04 35.4,-36.18l0 -391.45c0,-3.46 -0.32,-6.61 -1.24,-9.76zm-70.5 11.33l-152.06 0 0 -81.18 130.21 0 21.86 81.18 -0.01 0zm-358.91 -81.18l136.05 0 0 81.18 -158.52 0 22.47 -81.18zm359.84 434.87l-383.23 0 0 -281.31 159.44 0 0 62.31c0.01,19.98 15.87,36.18 35.41,36.18 19.55,0 35.41,-16.21 35.41,-36.18l-0.02 -62.31 152.99 0 0 281.32 0 -0.01z"/>
  <path class="fil0" d="M1067.83 173.72c-4.31,8.82 -12,15.41 -21.55,18.24l-122.52 36.19c-3.39,1.26 -6.46,1.57 -9.85,1.57 -15.39,0 -29.55,-10.39 -34.17,-26.12 -5.23,-19.19 5.54,-39.33 24.33,-44.68l36.94 -11.01c-68.06,-37.87 -144.48,-57.8 -221.98,-57.8 -22.32,0 -44.7,1.68 -66.74,4.92 -116.35,17.3 -275.49,106.04 -349.38,259.59 -6.16,12.9 -18.77,20.46 -31.71,20.46 -0.02,0.01 -0.03,0.01 -0.03,0.01 -19.53,0 -35.37,-16.19 -35.37,-36.15 0,-5.57 1.27,-11.09 3.7,-16.08 85.27,-177.47 268.42,-279.42 402.62,-299.57 114.51,-17 229.95,4.09 330.6,60.11l-12 -34.93c-6.46,-18.88 3.08,-39.65 21.24,-46.26 18.47,-6.93 38.78,2.83 45.24,21.71l42.49 120.84c3.39,9.43 2.77,19.82 -1.85,28.95l-0.01 -0.01zm149.6 595.67c-61.56,119.25 -132.05,204.85 -215.47,259.29l36.93 6.61c19.09,3.78 32.01,22.66 28.63,42.16 -3.07,17.62 -18.16,29.9 -34.79,29.9 -2.15,0 -4.31,-0.32 -6.46,-0.62l-123.74 -22.97c-9.54,-1.57 -17.85,-7.55 -23.4,-15.73 -5.23,-8.5 -7.07,-18.57 -4.61,-28.32l30.16 -126.81c4.92,-19.19 24.01,-31.16 42.78,-26.43 19.08,4.72 30.79,24.23 26.16,43.73l-8.92 37.13c72.33,-47.84 134.82,-124.3 190.23,-231.6 59.41,-116.11 35.71,-360.3 -76.96,-480.18 -13.54,-14.48 -12.92,-37.13 1.24,-50.97 13.85,-13.84 36.32,-13.54 49.87,0.94 137.91,146.33 160.68,423.22 88.34,563.89l0.01 0zm-373.07 288.23c2.77,19.83 -10.46,38.39 -29.55,41.23 -31.72,5.03 -62.19,7.55 -91.73,7.55 -218.87,0 -379.24,-128.07 -455.27,-249.53 -54.87,-87.84 -84.11,-189.98 -84.11,-294.24 0,-12.74 0.44,-25.69 1.31,-38.36l-26.17 25.8c-6.56,6.21 -15.18,9.67 -24.11,9.67 -19.61,0 -35.49,-16.25 -35.49,-36.28 0,-9.61 3.73,-18.83 10.36,-25.62l90.2 -89.36c7.07,-6.93 16.62,-10.07 26.47,-10.07 9.54,0.62 18.78,5.03 25.24,12.59l82.8 99.12c12.93,15.1 11.09,38.07 -3.7,50.97 -6.77,5.99 -15.08,8.82 -23.09,8.82 -10.16,0 -20.01,-4.41 -27.08,-12.6l-24.62 -29.57c-7.7,101.95 17.23,203.28 71.72,290.13 74.79,119.57 244.41,246.07 476.5,209.57 19.4,-3.15 37.25,10.38 40.32,30.21l0 -0.01z"/>
 </g>
</svg>
