<svg id="Capa_1" data-name="Capa 1" xmlns="http://www.w3.org/2000/svg" viewBox="0 0 136.84 36"><defs><style>.cls-1{fill:#a7222c;}.cls-2{fill:#bc3e47;}.cls-3{fill:#e8505b;}.cls-4{fill:#fff;}.cls-5{fill:#263238;}</style></defs><path class="cls-1" d="M11,10H5a5,5,0,0,0-5,5v6a5,5,0,0,0,5,5h6a5,5,0,0,0,5-5V15A5,5,0,0,0,11,10Z"/><path class="cls-2" d="M23,5H11a7,7,0,0,0-7,7V24a7,7,0,0,0,7,7H23a7,7,0,0,0,7-7V12A7,7,0,0,0,23,5Z"/><path class="cls-3" d="M38,0H18a8,8,0,0,0-8,8V28a8,8,0,0,0,8,8H38a8,8,0,0,0,8-8V8A8,8,0,0,0,38,0Z"/><path class="cls-4" d="M28.22,8.6h-5.4V28h5.82c5,0,9.66-2,9.66-9.8C38.3,10.19,33.4,8.6,28.22,8.6Zm.65,3.33c2.69,0,4.67,1.06,4.67,6.27s-1.84,6.47-4.62,6.47H27.41V11.93Z"/><path class="cls-5" d="M66.33,20.19c0-4.51-2.1-7.28-6.07-7.28-3.81,0-6.14,3.27-6.14,7.87s2.41,7.56,6.53,7.56a8,8,0,0,0,5.15-1.85L64.68,25a6.26,6.26,0,0,1-3.84,1.29c-2.12,0-3.72-1.32-4-4.74h9.41C66.3,21.17,66.33,20.69,66.33,20.19Zm-2.55-.59H56.87c.19-3.28,1.48-4.65,3.44-4.65,2.33,0,3.47,1.6,3.47,4.48Zm9.47,8.74a4.31,4.31,0,0,0,2-.51L74.62,26a2.55,2.55,0,0,1-1,.17c-.68,0-.93-.39-.93-1.18V7l-2.57.31V25.09A2.9,2.9,0,0,0,73.25,28.34ZM79.82,6.16a1.75,1.75,0,1,0,1.82,1.76A1.72,1.72,0,0,0,79.82,6.16Zm1.32,7.08H78.56V28h2.58Zm16.08,0H94.51L90.67,25.7,86.81,13.24H84L89.1,28h3.11Zm14,7c0-4.51-2.1-7.28-6.07-7.28-3.81,0-6.14,3.27-6.14,7.87s2.41,7.56,6.53,7.56a8,8,0,0,0,5.15-1.85L109.55,25a6.26,6.26,0,0,1-3.84,1.29c-2.12,0-3.72-1.32-4-4.74h9.41C111.17,21.17,111.2,20.69,111.2,20.19Zm-2.55-.59h-6.91c.19-3.28,1.48-4.65,3.44-4.65,2.33,0,3.47,1.6,3.47,4.48Zm13-6.69c-1.8,0-3.17,1.12-4,3.33l-.25-3h-2.21V28h2.57V19.57c.62-2.83,1.68-4.14,3.53-4.14a4.38,4.38,0,0,1,1.29.17l.47-2.52A5.81,5.81,0,0,0,121.62,12.91Zm15.22.33h-2.66l-3.86,12.88-3.95-12.88h-2.74l5,14.76h.87c-.84,2.3-1.68,3.44-4.67,3.95l.28,2c4.08-.44,5.82-2.74,6.86-5.88Z"/></svg>