<?xml version="1.0" encoding="UTF-8"?>
<!DOCTYPE svg PUBLIC "-//W3C//DTD SVG 1.1//EN" "http://www.w3.org/Graphics/SVG/1.1/DTD/svg11.dtd">
<!-- Creator: CorelDRAW 2021 (64-Bit) -->
<svg xmlns="http://www.w3.org/2000/svg" xml:space="preserve" width="180.095mm" height="29.9974mm" version="1.1" style="shape-rendering:geometricPrecision; text-rendering:geometricPrecision; image-rendering:optimizeQuality; fill-rule:evenodd; clip-rule:evenodd"
viewBox="0 0 18009.54 2999.74"
 xmlns:xlink="http://www.w3.org/1999/xlink"
 xmlns:xodm="http://www.corel.com/coreldraw/odm/2003">
 <defs>
  <style type="text/css">
   <![CDATA[
    .fil0 {fill:#BC4ED8;fill-rule:nonzero}
    .fil1 {fill:#BC4ED8;fill-rule:nonzero}
   ]]>
  </style>
 </defs>
 <g id="Capa_x0020_1">
  <metadata id="CorelCorpID_0Corel-Layer"/>
  <g id="_2834318664272">
   <path class="fil0" d="M2036.05 2425.01c-22.73,0 -44.65,2.85 -65.79,8.15l-46.65 -96.61 219.3 42.8c2.8,0.81 5.99,0.81 8.78,0.81 16.74,0 32.3,-9.37 40.27,-24.87 9.57,-17.93 6.38,-40.36 -7.97,-55.03l-214.93 -218.9c-0.8,-0.81 -1.6,-1.63 -2.39,-2.04 27.51,-59.92 18.74,-128.4 -24.33,-181.39l-218.92 -268.63c21.93,-8.56 40.27,-24.86 49.84,-46.06 12.76,-26.9 9.97,-58.29 -7.58,-82.75l-44.26 -63.59c-16.34,-23.24 -44.26,-38.31 -74.96,-39.95l-132.39 -6.11c-27.92,-1.22 -55.03,8.56 -74.17,27.31 -16.74,16.31 -25.93,37.91 -25.93,60.74l0 81.11c0,6.93 0.8,14.27 2.8,20.79l-149.52 0.02c-25.31,-0.03 -45.84,20.97 -45.84,46.85 0,25.89 20.53,46.89 45.85,46.89l192.99 0.02c-3.98,58.69 36.28,123.51 75.36,185.87 13.17,20.79 25.52,40.36 33.9,56.66 68.19,131.25 -11.17,252.73 -81.35,359.53 -18.74,28.53 -36.28,55.43 -49.45,80.3 -18.34,35.06 -57.42,70.52 -111.25,64l-382.81 -48.92c-23.13,-2.85 -43.47,-13.46 -54.63,-28.95 -6.37,-9.37 -8.78,-19.16 -6.78,-28.94l22.33 -107.61c16.34,-79.09 -8.38,-169.98 -66.2,-242.95 -63.4,-80.3 -155.11,-126.36 -251.21,-126.36l-348.13 1.22c-45.45,0.41 -85.73,26.5 -104.46,68.89 -19.14,41.99 -12.77,90.08 16.35,125.54 56.21,68.07 111.64,133.71 165.08,194.85 188.61,216.86 315.01,340.37 400.35,410.48l-159.49 0.02c-1.59,0 -3.19,0 -4.79,0.41 -31.1,-123.92 -141.56,-215.63 -271.95,-215.63 -155.12,0 -281.12,128.81 -281.12,287.37 0,158.17 126,287.38 281.12,287.38 147.54,0 269.56,-117.81 279.92,-265.77l918.34 -0.01c89.32,0 170.67,-45.25 206.96,-115.36l140.37 -269.03 59.01 122.29c-81.3,52.51 -130.74,144.12 -130.78,242.52 0,158.56 126.01,287.37 281.12,287.37 155.12,0 281.12,-128.81 281.12,-287.37 0,-158.17 -126,-287.38 -281.12,-287.38l-0.01 0.02zm-1754.93 478.96c-104.47,0 -189.41,-86.82 -189.41,-193.63 0,-106.8 84.94,-193.62 189.41,-193.62 104.48,0 189.41,86.82 189.41,193.62 0,106.81 -84.93,193.63 -189.41,193.63zm1732.2 -645.27l-127.2 -24.87 35.88 -68.48 91.32 93.35zm-503.23 -703.98c-2,0 -3.19,-0.41 -4.38,-0.41l0 -69.7c1.19,0 2.79,-0.41 4.38,-0.41l131.99 6.51c2.8,0 4.39,0.81 5.18,1.22l35.49 51.36 -172.66 11.42 0 0.01zm95.31 1017.85c-20.34,39.14 -70.98,65.63 -126.02,65.63l-573 0c-3.99,-1.22 -7.97,-1.63 -11.97,-1.63 -15.15,0 -99.68,-18.35 -401.94,-350.56l216.92 0c25.13,0 45.86,-20.79 45.86,-46.88 0,-25.68 -20.73,-46.87 -45.86,-46.87l-284.71 -0.01c-4.79,0 -9.57,0.81 -13.56,2.44 -8.37,-9.37 -16.75,-19.16 -25.52,-29.35 -12.77,-14.68 -25.52,-29.36 -38.29,-44.84l125.62 0.01c25.53,0 45.85,-20.79 45.85,-46.88 0,-26.09 -20.32,-46.87 -45.85,-46.87l-205.36 0c-15.15,-17.94 -30.31,-36.29 -45.47,-54.63 -3.59,-4.22 -5.6,-9.65 -5.6,-15.26 0,-3.63 0.83,-7.21 2.44,-10.44 2,-4.48 7.97,-14.26 21.53,-14.26l347.73 -1.22c68.18,0 133.97,33.42 180.23,91.71 40.27,51.36 58.21,112.5 47.44,164.27l-22.32 107.62c-7.18,35.87 0.4,72.55 22.32,103.54 25.94,36.68 69.39,61.14 118.04,66.85l382.41 49.32c83.74,9.79 161.5,-33.42 203.36,-112.91 11.18,-21.19 27.52,-46.06 44.67,-72.55 71.77,-109.25 180.23,-274.74 86.13,-455.73 -10.37,-19.98 -23.53,-40.77 -37.47,-63.19 -23.93,-37.91 -68.2,-108.83 -61.02,-132.07 0.8,-2.44 5.99,-5.3 8.78,-6.52 0.79,-0.41 1.59,-0.41 2.39,-0.81l19.54 -8.56c21.13,-8.97 45.85,-2.44 55.83,9.78l233.27 286.16c21.14,25.68 24.72,56.65 10.37,84.79l-276.74 529.91 -0.03 0.01zm-952.63 -267c-104.47,0 -189.42,-86.82 -189.42,-193.62 0,-106.4 84.94,-193.63 189.42,-193.63 104.47,0 189.41,87.23 189.41,193.63 0,106.79 -84.94,193.62 -189.41,193.62z"/>
   <path class="fil0" d="M2108.23 2712.38c0,40.77 -32.3,74.19 -72.17,74.19 -39.87,0 -72.17,-33.43 -72.17,-74.19 0,-40.35 32.3,-73.77 72.17,-73.77 39.87,0 72.17,33.43 72.17,73.77z"/>
   <ellipse class="fil0" cx="281.04" cy="2710.34" rx="72.37" ry="73.79"/>
   <path class="fil0" d="M1258.07 526.27l-40.67 -150c-5.58,-20.39 -23.52,-34.24 -44.25,-34.24l-506.03 0c-20.33,0 -38.28,13.85 -43.86,33.83l-41.47 150c-1.19,4.49 -2,8.56 -2,13.05l0 507.09c0,26.09 20.73,46.87 45.85,46.87l588.18 0.01c25.52,0 45.86,-20.78 45.86,-46.88l0 -507.09c0,-4.49 -0.4,-8.56 -1.61,-12.64zm-91.31 14.68l-196.98 0 0 -105.17 168.68 0 28.31 105.17 -0.01 0zm-464.94 -105.17l176.24 0 0 105.17 -205.36 0 29.12 -105.17zm466.14 563.34l-496.45 0 0 -364.41 206.55 0 0 80.71c0.01,25.89 20.55,46.87 45.88,46.87 25.31,0 45.85,-20.98 45.85,-46.87l-0.01 -80.71 198.18 0 0 364.42 0 -0.01z"/>
   <path class="fil0" d="M1383.29 225.04c-5.58,11.41 -15.55,19.97 -27.91,23.64l-158.71 46.87c-4.39,1.63 -8.37,2.04 -12.76,2.04 -19.94,0 -38.28,-13.45 -44.26,-33.83 -6.78,-24.86 7.18,-50.94 31.51,-57.88l47.85 -14.27c-88.16,-49.06 -187.16,-74.87 -287.56,-74.87 -28.91,0 -57.9,2.18 -86.46,6.37 -150.72,22.42 -356.88,137.37 -452.58,336.29 -7.98,16.71 -24.33,26.5 -41.08,26.5 -0.03,0.02 -0.04,0.02 -0.04,0.02 -25.31,0 -45.83,-20.97 -45.83,-46.82 0,-7.23 1.65,-14.37 4.8,-20.85 110.45,-229.89 347.71,-361.97 521.57,-388.06 148.33,-22.01 297.87,5.3 428.27,77.86l-15.56 -45.24c-8.37,-24.46 3.99,-51.36 27.51,-59.92 23.93,-8.97 50.24,3.67 58.62,28.12l55.03 156.54c4.38,12.22 3.58,25.68 -2.39,37.5l-0.02 -0.01zm193.8 771.64c-79.75,154.49 -171.07,265.37 -279.13,335.89l47.85 8.56c24.72,4.89 41.47,29.35 37.09,54.62 -3.99,22.83 -23.52,38.73 -45.06,38.73 -2.79,0 -5.59,-0.41 -8.38,-0.81l-160.3 -29.76c-12.36,-2.04 -23.12,-9.78 -30.3,-20.38 -6.78,-11.01 -9.17,-24.05 -5.99,-36.69l39.08 -164.27c6.38,-24.87 31.11,-40.35 55.43,-34.24 24.72,6.12 39.87,31.39 33.89,56.66l-11.57 48.1c93.71,-61.97 174.66,-161.02 246.43,-300.02 76.97,-150.42 46.26,-466.74 -99.69,-622.05 -17.54,-18.75 -16.75,-48.09 1.6,-66.03 17.95,-17.93 47.05,-17.53 64.6,1.22 178.65,189.55 208.15,548.26 114.44,730.47l0.01 0zm-483.3 373.38c3.59,25.68 -13.55,49.73 -38.27,53.4 -41.08,6.52 -80.56,9.79 -118.84,9.79 -283.51,0 -491.26,-165.91 -589.76,-323.25 -71.08,-113.8 -108.96,-246.1 -108.96,-381.17 0,-16.51 0.59,-33.28 1.7,-49.69l-33.89 33.43c-8.5,8.04 -19.67,12.52 -31.24,12.52 -25.4,0 -45.98,-21.05 -45.98,-47 0,-12.44 4.83,-24.38 13.42,-33.19l116.84 -115.77c9.17,-8.97 21.53,-13.04 34.3,-13.04 12.35,0.81 24.33,6.52 32.7,16.31l107.26 128.4c16.75,19.56 14.35,49.32 -4.79,66.03 -8.78,7.75 -19.54,11.42 -29.91,11.42 -13.16,0 -25.93,-5.71 -35.09,-16.31l-31.9 -38.32c-9.97,132.08 22.33,263.33 92.92,375.84 96.89,154.9 316.6,318.76 617.27,271.48 25.12,-4.08 48.25,13.45 52.23,39.13l-0.01 -0.01z"/>
   <g>
    <g id="ebfa5480-89ba-4eee-85cf-ec85c1acfac7" data-v-fde0c5aa>
     <path class="fil1" d="M3980.93 1608.29l-123.17 -352.76 -542.84 0 -123.16 352.76 -264.58 0 530.67 -1490.14 256.98 0 530.67 1490.14 -264.57 0zm-580.85 -591.49l372.53 0 -185.5 -532.19 -187.03 532.19zm1531.19 -489.62l0 0c100.36,0 186.53,24.84 258.5,74.51l0 0 0 0c72.99,49.66 127.72,116.07 164.22,199.19l0 0 0 0c37.5,84.13 56.26,176.39 56.26,276.74l0 0 0 0c0,101.37 -18.76,193.62 -56.26,276.74l0 0 0 0c-36.49,84.14 -91.24,151.04 -164.22,200.71l0 0 0 0c-71.97,49.68 -158.14,74.51 -258.5,74.51l0 0 0 0c-63.86,0 -118.6,-6.59 -164.22,-19.77l0 0 0 0c-44.6,-14.19 -87.18,-35.98 -127.73,-65.38l0 0 0 579.33 -264.57 0 0 -1579.85 212.88 0 27.36 97.31 0 0c45.62,-37.5 93.26,-65.88 142.93,-85.15l0 0 0 0c49.68,-19.26 107.46,-28.89 173.35,-28.89l0 0zm-41.06 884.96l0 0c78.06,0 138.89,-30.41 182.47,-91.23l0 0 0 0c44.61,-60.82 66.9,-141.92 66.9,-243.29l0 0 0 0c0,-100.35 -22.29,-180.94 -66.9,-241.77l0 0 0 0c-43.59,-60.82 -104.41,-91.23 -182.47,-91.23l0 0 0 0c-88.19,0 -154.07,29.4 -197.67,88.19l0 0 0 0c-44.6,59.81 -66.9,141.41 -66.9,244.81l0 0 0 0c0,104.41 22.3,186.01 66.9,244.81l0 0 0 0c43.6,59.81 109.48,89.71 197.67,89.71l0 0zm1257.51 -884.96l0 0c101.36,0 188.03,24.84 260,74.51l0 0 0 0c72.99,49.66 127.73,116.07 164.23,199.19l0 0 0 0c36.49,84.13 54.74,176.39 54.74,276.74l0 0 0 0c0,101.37 -18.25,193.62 -54.74,276.74l0 0 0 0c-36.5,84.14 -91.24,151.04 -164.23,200.71l0 0 0 0c-71.97,49.68 -158.64,74.51 -260,74.51l0 0 0 0c-63.87,0 -118.1,-6.59 -162.71,-19.77l0 0 0 0c-44.6,-14.19 -87.17,-35.98 -127.72,-65.38l0 0 0 579.33 -264.58 0 0 -1579.85 212.88 0 27.37 97.31 0 0c45.61,-37.5 93.26,-65.88 142.93,-85.15l0 0 0 0c49.67,-19.26 106.95,-28.89 171.83,-28.89l0 0zm-39.54 884.96l0 0c78.06,0 138.87,-30.41 182.47,-91.23l0 0 0 0c44.59,-60.82 66.9,-141.92 66.9,-243.29l0 0 0 0c0,-100.35 -22.31,-180.94 -66.9,-241.77l0 0 0 0c-43.6,-60.82 -104.41,-91.23 -182.47,-91.23l0 0 0 0c-88.19,0 -154.09,29.4 -197.67,88.19l0 0 0 0c-44.61,59.81 -66.91,141.41 -66.91,244.81l0 0 0 0c0,104.41 22.3,186.01 66.91,244.81l0 0 0 0c43.58,59.81 109.48,89.71 197.67,89.71l0 0zm742.03 196.15l0 -1490.14 558.04 0 0 0c141.92,0 268.63,29.9 380.14,89.71l0 0 0 0c111.5,59.81 198.69,145.47 261.53,256.98l0 0 0 0c61.84,112.52 92.76,245.32 92.76,398.39l0 0 0 0c0,153.07 -30.92,285.86 -92.76,398.38l0 0 0 0c-62.84,111.5 -150.03,197.16 -261.53,256.97l0 0 0 0c-111.51,59.81 -238.22,89.71 -380.14,89.71l0 0 -558.04 0zm273.69 -243.29l284.35 0 0 0c141.92,0 250.38,-44.09 325.4,-132.29l0 0 0 0c74,-89.2 111,-212.36 111,-369.48l0 0 0 0c0,-157.13 -37,-280.29 -111,-369.5l0 0 0 0c-75.02,-88.19 -183.48,-132.29 -325.4,-132.29l0 0 -284.35 0 0 1003.56zm1731.92 264.58l0 0c-123.68,0 -229.1,-25.34 -316.28,-76.02l0 0 0 0c-87.18,-49.67 -152.06,-117.09 -194.63,-202.24l0 0 0 0c-43.59,-84.14 -65.38,-177.91 -65.38,-281.3l0 0 0 0c0,-99.35 20.27,-190.07 60.82,-272.18l0 0 0 0c41.56,-83.12 101.37,-149.02 179.42,-197.67l0 0 0 0c78.06,-48.66 170.81,-72.99 278.26,-72.99l0 0 0 0c99.35,0 183.48,20.27 252.42,60.83l0 0 0 0c68.93,41.56 121.13,97.31 156.61,167.25l0 0 0 0c34.47,68.94 51.7,146.99 51.7,234.17l0 0 0 0c0,42.58 -5.57,90.72 -16.72,144.45l0 0 -688.82 0 0 0c14.2,93.26 51.2,163.21 111.01,209.84l0 0 0 0c59.81,45.61 131.78,68.42 215.91,68.42l0 0 0 0c114.55,0 220.99,-28.89 319.32,-86.67l0 0 12.17 223.52 0 0c-45.62,24.33 -98.33,43.59 -158.14,57.78l0 0 0 0c-60.83,15.21 -126.72,22.81 -197.67,22.81l0 0zm-294.99 -675.12l428.79 0 0 0c0,-54.74 -15.2,-103.41 -45.61,-145.97l0 0 0 0c-31.43,-42.58 -80.08,-63.87 -145.98,-63.87l0 0 0 0c-64.87,0 -117.08,18.75 -156.61,56.26l0 0 0 0c-39.53,38.52 -66.4,89.71 -80.59,153.58l0 0zm1151.06 675.12l0 0c-91.24,0 -159.16,-25.85 -203.76,-77.55l0 0 0 0c-45.61,-51.7 -68.42,-118.6 -68.42,-200.71l0 0 0 -1339.61 263.05 0 0 1230.13 0 0c0,56.77 3.55,96.81 10.65,120.12l0 0 0 0c6.08,23.32 17.23,37.51 33.45,42.58l0 0 0 0c16.22,5.07 44.09,7.6 83.63,7.6l0 0 -22.81 217.44 -95.79 0zm287.38 -1246.85l0 -264.58 264.58 0 0 264.58 -264.58 0zm0 1225.56l0 -1064.38 264.58 0 0 1064.38 -264.58 0zm802.86 0l-409.04 -1064.38 260.02 0 261.53 735.94 261.54 -735.94 260.01 0 -409.02 1064.38 -225.04 0zm1277.25 21.29l0 0c-123.67,0 -229.09,-25.34 -316.27,-76.02l0 0 0 0c-87.17,-49.67 -152.56,-117.09 -196.15,-202.24l0 0 0 0c-43.58,-84.14 -65.38,-177.91 -65.38,-281.3l0 0 0 0c0,-99.35 20.78,-190.07 62.34,-272.18l0 0 0 0c41.56,-83.12 101.37,-149.02 179.43,-197.67l0 0 0 0c78.05,-48.66 170.8,-72.99 278.26,-72.99l0 0 0 0c99.34,0 183.48,20.27 252.41,60.83l0 0 0 0c68.93,41.56 120.63,97.31 155.09,167.25l0 0 0 0c34.47,68.94 51.71,146.99 51.71,234.17l0 0 0 0c0,42.58 -5.58,90.72 -16.73,144.45l0 0 -687.29 0 0 0c14.19,93.26 51.19,163.21 111,209.84l0 0 0 0c59.81,45.61 131.27,68.42 214.4,68.42l0 0 0 0c115.56,0 222,-28.89 319.31,-86.67l0 0 13.69 223.52 0 0c-45.62,24.33 -98.84,43.59 -159.66,57.78l0 0 0 0c-59.81,15.21 -125.19,22.81 -196.16,22.81l0 0zm-296.5 -675.12l430.32 0 0 0c0,-54.74 -15.71,-103.41 -47.14,-145.97l0 0 0 0c-31.43,-42.58 -79.57,-63.87 -144.45,-63.87l0 0 0 0c-64.88,0 -117.59,18.75 -158.14,56.26l0 0 0 0c-39.53,38.52 -66.4,89.71 -80.59,153.58l0 0zm878.88 653.83l0 -1064.38 247.85 0 6.08 112.51 0 0c31.43,-35.47 71.46,-66.39 120.13,-92.75l0 0 0 0c48.65,-27.36 100.35,-41.05 155.09,-41.05l0 0 0 0c16.22,0 31.43,1.52 45.62,4.56l0 0 -18.25 260.02 0 0c-27.37,-7.1 -57.78,-10.65 -91.23,-10.65l0 0 0 0c-44.6,0 -85.16,10.14 -121.65,30.41l0 0 0 0c-37.5,20.28 -63.86,45.62 -79.06,76.03l0 0 0 725.3 -264.58 0zm787.64 515.47l237.21 -585.41 -442.48 -994.44 293.46 0 272.18 685.76 276.75 -685.76 293.47 0 -666.01 1579.85 -264.58 0zm1242.29 -515.47l0 -1105.43 0 0c-59.8,40.54 -122.65,66.39 -188.54,77.54l0 0 -22.81 -229.61 0 0c46.63,-10.13 99.35,-39.02 158.14,-86.66l0 0 0 0c57.78,-47.65 96.81,-96.3 117.08,-145.98l0 0 208.32 0 0 1490.14 -272.19 0zm1230.13 30.42l0 0c-124.69,0 -234.16,-32.95 -328.43,-98.84l0 0 0 0c-95.29,-64.88 -168.79,-157.13 -220.48,-276.74l0 0 0 0c-52.72,-118.61 -79.08,-255.96 -79.08,-412.08l0 0 0 0c0,-149.01 26.36,-281.29 79.08,-396.86l0 0 0 0c51.7,-116.57 125.19,-206.79 220.48,-270.65l0 0 0 0c95.28,-63.87 204.76,-95.79 328.43,-95.79l0 0 0 0c124.69,0 234.68,32.43 329.96,97.31l0 0 0 0c95.29,64.87 168.78,154.59 220.48,269.13l0 0 0 0c51.7,115.57 77.55,247.86 77.55,396.86l0 0 0 0c0,156.11 -25.85,293.47 -77.55,412.08l0 0 0 0c-51.7,119.61 -125.19,211.86 -220.48,276.74l0 0 0 0c-95.28,65.89 -205.27,98.84 -329.96,98.84l0 0zm0 -244.82l0 0c107.46,0 193.62,-45.1 258.5,-135.33l0 0 0 0c64.88,-89.2 97.31,-225.04 97.31,-407.51l0 0 0 0c0,-170.3 -32.94,-300.05 -98.84,-389.26l0 0 0 0c-64.87,-88.19 -150.53,-132.28 -256.97,-132.28l0 0 0 0c-106.44,0 -192.6,44.09 -258.49,132.28l0 0 0 0c-64.88,89.21 -97.32,218.97 -97.32,389.26l0 0 0 0c0,181.46 32.44,317.3 97.32,407.51l0 0 0 0c63.86,90.23 150.03,135.33 258.49,135.33l0 0zm746.59 214.4l521.55 -764.84 -495.69 -725.3 302.58 0 342.13 506.35 343.65 -506.35 301.06 0 -495.69 725.3 521.54 764.84 -302.59 0 -367.97 -542.83 -367.97 542.83 -302.6 0z"/>
    </g>
    <g id="dcd69f64-a8e6-4df4-ac9b-e89d28baccb6" data-v-fde0c5aa>
     <path class="fil1" d="M3730.8 2573.82l-116.69 157.49 -118.83 -157.49 -43.67 0 0 331.8 37.58 0 0 -274.53 124.92 157.85 122.77 -157.85 0 274.53 37.59 0 0 -331.8 -43.67 0zm468.53 77.31c-73.02,0 -121.34,57.63 -121.34,129.22 0,71.58 48.32,129.21 121.34,129.21 41.52,0 71.23,-16.82 89.84,-44.02l0 40.08 37.59 0 0 -250.55 -37.59 0 0 40.45c-18.61,-26.85 -48.32,-44.39 -89.84,-44.39zm5.01 224.43c-55.48,0 -88.76,-43.67 -88.76,-95.21 0,-51.55 33.28,-95.21 88.76,-95.21 55.84,0 86.62,43.66 86.62,95.21 0,51.54 -30.78,95.21 -86.62,95.21zm525.09 -224.43c-64.43,0 -98.07,26.49 -98.07,71.59 0,91.63 166.8,52.62 166.8,115.25 0,34.01 -43.67,39.74 -64.07,39.74 -48.68,0 -67.65,-25.06 -70.16,-50.83l-39.01 0c2.5,44.02 39.01,82.68 108.81,82.68 61.92,0 102.01,-26.49 102.01,-75.16 0,-94.14 -166.8,-55.13 -166.8,-115.26 0,-24.34 20.4,-36.15 59.78,-36.15 41.88,0 57.98,17.54 60.85,39.37l38.29 0c-4.65,-36.87 -32.21,-71.23 -98.43,-71.23zm912.73 221.92c-80.89,0 -125.99,-58.7 -125.99,-133.15 0,-74.81 45.1,-133.51 125.99,-133.51 54.41,0 90.56,26.13 107.74,66.58l39.37 0c-20.76,-60.49 -75.16,-103.09 -150.33,-103.09 -99.5,0 -160.35,75.53 -160.35,170.02 0,94.14 60.85,169.66 160.35,169.66 75.17,0 129.57,-42.59 150.33,-103.08l-39.37 0c-17.18,40.44 -53.33,66.57 -107.74,66.57zm554.8 -221.92c-76.96,0 -124.56,57.63 -124.56,129.22 0,71.58 47.6,129.21 124.56,129.21 76.6,0 124.2,-57.63 124.2,-129.21 0,-71.59 -47.6,-129.22 -124.2,-129.22zm0 224.43c-55.84,0 -86.98,-43.67 -86.98,-95.21 0,-51.55 31.14,-95.21 86.98,-95.21 55.48,0 86.62,43.66 86.62,95.21 0,51.54 -31.14,95.21 -86.62,95.21zm424.15 -220.49l0 250.55 37.58 0 0 -144.24c0,-45.1 34.37,-76.24 75.89,-76.24 41.16,0 70.15,30.06 70.15,75.52l0 144.96 37.58 0 0 -145.68c0,-71.22 -48.67,-108.81 -100.22,-108.81 -40.8,0 -65.14,18.97 -83.4,42.96l0 -39.02 -37.58 0zm593.1 250.55l0 -217.62 57.62 0 0 -32.93 -57.62 0 0 -89.84 -37.59 0 0 89.84 -51.18 0 0 32.93 51.18 0 0 217.62 37.59 0zm478.91 -254.49c-62.28,0 -87.33,48.68 -92.34,65.51l0 -61.57 -37.59 0 0 250.55 37.59 0 0 -110.24c0,-55.12 34.36,-106.66 90.19,-106.66l4.66 0 0 -37.59 -2.51 0zm395.88 0c-76.6,0 -124.21,57.63 -124.21,129.22 0,71.58 47.61,129.21 124.21,129.21 76.59,0 124.2,-57.63 124.2,-129.21 0,-71.59 -47.61,-129.22 -124.2,-129.22zm0 224.43c-55.48,0 -86.62,-43.67 -86.62,-95.21 0,-51.55 31.14,-95.21 86.62,-95.21 55.48,0 86.62,43.66 86.62,95.21 0,51.54 -31.14,95.21 -86.62,95.21zm462.09 -320.71l-37.58 0 0 350.77 37.58 0 0 -350.77zm288.49 417.35l34.01 0 44.38 -106.66 -49.39 0 -29 106.66zm1032.28 -398.38l-116.68 157.49 -118.84 -157.49 -43.66 0 0 331.8 37.58 0 0 -274.53 124.92 157.85 122.77 -157.85 0 274.53 37.58 0 0 -331.8 -43.67 0zm474.62 301.74c-50.47,0 -83.04,-35.44 -88.76,-80.18l210.1 0 0 -15.03c0,-71.59 -47.6,-129.22 -124.2,-129.22 -76.96,0 -124.56,57.63 -124.56,129.22 0,71.58 50.11,129.21 127.07,129.21 59.41,0 96.64,-31.14 114.18,-76.24l-41.17 0c-13.6,25.06 -37.58,42.24 -72.66,42.24zm-2.86 -190.42c47.96,0 78.03,32.57 85.19,75.16l-170.38 0c6.8,-42.59 36.87,-75.16 85.19,-75.16zm420.93 -30.07l0 250.55 37.58 0 0 -144.24c0,-45.1 34.01,-76.24 75.53,-76.24 41.16,0 70.15,30.06 70.15,75.52l0 144.96 37.58 0 0 -145.68c0,-71.22 -48.67,-108.81 -100.22,-108.81 -40.44,0 -65.14,18.97 -83.04,42.96l0 -39.02 -37.58 0zm642.85 -3.94c-76.6,0 -124.2,57.63 -124.2,129.22 0,71.58 47.6,129.21 124.2,129.21 76.6,0 124.2,-57.63 124.2,-129.21 0,-71.59 -47.6,-129.22 -124.2,-129.22zm0 224.43c-55.84,0 -86.62,-43.67 -86.62,-95.21 0,-51.55 30.78,-95.21 86.62,-95.21 55.48,0 86.62,43.66 86.62,95.21 0,51.54 -31.14,95.21 -86.62,95.21zm511.49 -224.43c-64.43,0 -98.08,26.49 -98.08,71.59 0,91.63 166.8,52.62 166.8,115.25 0,34.01 -43.67,39.74 -64.07,39.74 -48.68,0 -67.65,-25.06 -70.16,-50.83l-39.01 0c2.5,44.02 39.01,82.68 108.45,82.68 62.28,0 102.37,-26.49 102.37,-75.16 0,-94.14 -166.8,-55.13 -166.8,-115.26 0,-24.34 20.41,-36.15 59.42,-36.15 42.24,0 58.34,17.54 61.21,39.37l38.3 0c-4.66,-36.87 -32.22,-71.23 -98.43,-71.23zm912.73 221.92c-80.9,0 -126,-58.7 -126,-133.15 0,-74.81 45.1,-133.51 126,-133.51 54.4,0 90.55,26.13 107.73,66.58l39.38 0c-21.12,-60.49 -75.17,-103.09 -150.34,-103.09 -99.5,0 -160.35,75.53 -160.35,170.02 0,94.14 60.85,169.66 160.35,169.66 75.17,0 129.22,-42.59 150.34,-103.08l-39.38 0c-17.18,40.44 -53.33,66.57 -107.73,66.57zm554.44 -221.92c-76.6,0 -124.21,57.63 -124.21,129.22 0,71.58 47.61,129.21 124.21,129.21 76.95,0 124.56,-57.63 124.56,-129.21 0,-71.59 -47.61,-129.22 -124.56,-129.22zm0 224.43c-55.48,0 -86.62,-43.67 -86.62,-95.21 0,-51.55 31.14,-95.21 86.62,-95.21 55.83,0 86.97,43.66 86.97,95.21 0,51.54 -31.14,95.21 -86.97,95.21zm629.6 -119.91c0,-44.38 30.42,-70.51 67.65,-70.51 35.08,0 61.92,27.92 61.92,70.15l0 150.33 37.59 0 0 -151.4c0,-63 -44.39,-103.09 -92.71,-103.09 -49.39,0 -75.88,33.65 -85.9,50.47 -16.11,-31.85 -46.89,-50.47 -79.82,-50.47 -40.45,0 -64.79,21.84 -76.24,41.88l0 -37.94 -37.59 0 0 250.55 37.59 0 0 -149.97c0,-44.38 30.78,-70.51 67.65,-70.51 35.07,0 62.28,27.92 62.28,70.15l0 150.33 37.58 0 0 -149.97zm480.35 149.97l37.58 0 0 -250.55 -37.58 0 0 250.55zm-1.43 -341.82l0 49.03 40.8 0 0 -49.03 -40.8 0zm442.04 87.33c-64.78,0 -98.07,26.49 -98.07,71.59 0,91.63 166.8,52.62 166.8,115.25 0,34.01 -43.67,39.74 -64.07,39.74 -48.68,0 -67.65,-25.06 -70.16,-50.83l-39.37 0c2.5,44.02 39.37,82.68 108.81,82.68 62.28,0 102.37,-26.49 102.37,-75.16 0,-94.14 -166.8,-55.13 -166.8,-115.26 0,-24.34 20.4,-36.15 59.42,-36.15 42.24,0 58.34,17.54 61.21,39.37l37.94 0c-4.3,-36.87 -31.86,-71.23 -98.08,-71.23zm404.83 254.49l37.58 0 0 -250.55 -37.58 0 0 250.55zm-1.44 -341.82l0 49.03 40.45 0 0 -49.03 -40.45 0zm463.53 87.33c-76.6,0 -124.2,57.63 -124.2,129.22 0,71.58 47.6,129.21 124.2,129.21 76.6,0 124.2,-57.63 124.2,-129.21 0,-71.59 -47.6,-129.22 -124.2,-129.22zm0 224.43c-55.48,0 -86.62,-43.67 -86.62,-95.21 0,-51.55 31.14,-95.21 86.62,-95.21 55.48,0 86.62,43.66 86.62,95.21 0,51.54 -31.14,95.21 -86.62,95.21zm424.51 -220.49l0 250.55 37.58 0 0 -144.24c0,-45.1 34,-76.24 75.52,-76.24 41.17,0 70.16,30.06 70.16,75.52l0 144.96 37.58 0 0 -145.68c0,-71.22 -48.68,-108.81 -100.22,-108.81 -40.45,0 -65.14,18.97 -83.04,42.96l0 -39.02 -37.58 0zm645.71 220.49c-50.47,0 -83.04,-35.44 -88.41,-80.18l209.75 0 0 -15.03c0,-71.59 -47.61,-129.22 -124.2,-129.22 -76.6,0 -124.21,57.63 -124.21,129.22 0,71.58 50.11,129.21 126.71,129.21 59.78,0 96.64,-31.14 114.18,-76.24l-41.16 0c-13.24,25.06 -37.58,42.24 -72.66,42.24zm-2.86 -190.42c47.96,0 78.03,32.57 85.18,75.16l-170.37 0c7.16,-42.59 37.22,-75.16 85.19,-75.16zm508.26 -34.01c-64.78,0 -98.43,26.49 -98.43,71.59 0,91.63 166.8,52.62 166.8,115.25 0,34.01 -43.31,39.74 -64.07,39.74 -48.68,0 -67.65,-25.06 -70.16,-50.83l-39.01 0c2.5,44.02 39.01,82.68 108.81,82.68 61.92,0 102.01,-26.49 102.01,-75.16 0,-94.14 -166.8,-55.13 -166.8,-115.26 0,-24.34 20.76,-36.15 59.78,-36.15 41.88,0 57.98,17.54 61.2,39.37l37.95 0c-4.66,-36.87 -32.22,-71.23 -98.08,-71.23z"/>
    </g>
   </g>
  </g>
 </g>
</svg>
